<svg width="264" height="194" viewBox="0 0 264 194" fill="none" xmlns="http://www.w3.org/2000/svg">
<style>svg { background-color: white; }</style>
<path d="M86.8326 30H65.3829C65.4544 30.0239 65.523 30.0559 65.5874 30.0954L66.1271 30.384C66.4139 30.5181 66.6601 30.7264 66.8403 30.9874C66.914 31.1018 67.0281 31.3284 66.952 31.4787C66.876 31.6694 66.8403 31.9699 66.6501 32.0463C66.4001 32.1485 66.1257 32.1751 65.8608 32.1226C65.7069 32.1157 65.5544 32.0901 65.4067 32.0463C65.9725 32.2728 66.5003 32.5376 66.876 33.067C66.914 33.1433 67.0662 33.1815 67.2159 33.1815C67.254 33.1815 67.254 33.2554 67.254 33.2936C67.1779 33.3699 67.1042 33.4081 67.1399 33.5202H67.254C67.4418 33.4438 67.4038 33.067 67.6677 33.1815C67.7601 33.2385 67.8273 33.3288 67.8556 33.4338C67.8838 33.5389 67.8711 33.6508 67.8198 33.7467C67.678 33.8842 67.5262 34.011 67.3657 34.1259C67.3481 34.1678 67.3391 34.2128 67.3391 34.2583C67.3391 34.3037 67.3481 34.3488 67.3657 34.3907C67.4612 34.5261 67.5261 34.6807 67.5559 34.8438C67.6677 35.1085 67.7057 35.4114 67.8198 35.6737C67.9978 36.2236 68.0869 36.7985 68.0837 37.3766C68.0837 37.6771 67.9316 37.9418 68.0457 38.2447C68.1452 38.5278 68.2845 38.7953 68.4594 39.0389C68.61 39.2309 68.7482 39.4324 68.8731 39.6423C69.0989 40.0215 69.515 40.3983 69.3272 40.8538C69.213 41.1185 68.7993 41.0923 68.5354 41.2306C68.3096 41.419 68.4974 41.7219 68.6091 41.9103C68.7993 42.2514 68.3833 42.4779 68.1194 42.5924C68.1955 42.7045 68.3571 42.6663 68.3833 42.7427C68.4213 42.9311 68.6091 43.0456 68.4974 43.234C68.3452 43.4605 67.8935 43.575 68.1194 43.9137C68.2715 44.1784 68.1741 44.4717 68.0837 44.746C68.0265 44.89 67.9343 45.0173 67.8156 45.1164C67.6968 45.2155 67.5553 45.2833 67.4038 45.3136C67.172 45.3809 66.9278 45.3931 66.6905 45.3494C66.618 45.3068 66.5366 45.2815 66.4528 45.2755C65.8132 45.1991 65.1713 45.0107 64.5318 45.0107C64.3504 45.039 64.1731 45.0895 64.004 45.161C63.8401 45.2823 63.6874 45.418 63.5475 45.5664L63.4666 45.657L63.4167 45.7167C63.4167 45.7167 63.3953 45.7405 63.3858 45.7548C63.2763 45.8928 63.1769 46.0387 63.0886 46.1913L63.072 46.2199L63.0435 46.2724C62.9238 46.4928 62.8282 46.7254 62.7582 46.9664C62.5014 47.8321 62.6131 48.5738 62.7938 48.7551C62.8437 48.8052 64.0372 49.1748 64.8694 49.5445C65.1767 49.6754 65.4746 49.8276 65.7609 50H86.8231L86.8326 30Z" fill="#E1000F"/>
<path d="M66.6581 37.2955C66.8079 37.3336 67.0338 37.3336 67.0338 37.4099C66.9601 37.7128 66.506 37.7868 66.2801 38.0896H66.1684C66.0542 38.166 66.0923 38.3544 65.9782 38.3544C65.8645 38.3291 65.7457 38.3425 65.6405 38.3925C65.7078 38.4762 65.7947 38.5418 65.8935 38.5834C65.9922 38.625 66.0998 38.6414 66.2064 38.631C66.2379 38.6427 66.2653 38.6634 66.2851 38.6905C66.305 38.7176 66.3165 38.75 66.3181 38.7837C66.3473 38.7808 66.3744 38.7672 66.3942 38.7455C66.4323 38.7455 66.4703 38.7455 66.4703 38.7837V38.9339C66.3562 39.0842 66.1684 39.0102 66.0162 39.046C66.3004 39.1224 66.5997 39.1224 66.884 39.046C67.1217 38.9721 66.884 38.5929 67.0338 38.4045C66.9601 38.4045 67.0338 38.2924 66.9601 38.2924C67.0338 38.2161 67.1098 38.1016 67.1859 38.0539C67.2298 38.0551 67.2734 38.0456 67.3128 38.026C67.3521 38.0065 67.3861 37.9776 67.4118 37.9418C67.4118 37.8655 67.2596 37.8273 67.2977 37.7534C67.5235 37.6007 67.7113 37.3742 67.6376 37.1476C67.5996 37.0355 67.2977 37.0355 67.1098 36.9592C66.897 36.9157 66.6765 36.9288 66.4703 36.9974C66.2773 37.0292 66.0878 37.0795 65.9044 37.1476C65.6484 37.2357 65.4077 37.3637 65.1912 37.5268C65.4601 37.425 65.7368 37.3453 66.0186 37.2883C66.2312 37.2635 66.4461 37.2659 66.6581 37.2955Z" fill="#9D9D9C"/>
<path d="M54.667 47.6485C54.8809 47.4338 55.0973 47.2049 55.3137 46.9735C55.7009 46.5147 56.1204 46.0843 56.569 45.6857C56.6991 45.5674 56.8364 45.4575 56.9803 45.3565C57.0159 45.3208 57.0159 45.2445 57.054 45.2063C56.8661 45.2826 56.752 45.4448 56.5642 45.5092C56.5262 45.5092 56.4905 45.471 56.5262 45.4329L56.9303 45.13H56.9042C56.8661 45.13 56.8661 45.0942 56.8661 45.056C56.3764 44.9797 55.9984 45.3208 55.6608 45.6213C55.5847 45.6594 55.5086 45.5855 55.4729 45.5855C54.9071 45.7739 54.4934 46.2652 53.9276 46.4918V46.4083C53.7017 46.4846 53.4806 46.6206 53.25 46.673C52.9356 46.7236 52.6164 46.7364 52.299 46.7112C51.8383 46.7641 51.3811 46.8437 50.9296 46.9497H50.8915C50.6429 47.0142 50.4033 47.1095 50.1783 47.2335L50.1521 47.2478C50.1359 47.2702 50.1184 47.2917 50.0998 47.3122C50.0293 47.4074 49.9413 47.4884 49.8407 47.5507C49.6158 47.6923 49.4063 47.8569 49.2154 48.042C49.1984 48.055 49.1774 48.0618 49.156 48.0611C48.9539 48.2566 48.7542 48.4522 48.5473 48.643C48.5119 48.6603 48.4718 48.6653 48.4332 48.6573C48.4403 48.6448 48.4482 48.6329 48.457 48.6215C48.4879 48.5667 48.5188 48.5142 48.5521 48.4617C48.5854 48.4093 48.6258 48.3449 48.6638 48.2852C48.7019 48.2256 48.7684 48.1302 48.8255 48.0467C48.832 48.0401 48.8357 48.0311 48.8357 48.0217C48.8357 48.0123 48.832 48.0033 48.8255 47.9967C48.8112 47.9837 48.7924 47.9768 48.7732 47.9776C48.9658 47.7957 49.1779 47.6358 49.4056 47.5006C49.3794 47.5006 49.3438 47.5006 49.3628 47.4648C49.3818 47.429 49.4056 47.3957 49.427 47.3599L49.4413 47.3265L49.4127 47.2979C49.3496 47.3337 49.29 47.3752 49.2344 47.4219C49.1441 47.503 49.0727 47.6604 48.9372 47.6604H48.8802C48.8657 47.6589 48.8519 47.654 48.8398 47.6461C48.8452 47.6345 48.8515 47.6233 48.8588 47.6127L48.8754 47.5817L48.8897 47.5555L48.9158 47.5078L48.9372 47.472C48.9515 47.4434 48.9681 47.4171 48.9848 47.3885L49.0086 47.348L49.049 47.2812C49.068 47.2478 49.049 47.2239 49.0204 47.212C49.0897 47.1203 49.1771 47.044 49.2772 46.9878C49.4199 46.9139 49.5649 46.8257 49.7099 46.7493L49.7717 46.6945C49.5599 46.7672 49.3585 46.8674 49.1726 46.9926C49.1498 47.0009 49.1283 47.0121 49.1084 47.026C49.091 47.0299 49.0729 47.0289 49.0561 47.023C49.0393 47.0171 49.0244 47.0065 49.0133 46.9926C49.0105 46.9833 49.0105 46.9733 49.0133 46.964C49.0513 46.8877 49.1631 46.8495 49.2511 46.7756C49.2891 46.7756 49.3248 46.7756 49.3248 46.8137C50.5325 45.8598 52.1777 46.0983 53.5828 45.6046L53.9228 45.3661C54.1106 45.2922 54.2604 45.1037 54.4887 44.9893C54.7922 44.7783 55.0172 44.4721 55.1282 44.1188C55.1237 44.0907 55.1104 44.0648 55.0902 44.0448C54.6145 44.5574 54.0508 44.9799 53.4259 45.2922C52.6342 45.7071 51.7617 45.6308 50.9391 45.7453C50.9771 45.669 51.0508 45.669 51.1269 45.669C51.1269 45.5569 51.203 45.5187 51.2791 45.4424H51.3908C51.4288 45.4424 51.4288 45.3661 51.4669 45.3661C51.5406 45.3661 51.6547 45.3303 51.6167 45.3303C51.5049 45.1777 51.2791 45.4424 51.0889 45.3303C51.1649 45.254 51.1269 45.1395 51.203 45.1037H51.3528C51.3608 45.0459 51.3875 44.9923 51.4288 44.9511C51.9947 44.6101 52.5225 44.3477 53.0479 44.0448C52.9362 44.0448 52.8601 44.1569 52.7483 44.083C52.822 44.083 52.7483 43.9685 52.822 43.9685C53.2381 43.8564 53.5757 43.6275 53.9918 43.4772C53.8396 43.4772 53.7279 43.5917 53.5757 43.4772C53.6518 43.4391 53.6898 43.3651 53.8135 43.3651V43.2507C53.8135 43.2125 53.8515 43.2125 53.8895 43.2125C53.8607 43.2085 53.834 43.1951 53.8135 43.1743C53.8515 43.1004 53.9656 43.1362 54.0512 43.0622C54.0155 43.0622 53.9395 43.0622 53.9395 43.0241C54.0691 42.8904 54.2436 42.8096 54.4292 42.7975C54.3912 42.7212 54.2771 42.7975 54.2771 42.7212C54.2771 42.683 54.3151 42.683 54.3531 42.683H54.2771C54.2034 42.6449 54.2414 42.571 54.2414 42.5328C54.4792 42.2681 54.4792 41.927 54.579 41.6265C54.541 41.6265 54.5053 41.6265 54.5053 41.5884C54.1273 42.0033 53.5258 42.1536 52.9599 42.3038H52.7555C52.6519 42.3436 52.5411 42.3608 52.4304 42.3542C52.3197 42.3476 52.2117 42.3175 52.1136 42.2657C51.977 42.1722 51.8497 42.066 51.7332 41.9485C51.4351 41.7603 51.1159 41.6082 50.7822 41.4953C49.846 41.1885 48.8636 41.048 47.8792 41.0804C48.2953 40.8419 48.7518 40.8419 49.1987 40.7012C49.8383 40.5128 50.4422 40.2862 51.1198 40.3244C50.9953 40.3053 50.8686 40.3053 50.7441 40.3244C50.2163 40.2862 49.6885 40.4364 49.1227 40.5628C48.747 40.6368 48.4094 40.7894 48.0314 40.8657C47.8055 40.9397 47.6914 41.1662 47.4275 41.1305V41.016C47.8055 40.5628 48.2573 40.1097 48.854 40.062C49.534 39.9475 50.1735 40.062 50.8511 40.1359C51.3325 40.1885 51.8093 40.277 52.2776 40.4007C52.4678 40.4007 52.5153 40.7036 52.6556 40.7417C52.8934 40.818 53.1073 40.7417 53.3332 40.892C53.3332 40.818 53.2952 40.7417 53.3332 40.6654C53.4854 40.5151 53.6732 40.7036 53.823 40.6272C54.1249 40.4388 53.5591 40.1002 53.4093 39.8354C53.4133 39.8065 53.4267 39.7797 53.4473 39.7591C53.7469 40.0238 53.9751 40.3267 54.3508 40.5151C54.5386 40.5915 54.9903 40.7036 54.9166 40.477C54.7288 40.062 54.3508 39.721 54.0488 39.3441V39.1915C53.9751 39.1915 53.9751 39.1534 53.9371 39.1176V38.9649C53.7849 38.8886 53.823 38.7384 53.7469 38.6263C53.6351 38.4355 53.7112 38.1708 53.6351 37.9442C53.5662 37.7353 53.516 37.5206 53.4854 37.3026C53.3974 36.6563 53.2452 36.0911 53.1596 35.4853C53.0836 34.7699 53.5733 34.1999 53.9133 33.5583C54.1586 33.0729 54.5216 32.6571 54.9689 32.3492C55.1169 31.8992 55.3602 31.4867 55.6822 31.14C56.0084 30.8039 56.4057 30.5455 56.8448 30.384C57.1752 30.2377 57.5133 30.1095 57.8576 30H32V50H50.3067C51.0199 49.4825 51.7332 49.2368 52.7412 48.7408C53.2191 48.507 54.3008 48.011 54.667 47.6485ZM48.8802 44.9344C48.8065 44.9344 48.6424 44.9726 48.6923 44.8963C48.7304 44.7078 48.9943 44.7078 49.1441 44.6315C49.2201 44.5934 49.3319 44.5194 49.408 44.5576C49.484 44.6697 49.5958 44.6315 49.6719 44.7078C49.4389 44.9344 49.1369 44.8223 48.8802 44.9344ZM43.11 44.1021C43.0892 44.0826 43.0758 44.0564 43.072 44.0281C43.5346 43.4262 43.9383 42.7809 44.2773 42.1011C44.7554 41.8182 45.1856 41.4608 45.5517 41.0422C46.1455 40.3596 46.8606 39.7935 47.6605 39.3728C47.9814 39.2713 48.3274 39.2839 48.64 39.4085C48.5283 39.5612 48.3381 39.523 48.1883 39.647C48.1679 39.6495 48.1471 39.6477 48.1274 39.6415C48.1077 39.6353 48.0896 39.625 48.0742 39.6113C48.0886 39.5962 48.0995 39.5781 48.1061 39.5583C48.1127 39.5385 48.1148 39.5175 48.1122 39.4968C47.7366 39.9118 47.2088 40.1026 46.9069 40.5938C46.6881 40.9707 46.5383 41.4477 46.0486 41.5717C45.8964 41.6098 46.0866 41.4572 46.0105 41.4953C44.8384 42.2132 44.0134 43.0837 43.11 44.1021ZM46.2364 41.6098C46.1984 41.6838 46.1579 41.6933 46.1223 41.7601C46.0938 41.8279 46.0401 41.8818 45.9725 41.9103C45.9345 41.9103 45.8964 41.9103 45.8964 41.8722C45.9147 41.795 45.9519 41.7236 46.0046 41.6645C46.0573 41.6053 46.1239 41.5603 46.1984 41.5335C46.2364 41.5335 46.2364 41.5717 46.2364 41.6098ZM47.9862 47.2716C47.9637 47.3146 47.932 47.352 47.8935 47.3813C47.9411 47.3813 47.9743 47.4124 47.9434 47.441C47.8631 47.5261 47.7659 47.5935 47.6581 47.6389C47.6384 47.6417 47.6184 47.6417 47.5987 47.6389C47.5535 47.6842 47.506 47.7272 47.4584 47.7701C47.4109 47.813 47.2064 47.7701 47.2706 47.7248C47.3348 47.6795 47.4537 47.5483 47.5488 47.4624C47.6011 47.4124 47.6581 47.367 47.7057 47.3122C47.7289 47.2802 47.756 47.2514 47.7865 47.2263C47.8174 47.2144 48.0171 47.1977 47.9862 47.2716ZM47.311 46.9592C47.1708 47.0594 47.0305 47.1596 46.8807 47.2454C46.7309 47.3313 46.5502 47.4124 46.3838 47.4839C46.3766 47.4741 46.3662 47.4673 46.3544 47.4646C46.3426 47.462 46.3302 47.4638 46.3196 47.4696C46.1809 47.5478 46.0537 47.645 45.9416 47.7582C45.923 47.7744 45.9055 47.792 45.8893 47.8106L45.837 47.8631C45.8108 47.8893 45.7847 47.9156 45.7538 47.9513C45.741 47.9722 45.724 47.99 45.7038 48.0038C45.6801 48.0181 45.6159 48.0181 45.623 47.9752L45.5564 48.0086C45.5359 48.0183 45.516 48.0294 45.497 48.042C45.4885 48.0395 45.4794 48.0395 45.4708 48.042C45.4624 48.0387 45.4531 48.0387 45.4447 48.042C45.3971 48.0777 45.352 48.1159 45.3068 48.1565C45.2278 48.2294 45.1554 48.3092 45.0905 48.3949L45.0786 48.4093V48.4259L45.0524 48.4617C45.0439 48.4702 45.0332 48.476 45.0215 48.4784L45.0072 48.4546C45.0027 48.4486 44.9988 48.4422 44.9954 48.4355C44.9954 48.4164 44.974 48.3973 44.9644 48.3759C44.9636 48.3695 44.9636 48.3631 44.9644 48.3568C45.0049 48.3139 45.0429 48.2685 45.0833 48.2208L45.1214 48.1731L45.1237 48.1254L45.1451 48.0968C45.1879 48.042 45.226 47.9895 45.264 47.937L45.2807 47.9132C45.2997 47.887 45.3163 47.8583 45.333 47.8321C45.3478 47.8074 45.3613 47.782 45.3734 47.7558V47.7415L45.409 47.6532C45.4081 47.6445 45.4081 47.6357 45.409 47.627C45.4083 47.6135 45.4083 47.6 45.409 47.5865L45.4233 47.5316C45.4252 47.5275 45.4262 47.523 45.4262 47.5185C45.4262 47.514 45.4252 47.5095 45.4233 47.5054C45.4666 47.4323 45.5167 47.3637 45.5731 47.3003L45.5564 47.3122C45.5018 47.3456 45.4661 47.3957 45.4162 47.4314C45.3662 47.4672 45.2997 47.4124 45.3472 47.3766C45.3774 47.3522 45.4059 47.3259 45.4328 47.2979C45.4928 47.2302 45.5571 47.1664 45.6254 47.1071C45.6682 47.0761 45.7062 47.0475 45.7395 47.0188C45.7462 47.0146 45.7519 47.0089 45.7561 47.0021C45.7827 46.9687 45.8113 46.9368 45.8417 46.9067C46.2007 46.5562 46.8094 46.5729 47.2849 46.3511C47.4727 46.2747 47.6986 46.3868 47.8864 46.3511C48.0046 46.3398 48.1234 46.3656 48.2264 46.425C47.9292 46.5562 47.6201 46.766 47.311 46.9592ZM48.0813 44.3358C48.0457 44.2976 48.1954 44.3358 48.2335 44.2595H47.9292C47.8911 44.2595 47.8911 44.2213 47.8911 44.1832C47.7033 44.2213 47.4774 44.2976 47.2896 44.3358C47.0257 44.4097 46.7999 44.5981 46.4979 44.6745C46.0842 44.8271 45.7443 45.1658 45.2925 45.3184C45.2545 45.3184 45.2545 45.2802 45.2545 45.2421C45.2925 45.1276 45.4423 45.0918 45.5184 44.9773C45.5184 44.9392 45.5184 44.901 45.4804 44.901C45.7823 44.486 46.1936 44.2595 46.574 43.9184V43.8063C46.6857 43.6537 46.8736 43.5798 46.9496 43.389C47.0268 43.231 47.1625 43.1095 47.3277 43.0503C47.2896 43.0122 47.2135 43.0122 47.2135 42.9358C47.0638 42.9358 46.9116 43.0122 46.7618 42.8977C46.8285 42.8337 46.9103 42.7877 46.9996 42.7641C46.9651 42.7574 46.9345 42.7378 46.914 42.7093C46.8759 42.633 46.9877 42.5495 47.1018 42.5209C47.254 42.4827 47.4418 42.4827 47.5559 42.3682C47.292 42.3325 46.9901 42.4446 46.7262 42.2943C46.8882 41.8086 47.2282 41.4029 47.6772 41.1591C47.7152 41.1591 47.7913 41.1591 47.7913 41.1972C47.7945 41.2862 47.7658 41.3734 47.7104 41.443C47.655 41.5126 47.5766 41.5599 47.4893 41.5764C47.7986 41.6146 48.102 41.6907 48.3928 41.803C48.3547 41.8769 48.281 41.8412 48.243 41.8412C48.4308 41.9533 48.6567 41.8769 48.8445 42.0296C48.7328 42.1417 48.6068 42.0296 48.5069 42.0296C49.6742 42.3682 50.9177 42.633 51.8972 43.389C51.0697 43.7676 50.196 44.0347 49.2986 44.1832C49.1965 44.1895 49.094 44.1766 48.9967 44.145C48.9967 44.1832 48.9967 44.2595 48.9586 44.2595C48.8285 44.2438 48.6968 44.2706 48.583 44.3358C48.5072 44.382 48.4201 44.406 48.3315 44.4052C48.2428 44.4043 48.1562 44.3787 48.0813 44.331V44.3358Z" fill="#000091"/>
<path d="M32.1636 74V59.2959H35.9268L39.4746 65.3457L43.0225 59.2959H46.7754V74H43.8018V63.541L40.5205 68.9551H38.4185L35.1475 63.541V74H32.1636ZM50.8823 74V59.2959H53.8662V74H50.8823ZM57.9731 74V59.2959H61.7978L68.3705 69.8164V59.2959H71.3544V74H67.5297L60.957 63.4385V74H57.9731ZM75.4613 74V59.2959H78.4452V74H75.4613ZM81.2293 71.9595L83.3929 69.9702C83.8372 70.5444 84.3397 70.9888 84.9002 71.3032C85.4676 71.6177 86.0487 71.7749 86.6434 71.7749C87.2313 71.7749 87.6927 71.6245 88.0277 71.3237C88.3695 71.0229 88.5404 70.606 88.5404 70.0728C88.5404 69.7651 88.4447 69.4814 88.2533 69.2217C88.0619 68.9619 87.8055 68.7466 87.4842 68.5757C87.1698 68.3979 86.8109 68.2134 86.4076 68.022C86.0042 67.8237 85.5941 67.6357 85.1771 67.458C84.7601 67.2803 84.3499 67.0581 83.9466 66.7915C83.5433 66.5249 83.181 66.2344 82.8597 65.9199C82.5453 65.6055 82.2923 65.209 82.1009 64.7305C81.9095 64.252 81.8138 63.7222 81.8138 63.1411C81.8138 61.9517 82.2547 60.9434 83.1366 60.1162C84.0252 59.2891 85.1532 58.8755 86.5204 58.8755C88.5711 58.8755 90.287 59.7026 91.6678 61.3569L89.4837 63.3154C88.5404 62.0918 87.5594 61.48 86.5409 61.48C86.035 61.48 85.6248 61.627 85.3104 61.9209C84.9959 62.2148 84.8387 62.5806 84.8387 63.0181C84.8387 63.2983 84.9139 63.5547 85.0643 63.7871C85.2215 64.0127 85.43 64.2144 85.6898 64.3921C85.9496 64.563 86.2469 64.7305 86.5819 64.8945C86.9168 65.0518 87.2689 65.2158 87.638 65.3867C88.014 65.5508 88.3866 65.7251 88.7557 65.9097C89.1317 66.0942 89.4871 66.3164 89.8221 66.5762C90.1571 66.8291 90.4544 67.1128 90.7142 67.4272C90.974 67.7349 91.179 68.1108 91.3294 68.5552C91.4867 68.9927 91.5653 69.478 91.5653 70.0112C91.5448 71.3442 91.0697 72.4141 90.14 73.2207C89.2171 74.0205 88.0653 74.4204 86.6844 74.4204C85.4813 74.4204 84.4388 74.2153 83.557 73.8052C82.682 73.3882 81.9061 72.7729 81.2293 71.9595ZM93.0677 62.0132V59.2959H105.126V62.0132H100.594V74H97.6102V62.0132H93.0677ZM107.746 74V59.2959H116.319V61.8389H110.73V65.2432H115.478V67.7861H110.73V71.457H116.319V74H107.746ZM108.003 55.2046H111.069L113.437 58.0449H110.71L108.003 55.2046ZM119.78 74V59.2959H124.271C125.891 59.2959 127.166 59.689 128.095 60.4751C129.032 61.2544 129.5 62.3242 129.5 63.6846C129.5 64.5596 129.295 65.3218 128.885 65.9712C128.482 66.6206 127.904 67.1265 127.152 67.4888L131.766 74H128.198L124.291 68.0527H122.763V74H119.78ZM122.763 65.52H124.445C125.074 65.52 125.563 65.3594 125.911 65.0381C126.26 64.71 126.434 64.2451 126.434 63.6436C126.434 63.083 126.26 62.6421 125.911 62.3208C125.563 61.9995 125.074 61.8389 124.445 61.8389H122.763V65.52ZM133.617 74V59.2959H142.19V61.8389H136.601V65.2432H141.349V67.7861H136.601V71.457H142.19V74H133.617ZM32.1636 96V81.2959H37.9365C39.0781 81.2959 40.1377 81.4941 41.1152 81.8906C42.0996 82.2803 42.9268 82.8101 43.5967 83.48C44.2666 84.1499 44.793 84.9326 45.1758 85.8281C45.5586 86.7236 45.75 87.6636 45.75 88.6479C45.75 89.6323 45.5586 90.5723 45.1758 91.4678C44.793 92.3633 44.2666 93.146 43.5967 93.8159C42.9268 94.4858 42.0996 95.019 41.1152 95.4155C40.1377 95.8052 39.0781 96 37.9365 96H32.1636ZM35.1475 93.293H37.9775C39.3311 93.293 40.4521 92.8486 41.3408 91.96C42.2363 91.0645 42.6841 89.9604 42.6841 88.6479C42.6841 87.3286 42.2363 86.228 41.3408 85.3462C40.4521 84.4575 39.3311 84.0132 37.9775 84.0132H35.1475V93.293ZM48.6264 96V81.2959H57.1987V83.8389H51.6103V87.2432H56.3579V89.7861H51.6103V93.457H57.1987V96H48.6264ZM66.1097 96V81.2959H69.0936V93.293H74.682V96H66.1097ZM76.0921 96L81.6497 81.2959H85.5565L91.1244 96H87.9559L86.5511 92.1753H80.6654L79.2606 96H76.0921ZM81.5882 89.6323H85.6283L83.6082 84.1157L81.5882 89.6323ZM97.3284 84.0132V81.2959H109.387V84.0132H104.855V96H101.871V84.0132H97.3284ZM112.007 96V81.2959H116.498C118.118 81.2959 119.393 81.689 120.323 82.4751C121.259 83.2544 121.728 84.3242 121.728 85.6846C121.728 86.5596 121.523 87.3218 121.113 87.9712C120.709 88.6206 120.132 89.1265 119.38 89.4888L123.994 96H120.426L116.519 90.0527H114.991V96H112.007ZM114.991 87.52H116.673C117.301 87.52 117.79 87.3594 118.139 87.0381C118.488 86.71 118.662 86.2451 118.662 85.6436C118.662 85.083 118.488 84.6421 118.139 84.3208C117.79 83.9995 117.301 83.8389 116.673 83.8389H114.991V87.52ZM124.635 96L130.193 81.2959H134.099L139.667 96H136.499L135.094 92.1753H129.208L127.803 96H124.635ZM130.131 89.6323H134.171L132.151 84.1157L130.131 89.6323ZM141.939 96V81.2959H145.763L152.336 91.8164V81.2959H155.32V96H151.495L144.923 85.4385V96H141.939ZM158.104 93.9595L160.268 91.9702C160.712 92.5444 161.214 92.9888 161.775 93.3032C162.342 93.6177 162.923 93.7749 163.518 93.7749C164.106 93.7749 164.567 93.6245 164.902 93.3237C165.244 93.0229 165.415 92.606 165.415 92.0728C165.415 91.7651 165.319 91.4814 165.128 91.2217C164.937 90.9619 164.68 90.7466 164.359 90.5757C164.045 90.3979 163.686 90.2134 163.282 90.022C162.879 89.8237 162.469 89.6357 162.052 89.458C161.635 89.2803 161.225 89.0581 160.821 88.7915C160.418 88.5249 160.056 88.2344 159.734 87.9199C159.42 87.6055 159.167 87.209 158.976 86.7305C158.784 86.252 158.689 85.7222 158.689 85.1411C158.689 83.9517 159.129 82.9434 160.011 82.1162C160.9 81.2891 162.028 80.8755 163.395 80.8755C165.446 80.8755 167.162 81.7026 168.543 83.3569L166.358 85.3154C165.415 84.0918 164.434 83.48 163.416 83.48C162.91 83.48 162.5 83.627 162.185 83.9209C161.871 84.2148 161.713 84.5806 161.713 85.0181C161.713 85.2983 161.789 85.5547 161.939 85.7871C162.096 86.0127 162.305 86.2144 162.565 86.3921C162.824 86.563 163.122 86.7305 163.457 86.8945C163.792 87.0518 164.144 87.2158 164.513 87.3867C164.889 87.5508 165.261 87.7251 165.63 87.9097C166.006 88.0942 166.362 88.3164 166.697 88.5762C167.032 88.8291 167.329 89.1128 167.589 89.4272C167.849 89.7349 168.054 90.1108 168.204 90.5552C168.361 90.9927 168.44 91.478 168.44 92.0112C168.42 93.3442 167.944 94.4141 167.015 95.2207C166.092 96.0205 164.94 96.4204 163.559 96.4204C162.356 96.4204 161.314 96.2153 160.432 95.8052C159.557 95.3882 158.781 94.7729 158.104 93.9595ZM171.563 96V81.2959H174.546V96H171.563ZM177.136 84.0132V81.2959H189.194V84.0132H184.662V96H181.678V84.0132H177.136ZM191.814 96V81.2959H194.798V96H191.814ZM198.218 91.6421C197.835 90.6919 197.644 89.6938 197.644 88.6479C197.644 87.6021 197.835 86.6074 198.218 85.6641C198.601 84.7139 199.127 83.8867 199.797 83.1826C200.474 82.4785 201.301 81.918 202.279 81.501C203.263 81.084 204.323 80.8755 205.457 80.8755C206.585 80.8755 207.638 81.084 208.616 81.501C209.6 81.918 210.427 82.4785 211.097 83.1826C211.767 83.8867 212.293 84.7139 212.676 85.6641C213.059 86.6074 213.25 87.6021 213.25 88.6479C213.25 89.6938 213.059 90.6919 212.676 91.6421C212.293 92.5854 211.767 93.4092 211.097 94.1133C210.427 94.8174 209.6 95.3779 208.616 95.7949C207.638 96.2119 206.585 96.4204 205.457 96.4204C204.323 96.4204 203.263 96.2119 202.279 95.7949C201.301 95.3779 200.474 94.8174 199.797 94.1133C199.127 93.4092 198.601 92.5854 198.218 91.6421ZM202.053 85.1001C201.158 86.0503 200.71 87.2329 200.71 88.6479C200.71 90.063 201.158 91.249 202.053 92.2061C202.949 93.1562 204.083 93.6313 205.457 93.6313C206.36 93.6313 207.17 93.4126 207.888 92.9751C208.612 92.5376 209.176 91.9395 209.58 91.1807C209.983 90.4219 210.185 89.5776 210.185 88.6479C210.185 87.2329 209.737 86.0503 208.841 85.1001C207.953 84.1499 206.825 83.6748 205.457 83.6748C204.083 83.6748 202.949 84.1499 202.053 85.1001ZM216.106 96V81.2959H219.931L226.504 91.8164V81.2959H229.488V96H225.663L219.09 85.4385V96H216.106ZM32.1636 118V103.296H40.7358V105.839H35.1475V109.243H39.895V111.786H35.1475V115.457H40.7358V118H32.1636ZM35.0654 102.045L37.4341 99.2046H40.5L37.7725 102.045H35.0654ZM43.1611 113.642C42.7783 112.692 42.5869 111.694 42.5869 110.648C42.5869 109.602 42.7783 108.607 43.1611 107.664C43.5439 106.714 44.0703 105.887 44.7402 105.183C45.417 104.479 46.2441 103.918 47.2216 103.501C48.206 103.084 49.2656 102.875 50.4004 102.875C51.6992 102.875 52.8818 103.142 53.9482 103.675C55.0214 104.208 55.9033 104.937 56.5937 105.859L54.2456 107.685C53.8081 107.062 53.2612 106.574 52.6049 106.218C51.9487 105.856 51.2138 105.675 50.4004 105.675C49.0263 105.675 47.8916 106.15 46.9961 107.1C46.1005 108.05 45.6528 109.233 45.6528 110.648C45.6528 112.063 46.1005 113.249 46.9961 114.206C47.8916 115.156 49.0263 115.631 50.4004 115.631C51.2138 115.631 51.9487 115.45 52.6049 115.088C53.2612 114.726 53.8081 114.233 54.2456 113.611L56.5937 115.416C55.9033 116.353 55.0249 117.087 53.9585 117.621C52.8921 118.154 51.706 118.42 50.4004 118.42C49.2656 118.42 48.206 118.212 47.2216 117.795C46.2441 117.378 45.417 116.817 44.7402 116.113C44.0703 115.409 43.5439 114.585 43.1611 113.642ZM58.3935 113.642C58.0107 112.692 57.8193 111.694 57.8193 110.648C57.8193 109.602 58.0107 108.607 58.3935 107.664C58.7763 106.714 59.3027 105.887 59.9726 105.183C60.6493 104.479 61.4765 103.918 62.454 103.501C63.4384 103.084 64.498 102.875 65.6327 102.875C66.7607 102.875 67.8134 103.084 68.7909 103.501C69.7753 103.918 70.6025 104.479 71.2724 105.183C71.9423 105.887 72.4687 106.714 72.8515 107.664C73.2343 108.607 73.4257 109.602 73.4257 110.648C73.4257 111.694 73.2343 112.692 72.8515 113.642C72.4687 114.585 71.9423 115.409 71.2724 116.113C70.6025 116.817 69.7753 117.378 68.7909 117.795C67.8134 118.212 66.7607 118.42 65.6327 118.42C64.498 118.42 63.4384 118.212 62.454 117.795C61.4765 117.378 60.6493 116.817 59.9726 116.113C59.3027 115.409 58.7763 114.585 58.3935 113.642ZM62.2284 107.1C61.3329 108.05 60.8852 109.233 60.8852 110.648C60.8852 112.063 61.3329 113.249 62.2284 114.206C63.1239 115.156 64.2587 115.631 65.6327 115.631C66.5351 115.631 67.3451 115.413 68.0629 114.975C68.7875 114.538 69.3515 113.939 69.7548 113.181C70.1581 112.422 70.3598 111.578 70.3598 110.648C70.3598 109.233 69.912 108.05 69.0165 107.1C68.1279 106.15 66.9999 105.675 65.6327 105.675C64.2587 105.675 63.1239 106.15 62.2284 107.1ZM76.2816 118V103.296H79.2655V115.293H84.8539V118H76.2816ZM86.2537 113.642C85.8709 112.692 85.6795 111.694 85.6795 110.648C85.6795 109.602 85.8709 108.607 86.2537 107.664C86.6366 106.714 87.1629 105.887 87.8329 105.183C88.5096 104.479 89.3368 103.918 90.3143 103.501C91.2987 103.084 92.3582 102.875 93.493 102.875C94.6209 102.875 95.6737 103.084 96.6512 103.501C97.6356 103.918 98.4627 104.479 99.1327 105.183C99.8026 105.887 100.329 106.714 100.712 107.664C101.095 108.607 101.286 109.602 101.286 110.648C101.286 111.694 101.095 112.692 100.712 113.642C100.329 114.585 99.8026 115.409 99.1327 116.113C98.4627 116.817 97.6356 117.378 96.6512 117.795C95.6737 118.212 94.6209 118.42 93.493 118.42C92.3582 118.42 91.2987 118.212 90.3143 117.795C89.3368 117.378 88.5096 116.817 87.8329 116.113C87.1629 115.409 86.6366 114.585 86.2537 113.642ZM90.0887 107.1C89.1932 108.05 88.7454 109.233 88.7454 110.648C88.7454 112.063 89.1932 113.249 90.0887 114.206C90.9842 115.156 92.119 115.631 93.493 115.631C94.3954 115.631 95.2054 115.413 95.9232 114.975C96.6478 114.538 97.2118 113.939 97.6151 113.181C98.0184 112.422 98.2201 111.578 98.2201 110.648C98.2201 109.233 97.7723 108.05 96.8768 107.1C95.9881 106.15 94.8602 105.675 93.493 105.675C92.119 105.675 90.9842 106.15 90.0887 107.1ZM103.855 113.642C103.465 112.692 103.27 111.694 103.27 110.648C103.27 109.602 103.462 108.607 103.845 107.664C104.227 106.714 104.754 105.887 105.424 105.183C106.1 104.479 106.928 103.918 107.905 103.501C108.889 103.084 109.949 102.875 111.084 102.875C112.383 102.875 113.565 103.142 114.632 103.675C115.705 104.208 116.587 104.937 117.277 105.859L114.929 107.685C114.492 107.062 113.945 106.574 113.288 106.218C112.632 105.856 111.897 105.675 111.084 105.675C109.71 105.675 108.575 106.15 107.679 107.1C106.784 108.05 106.336 109.233 106.336 110.648C106.336 112.063 106.804 113.249 107.741 114.206C108.678 115.156 109.86 115.631 111.289 115.631C112.677 115.631 113.818 115.204 114.714 114.35V111.868H110.981V109.161H117.698V115.416C117 116.346 116.095 117.081 114.98 117.621C113.866 118.154 112.636 118.42 111.289 118.42C110.127 118.42 109.04 118.212 108.028 117.795C107.023 117.378 106.176 116.817 105.485 116.113C104.795 115.409 104.251 114.585 103.855 113.642ZM121.015 118V103.296H123.999V118H121.015ZM127.419 113.642C127.036 112.692 126.844 111.694 126.844 110.648C126.844 109.602 127.036 108.607 127.419 107.664C127.801 106.714 128.328 105.887 128.998 105.183C129.675 104.479 130.502 103.918 131.479 103.501C132.464 103.084 133.523 102.875 134.658 102.875C135.786 102.875 136.839 103.084 137.816 103.501C138.801 103.918 139.628 104.479 140.298 105.183C140.967 105.887 141.494 106.714 141.877 107.664C142.259 108.607 142.451 109.602 142.451 110.648C142.451 111.872 142.195 113.02 141.682 114.093C141.169 115.167 140.458 116.062 139.549 116.78L140.431 117.621C141.47 118.557 142.499 119.025 143.517 119.025C143.941 119.025 144.293 118.971 144.573 118.861V121.384C144.109 121.562 143.589 121.65 143.015 121.65C141.429 121.65 139.898 121.008 138.421 119.723L136.678 118.164C136.029 118.335 135.355 118.42 134.658 118.42C133.523 118.42 132.464 118.212 131.479 117.795C130.502 117.378 129.675 116.817 128.998 116.113C128.328 115.409 127.801 114.585 127.419 113.642ZM131.254 107.1C130.358 108.05 129.91 109.233 129.91 110.648C129.91 112.063 130.358 113.249 131.254 114.206C132.149 115.156 133.284 115.631 134.658 115.631C135.56 115.631 136.37 115.413 137.088 114.975C137.813 114.538 138.377 113.939 138.78 113.181C139.183 112.422 139.385 111.578 139.385 110.648C139.385 109.233 138.937 108.05 138.042 107.1C137.153 106.15 136.025 105.675 134.658 105.675C133.284 105.675 132.149 106.15 131.254 107.1ZM145.05 112.248V103.296H148.034V112.494C148.034 113.478 148.298 114.247 148.824 114.801C149.35 115.354 150.082 115.631 151.018 115.631C151.934 115.631 152.655 115.354 153.182 114.801C153.708 114.247 153.971 113.478 153.971 112.494V103.296H156.955V112.248C156.955 114.175 156.425 115.686 155.366 116.78C154.306 117.874 152.85 118.42 150.998 118.42C149.159 118.42 147.706 117.874 146.64 116.78C145.58 115.686 145.05 114.175 145.05 112.248ZM160.662 118V103.296H169.235V105.839H163.646V109.243H168.394V111.786H163.646V115.457H169.235V118H160.662Z" fill="black"/>
<path d="M79.77 158.865C80.1696 158.865 80.5136 159.168 80.33 159.935L78.471 160.367C78.794 159.504 79.3308 158.865 79.7607 158.865H79.77ZM80.7831 161.856H80.4183C79.9535 162.406 79.4609 162.838 78.9659 162.838C78.471 162.838 78.2014 162.537 78.2014 161.856C78.2025 161.58 78.2313 161.306 78.2874 161.036L81.2688 160.054C81.8497 158.672 81.1503 158.068 80.3393 158.068C78.9287 158.068 77.3184 160.432 77.3184 162.497C77.3184 163.43 77.7599 163.933 78.4477 163.933C79.2564 163.933 80.0953 163.145 80.7715 161.849L80.7831 161.856ZM80.1813 157.511L82.2727 155.546V155.313H81.141L79.8513 157.504L80.1813 157.511ZM73.7467 158.891H74.7366L73.1844 163.199C73.0449 163.565 73.2401 163.933 73.6166 163.933C74.5089 163.933 75.952 163.047 76.4562 161.835H76.1774C75.7777 162.257 75.0155 162.819 74.3579 162.938L75.8009 158.889H77.2765L77.4601 158.273H76.0287L76.5771 156.721H76.0078L74.9853 158.273L73.77 158.446L73.7467 158.891ZM72.4105 158.686C72.4402 158.622 72.4542 158.552 72.4515 158.482C72.4487 158.412 72.4292 158.343 72.3946 158.282C72.3601 158.221 72.3114 158.169 72.2527 158.131C72.194 158.092 72.127 158.068 72.0573 158.061C71.1952 158.061 70.1727 158.837 69.7638 159.926H70.0728C70.3517 159.527 70.8257 159.085 71.2672 159.008L69.6081 163.313C69.5755 163.377 69.5593 163.448 69.5609 163.519C69.5624 163.591 69.5817 163.661 69.617 163.723C69.6522 163.785 69.7024 163.838 69.7629 163.875C69.8234 163.913 69.8924 163.936 69.9636 163.94C70.7816 163.94 71.739 163.152 72.1479 162.075H71.8691C71.5879 162.474 71.1139 162.917 70.6747 162.991L72.4105 158.686ZM72.7126 156.527C72.8059 156.528 72.8983 156.51 72.9846 156.474C73.0708 156.438 73.1492 156.386 73.2153 156.32C73.2814 156.254 73.3338 156.175 73.3695 156.089C73.4053 156.003 73.4237 155.91 73.4237 155.816C73.4237 155.627 73.3488 155.446 73.2154 155.312C73.0821 155.178 72.9012 155.103 72.7126 155.103C72.524 155.103 72.3432 155.178 72.2098 155.312C72.0765 155.446 72.0016 155.627 72.0016 155.816C72 155.91 72.0173 156.004 72.0525 156.091C72.0877 156.178 72.1401 156.257 72.2064 156.323C72.2728 156.39 72.3519 156.442 72.4388 156.477C72.5258 156.512 72.6189 156.529 72.7126 156.527ZM63.2316 163.134C63.0178 163.621 63.2316 163.933 63.7173 163.933C64.0077 163.933 64.1356 163.856 64.2541 163.544L65.395 160.513C65.9225 159.865 67.0101 159.175 67.44 159.175C67.7514 159.175 67.7095 159.434 67.505 159.823L65.7715 163.199C65.7306 163.274 65.7098 163.359 65.7111 163.444C65.7125 163.53 65.7359 163.614 65.7792 163.688C65.8225 163.762 65.8841 163.823 65.9581 163.866C66.0321 163.909 66.1159 163.932 66.2014 163.933C67.0635 163.933 68.086 163.155 68.495 162.068H68.2138C67.9349 162.467 67.4609 162.91 67.0194 162.984L68.5252 159.931C68.7001 159.608 68.8002 159.251 68.818 158.884C68.8296 158.775 68.8172 158.665 68.7815 158.562C68.7459 158.458 68.688 158.364 68.6118 158.286C68.5357 158.207 68.4433 158.147 68.3411 158.108C68.239 158.07 68.1296 158.055 68.0209 158.064C67.2773 158.064 66.5244 158.905 65.6321 159.94V159.143C65.6321 158.569 65.4485 158.064 64.9349 158.064C64.6119 158.064 64.3005 158.343 64.0054 158.742V158.851C64.5631 158.819 64.8118 159.66 64.4144 160.546L63.2316 163.134ZM63.2107 159.378C63.4152 158.679 63.3083 158.061 62.7692 158.061C62.1348 158.061 61.9744 158.546 61.3284 159.938V159.14C61.3284 158.567 61.1449 158.061 60.6313 158.061C60.0294 158.061 59.4694 158.994 59.0604 159.926H59.3393C59.6297 159.504 59.8993 159.257 60.1154 159.257C60.3734 159.257 60.5128 159.656 60.1154 160.541L58.9535 163.131C58.7397 163.618 58.9535 163.931 59.4392 163.931C59.7297 163.931 59.8575 163.854 59.976 163.541L61.117 160.511C61.44 160.113 61.7304 159.765 62.0976 159.378H63.2107ZM56.6042 158.858C57.0016 158.858 57.3478 159.161 57.1642 159.928L55.3052 160.36C55.6282 159.497 56.1673 158.858 56.5972 158.858H56.6042ZM57.6197 161.849H57.292C56.8273 162.399 56.3346 162.831 55.8397 162.831C55.3447 162.831 55.0775 162.53 55.0775 161.849C55.0774 161.573 55.1062 161.298 55.1634 161.029L58.1425 160.047C58.7235 158.665 58.024 158.061 57.213 158.061C55.8048 158.061 54.1921 160.425 54.1921 162.49C54.1921 163.423 54.6336 163.926 55.3215 163.926C56.1278 163.926 56.969 163.138 57.6452 161.842L57.6197 161.849ZM50.6205 158.898H51.6104L50.0395 163.199C49.9001 163.565 50.093 163.933 50.4694 163.933C51.3641 163.933 52.7932 163.047 53.3114 161.835H53.0302C52.6328 162.257 51.8683 162.819 51.213 162.938L52.6445 158.898H54.1201L54.3013 158.283H52.8768L53.4253 156.73H52.8583L51.8358 158.283L50.6205 158.455V158.898ZM45.1875 162.266C45.1875 160.94 46.6607 159.138 47.4903 159.138C47.6605 159.136 47.83 159.158 47.9946 159.201L47.1348 161.502C46.6398 162.106 45.8753 162.84 45.5081 162.84C45.3036 162.84 45.1758 162.667 45.1758 162.266H45.1875ZM49.7049 157.837L49.2541 157.805L48.7475 158.301H48.6406C46.1867 158.301 44.0674 161.066 44.0674 163.073C44.0568 163.192 44.0722 163.311 44.1127 163.424C44.1531 163.536 44.2176 163.638 44.3016 163.722C44.3856 163.807 44.487 163.872 44.5987 163.912C44.7104 163.953 44.8296 163.969 44.9481 163.959C45.5848 163.959 46.2076 163.052 46.907 162.08L46.8745 162.425C46.7885 163.418 47.0906 163.959 47.6065 163.959C48.2084 163.959 48.7684 163.026 49.1774 162.094H48.8985C48.6197 162.5 48.3501 162.733 48.134 162.733C47.9179 162.733 47.7483 162.322 48.134 161.448L49.7049 157.837ZM44.4764 159.404C44.6809 158.705 44.5717 158.087 44.0349 158.087C43.4005 158.087 43.2378 158.572 42.5918 159.963V159.166C42.5918 158.593 42.4105 158.087 41.8947 158.087C41.2928 158.087 40.7328 159.019 40.3238 159.952H40.605C40.8954 159.53 41.1627 159.283 41.3788 159.283C41.6367 159.283 41.7761 159.681 41.3788 160.567L40.2169 163.157C40.0008 163.644 40.2169 163.956 40.7002 163.956C40.7635 163.967 40.8283 163.966 40.8908 163.951C40.9534 163.936 41.0124 163.909 41.0643 163.872C41.1163 163.834 41.1602 163.786 41.1935 163.731C41.2267 163.676 41.2486 163.615 41.2579 163.551L42.3989 160.52C42.7219 160.122 43.0124 159.775 43.3772 159.388L44.4764 159.404ZM36.2455 163.723L36.3524 163.39C34.921 163.12 34.7258 163.12 35.3091 161.553L35.89 159.945H37.4725C38.1813 159.945 38.1929 160.236 38.0837 161.015H38.4926L39.4407 158.413H39.0318C38.6762 159.029 38.3974 159.481 37.6212 159.481H36.062L36.8892 157.203C37.1495 156.481 37.2982 156.329 38.2672 156.329H38.9644C39.9636 156.329 40.0821 156.6 40.0821 157.614H40.4795L40.8141 155.844H34.8675L34.7514 156.178C35.9016 156.411 36.0085 156.525 35.4717 158.015L34.189 161.553C33.6522 163.033 33.4245 163.152 32.0976 163.39L32 163.723H36.2455Z" fill="black"/>
<path d="M65.3625 145.373C65.7599 145.373 66.1061 145.676 65.9226 146.441L64.0635 146.874C64.3865 146.01 64.9256 145.373 65.3555 145.373H65.3625ZM66.378 148.364H66.0132C65.5484 148.914 65.0535 149.345 64.5585 149.345C64.0635 149.345 63.7963 149.042 63.7963 148.364C63.7972 148.088 63.826 147.813 63.8823 147.543L66.8614 146.56C67.4423 145.18 66.7428 144.574 65.9318 144.574C64.5236 144.574 62.9109 146.937 62.9109 149.003C62.9109 149.935 63.3524 150.436 64.0403 150.436C64.8466 150.436 65.6878 149.648 66.3641 148.355L66.378 148.364ZM65.7715 144.014L67.8629 142.049V141.816H66.7336L65.4415 144.007L65.7715 144.014ZM59.337 145.397H60.3269L58.756 149.704C58.6166 150.07 58.8095 150.436 59.1859 150.436C60.0806 150.436 61.5213 149.553 62.0279 148.338H61.7467C61.3493 148.76 60.5848 149.32 59.9295 149.439L61.3703 145.392H62.8691L63.0527 144.777H61.6212L62.1696 143.222H61.598L60.5755 144.777L59.3602 144.949L59.337 145.397ZM58.0031 145.191C58.0327 145.127 58.0467 145.057 58.0438 144.987C58.0409 144.916 58.0212 144.847 57.9864 144.786C57.9516 144.725 57.9027 144.673 57.8438 144.634C57.7848 144.595 57.7176 144.572 57.6476 144.564C56.7878 144.564 55.7653 145.343 55.3563 146.429H55.6654C55.9466 146.031 56.4183 145.588 56.8598 145.513L55.2006 149.821C55.168 149.884 55.1517 149.955 55.1532 150.027C55.1547 150.098 55.174 150.168 55.2094 150.23C55.2447 150.292 55.2949 150.344 55.3555 150.382C55.416 150.42 55.485 150.442 55.5562 150.446C56.3741 150.446 57.3315 149.658 57.7405 148.581H57.4593C57.1805 148.982 56.7064 149.425 56.2649 149.499L58.0031 145.191ZM58.3052 143.033C58.4458 143.033 58.5833 142.991 58.7002 142.913C58.8172 142.834 58.9083 142.723 58.9621 142.593C59.016 142.462 59.03 142.319 59.0026 142.18C58.9752 142.042 58.9074 141.915 58.808 141.815C58.7086 141.715 58.5819 141.648 58.4439 141.62C58.306 141.592 58.163 141.607 58.0331 141.661C57.9031 141.715 57.7921 141.806 57.714 141.923C57.6358 142.041 57.5941 142.179 57.5941 142.32C57.5938 142.413 57.612 142.506 57.6476 142.593C57.6832 142.68 57.7356 142.758 57.8017 142.825C57.8678 142.891 57.9463 142.943 58.0327 142.979C58.1191 143.015 58.2117 143.033 58.3052 143.033ZM52.6003 149.497L55.6026 141.606L55.505 141.487L53.6228 141.704V141.937L53.9899 142.217C54.3222 142.476 54.2223 142.725 53.9132 143.525L51.5686 149.714C51.5275 149.789 51.5065 149.873 51.5078 149.959C51.5091 150.045 51.5326 150.129 51.576 150.202C51.6193 150.276 51.6811 150.337 51.7551 150.38C51.8292 150.423 51.9131 150.445 51.9985 150.446C52.8583 150.446 53.7738 149.669 54.1828 148.581H53.9016C53.5839 149.026 53.1252 149.35 52.6003 149.499V149.497ZM46.8978 148.765C46.8978 147.436 48.371 145.634 49.2006 145.634C49.3717 145.632 49.5422 145.654 49.7072 145.7L48.8451 147.998C48.3501 148.604 47.5856 149.336 47.2324 149.336C47.0279 149.336 46.8978 149.164 46.8978 148.765ZM51.4268 144.336L50.976 144.303L50.4694 144.784H50.3625C47.9086 144.784 45.7893 147.553 45.7893 149.562C45.779 149.681 45.7948 149.801 45.8355 149.913C45.8763 150.025 45.941 150.126 46.0252 150.211C46.1094 150.295 46.211 150.36 46.3228 150.4C46.4346 150.441 46.5539 150.456 46.6724 150.446C47.3067 150.446 47.9318 149.539 48.6313 148.569L48.5988 148.914C48.5128 149.907 48.8126 150.446 49.3284 150.446C49.9326 150.446 50.4903 149.513 50.9016 148.581H50.6205C50.33 149.003 50.0604 149.25 49.8466 149.25C49.6328 149.25 49.4586 148.84 49.8466 147.965L51.4268 144.336ZM40.4725 151.495C40.4725 150.921 41.0232 150.562 41.8087 150.252C42.186 150.425 42.5741 150.573 42.9706 150.695C43.7885 150.965 44.0999 151.073 44.0999 151.322C44.0999 151.849 43.2076 152.255 41.9899 152.255C40.9698 152.255 40.4725 152.038 40.4725 151.499V151.495ZM42.701 148.003C42.3455 148.003 42.206 147.7 42.206 147.355C42.206 146.394 42.7219 144.979 43.5306 144.979C43.8838 144.979 44.0256 145.282 44.0256 145.627C44.0256 146.588 43.5074 148.003 42.701 148.003ZM45.0248 150.961C45.0248 150.261 44.4113 150.028 43.4098 149.718C42.55 149.46 42.1619 149.385 42.1619 149.103C42.1619 148.87 42.3455 148.606 42.7103 148.404C43.3261 148.358 43.9035 148.086 44.3321 147.64C44.7608 147.194 45.0107 146.605 45.0341 145.986C45.0362 145.782 44.9959 145.58 44.9156 145.392H46.11L46.2913 144.777H44.4113C44.1819 144.635 43.9182 144.56 43.6491 144.56C43.0121 144.567 42.4019 144.818 41.9435 145.262C41.4851 145.706 41.2132 146.308 41.1836 146.947C41.1691 147.284 41.2766 147.615 41.4863 147.879C41.6959 148.143 41.9937 148.322 42.3246 148.383C41.6274 148.695 41.237 149.061 41.237 149.495C41.233 149.608 41.2575 149.721 41.3082 149.823C41.359 149.925 41.4344 150.012 41.5275 150.077C39.9148 150.544 39.2781 151.091 39.2781 151.858C39.2781 152.625 40.2587 152.942 41.4206 152.942C43.3888 152.942 45.0364 151.872 45.0364 150.977L45.0248 150.961ZM37.5143 146.345C38.2254 146.345 38.2347 146.637 38.1278 147.413H38.5368L39.4826 144.811H39.0759C38.7204 145.427 38.4392 145.881 37.6654 145.881H36.1038L36.8892 143.711C37.1495 142.989 37.2982 142.846 38.2672 142.846H38.9644C39.9636 142.846 40.0821 143.117 40.0821 144.122H40.4795L40.8141 142.35H34.8675L34.7514 142.686C35.9016 142.919 36.0085 143.031 35.4717 144.52L34.189 148.061C33.6522 149.539 33.4245 149.658 32.0976 149.896L32 150.231H38.6112L39.7963 148.352H39.3431C38.5902 149.066 37.6445 149.751 36.3222 149.751C34.5678 149.751 34.7304 149.676 35.3114 148.068L35.9342 146.352L37.5143 146.345ZM38.3765 141.823L40.4679 140.376V140.142H39.2037L38.0418 141.816L38.3765 141.823Z" fill="black"/>
<path d="M64.6631 131.881C65.0604 131.881 65.4067 132.182 65.2231 132.949L63.3641 133.38C63.6871 132.518 64.2262 131.881 64.6561 131.881H64.6631ZM65.6785 134.87H65.3114C64.8466 135.422 64.354 135.853 63.859 135.853C63.3641 135.853 63.0968 135.55 63.0968 134.87C63.0969 134.594 63.1258 134.319 63.1828 134.049L66.1619 133.068C66.7428 131.685 66.0434 131.082 65.2324 131.082C63.8242 131.082 62.2115 133.445 62.2115 135.511C62.2115 136.443 62.653 136.947 63.3408 136.947C64.1472 136.947 64.9884 136.159 65.6762 134.863L65.6785 134.87ZM65.0837 130.525L67.1751 128.559V128.326H66.0457L64.7537 130.518L65.0837 130.525ZM58.9187 131.914H59.7041L58.1332 136.219C57.9938 136.588 58.1867 136.954 58.5631 136.954C59.4555 136.954 60.8869 136.068 61.4051 134.856H61.1239C60.7266 135.275 59.962 135.837 59.3067 135.956L60.7475 131.909H62.2231L62.4043 131.294H60.9729L61.5236 129.739H60.952L59.9295 131.294L58.9187 131.466V131.914ZM58.1448 132.399C58.3493 131.699 58.2401 131.082 57.7033 131.082C57.0666 131.082 56.9063 131.567 56.2603 132.96V132.161C56.2603 131.59 56.0767 131.082 55.5631 131.082C54.9613 131.082 54.4012 132.014 53.9923 132.946H54.2711C54.5616 132.527 54.8288 132.277 55.0449 132.277C55.3029 132.277 55.4423 132.676 55.0449 133.562L53.883 136.152C53.6669 136.639 53.883 136.951 54.3664 136.951C54.4889 136.968 54.6133 136.937 54.7137 136.865C54.8141 136.792 54.8828 136.684 54.9055 136.562L56.0465 133.532C56.3672 133.133 56.66 132.788 57.0248 132.399H58.1448ZM51.536 131.881C51.9357 131.881 52.2796 132.182 52.0961 132.949L50.237 133.38C50.56 132.518 51.0968 131.881 51.5267 131.881H51.536ZM52.5492 134.87H52.2029C51.7382 135.422 51.2455 135.853 50.7506 135.853C50.2556 135.853 49.9861 135.55 49.9861 134.87C49.9872 134.594 50.016 134.319 50.072 134.049L53.0534 133.068C53.6344 131.685 52.9349 131.082 52.1239 131.082C50.7134 131.082 49.103 133.445 49.103 135.511C49.103 136.443 49.5445 136.947 50.2324 136.947C51.0411 136.947 51.8799 136.159 52.5562 134.863L52.5492 134.87ZM45.2502 136.072C44.9597 136.072 44.5391 135.802 44.5391 135.564C44.6161 135.281 44.7132 135.004 44.8296 134.734L45.3153 133.45C45.8311 132.835 46.6166 132.175 47.0581 132.175C47.3277 132.175 47.5229 132.347 47.5229 132.748C47.5229 133.914 46.4237 136.072 45.2409 136.072H45.2502ZM48.6313 132.273C48.6313 131.399 48.3083 131.075 47.7018 131.075C46.9489 131.075 46.2401 131.874 45.529 132.844L47.3253 128.107L47.2533 128L45.3687 128.214V128.448L45.7359 128.73C46.0682 128.988 45.9682 129.259 45.6592 130.035L43.7235 135.044C43.5938 135.34 43.4896 135.647 43.4121 135.961C43.4121 136.48 44.1092 136.965 44.7459 136.965C46.2099 136.965 48.6522 134.322 48.6522 132.291L48.6313 132.273ZM42.7986 131.72C42.8282 131.656 42.8422 131.586 42.8393 131.516C42.8364 131.445 42.8167 131.376 42.7819 131.315C42.7471 131.254 42.6982 131.201 42.6393 131.163C42.5803 131.124 42.5131 131.1 42.4431 131.093C41.5809 131.093 40.5585 131.87 40.1518 132.958H40.4307C40.7095 132.56 41.1836 132.117 41.6251 132.04L39.9775 136.338C39.9476 136.401 39.9333 136.47 39.9359 136.54C39.9385 136.61 39.9578 136.678 39.9923 136.738C40.0268 136.799 40.0754 136.85 40.134 136.887C40.1925 136.925 40.2592 136.948 40.3284 136.954C41.1464 136.954 42.1038 136.166 42.5128 135.089H42.2339C41.9551 135.485 41.4903 135.926 41.0442 136.005L42.7986 131.72ZM43.0984 129.559C43.193 129.56 43.2869 129.542 43.3745 129.506C43.462 129.47 43.5415 129.417 43.6082 129.35C43.6749 129.282 43.7275 129.202 43.7629 129.114C43.7982 129.026 43.8157 128.932 43.8141 128.837C43.8123 128.648 43.7368 128.468 43.6038 128.334C43.4709 128.201 43.291 128.125 43.103 128.124C43.0098 128.124 42.9174 128.142 42.8313 128.178C42.7451 128.214 42.6669 128.266 42.601 128.333C42.5352 128.399 42.483 128.478 42.4476 128.564C42.4121 128.651 42.394 128.743 42.3943 128.837C42.3927 128.931 42.41 129.024 42.445 129.111C42.4801 129.198 42.5322 129.277 42.5984 129.343C42.6645 129.409 42.7432 129.462 42.8299 129.497C42.9166 129.532 43.0095 129.549 43.103 129.548L43.0984 129.559ZM38.7668 128.849H34.8466L34.7374 129.184C35.8993 129.417 35.9969 129.529 35.4601 131.019L34.189 134.569C33.6522 136.047 33.4245 136.166 32.0976 136.403L32 136.737H37.9675L39.2572 134.429H38.8064C38.0744 135.238 37.2122 136.252 35.89 136.252C34.8885 136.252 34.7699 136.079 35.3091 134.569L36.5778 131.03C37.1053 129.55 37.3424 129.431 38.6692 129.196L38.7668 128.849Z" fill="black"/>
</svg>

