<?xml version='1.0' encoding='UTF-8'?>
<svg width="140" height="140" version="1.1" viewBox="0 0 45 45" xmlns="http://www.w3.org/2000/svg"><path d="M 19 34 L 19 35 L 20 35 L 20 34 z M 30 34 L 30 35 L 31 35 L 31 34 z M 23 4 L 23 5 L 24 5 L 24 4 z M 34 4 L 34 5 L 35 5 L 35 4 z M 33 36 L 33 37 L 34 37 L 34 36 z M 12 13 L 12 14 L 13 14 L 13 13 z M 23 13 L 23 14 L 24 14 L 24 13 z M 4 9 L 4 10 L 5 10 L 5 9 z M 34 22 L 34 23 L 35 23 L 35 22 z M 15 27 L 15 28 L 16 28 L 16 27 z M 14 31 L 14 32 L 15 32 L 15 31 z M 37 33 L 37 34 L 38 34 L 38 33 z M 8 6 L 8 7 L 9 7 L 9 6 z M 38 7 L 38 8 L 39 8 L 39 7 z M 6 36 L 6 37 L 7 37 L 7 36 z M 26 14 L 26 15 L 27 15 L 27 14 z M 38 16 L 38 17 L 39 17 L 39 16 z M 7 10 L 7 11 L 8 11 L 8 10 z M 26 23 L 26 24 L 27 24 L 27 23 z M 7 19 L 7 20 L 8 20 L 8 19 z M 18 19 L 18 20 L 19 20 L 19 19 z M 26 32 L 26 33 L 27 33 L 27 32 z M 38 34 L 38 35 L 39 35 L 39 34 z M 7 28 L 7 29 L 8 29 L 8 28 z M 7 37 L 7 38 L 8 38 L 8 37 z M 30 11 L 30 12 L 31 12 L 31 11 z M 30 20 L 30 21 L 31 21 L 31 20 z M 11 16 L 11 17 L 12 17 L 12 16 z M 22 16 L 22 17 L 23 17 L 23 16 z M 22 34 L 22 35 L 23 35 L 23 34 z M 23 8 L 23 9 L 24 9 L 24 8 z M 34 8 L 34 9 L 35 9 L 35 8 z M 4 4 L 4 5 L 5 5 L 5 4 z M 10 38 L 10 39 L 11 39 L 11 38 z M 33 40 L 33 41 L 34 41 L 34 40 z M 15 13 L 15 14 L 16 14 L 16 13 z M 37 10 L 37 11 L 38 11 L 38 10 z M 37 19 L 37 20 L 38 20 L 38 19 z M 14 26 L 14 27 L 15 27 L 15 26 z M 37 28 L 37 29 L 38 29 L 38 28 z M 29 24 L 29 25 L 30 25 L 30 24 z M 29 33 L 29 34 L 30 34 L 30 33 z M 6 40 L 6 41 L 7 41 L 7 40 z M 18 5 L 18 6 L 19 6 L 19 5 z M 26 18 L 26 19 L 27 19 L 27 18 z M 38 20 L 38 21 L 39 21 L 39 20 z M 7 14 L 7 15 L 8 15 L 8 14 z M 26 27 L 26 28 L 27 28 L 27 27 z M 7 23 L 7 24 L 8 24 L 8 23 z M 18 23 L 18 24 L 19 24 L 19 23 z M 26 36 L 26 37 L 27 37 L 27 36 z M 7 32 L 7 33 L 8 33 L 8 32 z M 18 32 L 18 33 L 19 33 L 19 32 z M 19 6 L 19 7 L 20 7 L 20 6 z M 30 6 L 30 7 L 31 7 L 31 6 z M 40 38 L 40 39 L 41 39 L 41 38 z M 30 24 L 30 25 L 31 25 L 31 24 z M 11 20 L 11 21 L 12 21 L 12 20 z M 25 22 L 25 23 L 26 23 L 26 22 z M 25 31 L 25 32 L 26 32 L 26 31 z M 14 12 L 14 13 L 15 13 L 15 12 z M 37 14 L 37 15 L 38 15 L 38 14 z M 14 21 L 14 22 L 15 22 L 15 21 z M 6 17 L 6 18 L 7 18 L 7 17 z M 37 32 L 37 33 L 38 33 L 38 32 z M 6 26 L 6 27 L 7 27 L 7 26 z M 29 28 L 29 29 L 30 29 L 30 28 z M 14 39 L 14 40 L 15 40 L 15 39 z M 26 4 L 26 5 L 27 5 L 27 4 z M 38 6 L 38 7 L 39 7 L 39 6 z M 26 22 L 26 23 L 27 23 L 27 22 z M 7 18 L 7 19 L 8 19 L 8 18 z M 18 36 L 18 37 L 19 37 L 19 36 z M 30 10 L 30 11 L 31 11 L 31 10 z M 21 29 L 21 30 L 22 30 L 22 29 z M 32 29 L 32 30 L 33 30 L 33 29 z M 21 38 L 21 39 L 22 39 L 22 38 z M 32 38 L 32 39 L 33 39 L 33 38 z M 11 15 L 11 16 L 12 16 L 12 15 z M 13 34 L 13 35 L 14 35 L 14 34 z M 33 12 L 33 13 L 34 13 L 34 12 z M 33 21 L 33 22 L 34 22 L 34 21 z M 10 28 L 10 29 L 11 29 L 11 28 z M 33 30 L 33 31 L 34 31 L 34 30 z M 10 37 L 10 38 L 11 38 L 11 37 z M 33 39 L 33 40 L 34 40 L 34 39 z M 25 35 L 25 36 L 26 36 L 26 35 z M 29 5 L 29 6 L 30 6 L 30 5 z M 6 12 L 6 13 L 7 13 L 7 12 z M 29 14 L 29 15 L 30 15 L 30 14 z M 14 25 L 14 26 L 15 26 L 15 25 z M 6 30 L 6 31 L 7 31 L 7 30 z M 29 32 L 29 33 L 30 33 L 30 32 z M 38 10 L 38 11 L 39 11 L 39 10 z M 7 4 L 7 5 L 8 5 L 8 4 z M 17 36 L 17 37 L 18 37 L 18 36 z M 28 36 L 28 37 L 29 37 L 29 36 z M 7 22 L 7 23 L 8 23 L 8 22 z M 18 22 L 18 23 L 19 23 L 19 22 z M 40 19 L 40 20 L 41 20 L 41 19 z M 40 28 L 40 29 L 41 29 L 41 28 z M 30 5 L 30 6 L 31 6 L 31 5 z M 21 24 L 21 25 L 22 25 L 22 24 z M 32 33 L 32 34 L 33 34 L 33 33 z M 13 29 L 13 30 L 14 30 L 14 29 z M 9 40 L 9 41 L 10 41 L 10 40 z M 10 14 L 10 15 L 11 15 L 11 14 z M 33 16 L 33 17 L 34 17 L 34 16 z M 25 21 L 25 22 L 26 22 L 26 21 z M 10 32 L 10 33 L 11 33 L 11 32 z M 25 30 L 25 31 L 26 31 L 26 30 z M 25 39 L 25 40 L 26 40 L 26 39 z M 37 4 L 37 5 L 38 5 L 38 4 z M 37 13 L 37 14 L 38 14 L 38 13 z M 6 7 L 6 8 L 7 8 L 7 7 z M 29 9 L 29 10 L 30 10 L 30 9 z M 14 20 L 14 21 L 15 21 L 15 20 z M 14 29 L 14 30 L 15 30 L 15 29 z M 6 25 L 6 26 L 7 26 L 7 25 z M 36 26 L 36 27 L 37 27 L 37 26 z M 6 34 L 6 35 L 7 35 L 7 34 z M 36 35 L 36 36 L 37 36 L 37 35 z M 26 12 L 26 13 L 27 13 L 27 12 z M 7 8 L 7 9 L 8 9 L 8 8 z M 18 8 L 18 9 L 19 9 L 19 8 z M 17 40 L 17 41 L 18 41 L 18 40 z M 40 5 L 40 6 L 41 6 L 41 5 z M 39 40 L 39 41 L 40 41 L 40 40 z M 40 14 L 40 15 L 41 15 L 41 14 z M 32 10 L 32 11 L 33 11 L 33 10 z M 40 23 L 40 24 L 41 24 L 41 23 z M 32 19 L 32 20 L 33 20 L 33 19 z M 32 28 L 32 29 L 33 29 L 33 28 z M 13 24 L 13 25 L 14 25 L 14 24 z M 21 37 L 21 38 L 22 38 L 22 37 z M 32 37 L 32 38 L 33 38 L 33 37 z M 13 33 L 13 34 L 14 34 L 14 33 z M 10 9 L 10 10 L 11 10 L 11 9 z M 10 18 L 10 19 L 11 19 L 11 18 z M 33 20 L 33 21 L 34 21 L 34 20 z M 10 36 L 10 37 L 11 37 L 11 36 z M 25 34 L 25 35 L 26 35 L 26 34 z M 14 6 L 14 7 L 15 7 L 15 6 z M 37 8 L 37 9 L 38 9 L 38 8 z M 29 4 L 29 5 L 30 5 L 30 4 z M 24 38 L 24 39 L 25 39 L 25 38 z M 35 38 L 35 39 L 36 39 L 36 38 z M 29 13 L 29 14 L 30 14 L 30 13 z M 17 17 L 17 18 L 18 18 L 18 17 z M 17 26 L 17 27 L 18 27 L 18 26 z M 39 26 L 39 27 L 40 27 L 40 26 z M 36 39 L 36 40 L 37 40 L 37 39 z M 39 35 L 39 36 L 40 36 L 40 35 z M 20 31 L 20 32 L 21 32 L 21 31 z M 40 9 L 40 10 L 41 10 L 41 9 z M 40 18 L 40 19 L 41 19 L 41 18 z M 40 27 L 40 28 L 41 28 L 41 27 z M 9 21 L 9 22 L 10 22 L 10 21 z M 32 23 L 32 24 L 33 24 L 33 23 z M 40 36 L 40 37 L 41 37 L 41 36 z M 13 19 L 13 20 L 14 20 L 14 19 z M 9 30 L 9 31 L 10 31 L 10 30 z M 21 32 L 21 33 L 22 33 L 22 32 z M 32 32 L 32 33 L 33 33 L 33 32 z M 13 28 L 13 29 L 14 29 L 14 28 z M 10 4 L 10 5 L 11 5 L 11 4 z M 25 11 L 25 12 L 26 12 L 26 11 z M 10 22 L 10 23 L 11 23 L 11 22 z M 24 33 L 24 34 L 25 34 L 25 33 z M 14 10 L 14 11 L 15 11 L 15 10 z M 27 29 L 27 30 L 28 30 L 28 29 z M 6 6 L 6 7 L 7 7 L 7 6 z M 36 7 L 36 8 L 37 8 L 37 7 z M 6 15 L 6 16 L 7 16 L 7 15 z M 36 16 L 36 17 L 37 17 L 37 16 z M 8 34 L 8 35 L 9 35 L 9 34 z M 17 12 L 17 13 L 18 13 L 18 12 z M 28 12 L 28 13 L 29 13 L 29 12 z M 39 12 L 39 13 L 40 13 L 40 12 z M 39 21 L 39 22 L 40 22 L 40 21 z M 36 34 L 36 35 L 37 35 L 37 34 z M 20 17 L 20 18 L 21 18 L 21 17 z M 5 28 L 5 29 L 6 29 L 6 28 z M 39 30 L 39 31 L 40 31 L 40 30 z M 20 26 L 20 27 L 21 27 L 21 26 z M 40 4 L 40 5 L 41 5 L 41 4 z M 20 35 L 20 36 L 21 36 L 21 35 z M 32 9 L 32 10 L 33 10 L 33 9 z M 40 22 L 40 23 L 41 23 L 41 22 z M 13 5 L 13 6 L 14 6 L 14 5 z M 32 27 L 32 28 L 33 28 L 33 27 z M 9 34 L 9 35 L 10 35 L 10 34 z M 10 8 L 10 9 L 11 9 L 11 8 z M 25 6 L 25 7 L 26 7 L 26 6 z M 12 36 L 12 37 L 13 37 L 13 36 z M 24 19 L 24 20 L 25 20 L 25 19 z M 35 19 L 35 20 L 36 20 L 36 19 z M 24 28 L 24 29 L 25 29 L 25 28 z M 16 24 L 16 25 L 17 25 L 17 24 z M 27 24 L 27 25 L 28 25 L 28 24 z M 8 29 L 8 30 L 9 30 L 9 29 z M 17 7 L 17 8 L 18 8 L 18 7 z M 28 7 L 28 8 L 29 8 L 29 7 z M 36 20 L 36 21 L 37 21 L 37 20 z M 8 38 L 8 39 L 9 39 L 9 38 z M 17 16 L 17 17 L 18 17 L 18 16 z M 5 23 L 5 24 L 6 24 L 6 23 z M 17 25 L 17 26 L 18 26 L 18 25 z M 39 25 L 39 26 L 40 26 L 40 25 z M 20 21 L 20 22 L 21 22 L 21 21 z M 17 34 L 17 35 L 18 35 L 18 34 z M 39 34 L 39 35 L 40 35 L 40 34 z M 40 8 L 40 9 L 41 9 L 41 8 z M 20 39 L 20 40 L 21 40 L 21 39 z M 21 4 L 21 5 L 22 5 L 22 4 z M 32 4 L 32 5 L 33 5 L 33 4 z M 21 13 L 21 14 L 22 14 L 22 13 z M 9 20 L 9 21 L 10 21 L 10 20 z M 13 18 L 13 19 L 14 19 L 14 18 z M 31 26 L 31 27 L 32 27 L 32 26 z M 12 31 L 12 32 L 13 32 L 13 31 z M 12 40 L 12 41 L 13 41 L 13 40 z M 4 36 L 4 37 L 5 37 L 5 36 z M 24 14 L 24 15 L 25 15 L 25 14 z M 16 10 L 16 11 L 17 11 L 17 10 z M 24 23 L 24 24 L 25 24 L 25 23 z M 35 23 L 35 24 L 36 24 L 36 23 z M 24 32 L 24 33 L 25 33 L 25 32 z M 35 32 L 35 33 L 36 33 L 36 32 z M 36 6 L 36 7 L 37 7 L 37 6 z M 27 37 L 27 38 L 28 38 L 28 37 z M 36 15 L 36 16 L 37 16 L 37 15 z M 28 11 L 28 12 L 29 12 L 29 11 z M 36 24 L 36 25 L 37 25 L 37 24 z M 5 18 L 5 19 L 6 19 L 6 18 z M 17 20 L 17 21 L 18 21 L 18 20 z M 20 16 L 20 17 L 21 17 L 21 16 z M 5 27 L 5 28 L 6 28 L 6 27 z M 39 29 L 39 30 L 40 30 L 40 29 z M 20 25 L 20 26 L 21 26 L 21 25 z M 20 34 L 20 35 L 21 35 L 21 34 z M 32 8 L 32 9 L 33 9 L 33 8 z M 13 4 L 13 5 L 14 5 L 14 4 z M 19 38 L 19 39 L 20 39 L 20 38 z M 9 15 L 9 16 L 10 16 L 10 15 z M 30 38 L 30 39 L 31 39 L 31 38 z M 13 13 L 13 14 L 14 14 L 14 13 z M 23 17 L 23 18 L 24 18 L 24 17 z M 31 30 L 31 31 L 32 31 L 32 30 z M 34 26 L 34 27 L 35 27 L 35 26 z M 31 39 L 31 40 L 32 40 L 32 39 z M 4 22 L 4 23 L 5 23 L 5 22 z M 23 35 L 23 36 L 24 36 L 24 35 z M 4 31 L 4 32 L 5 32 L 5 31 z M 24 9 L 24 10 L 25 10 L 25 9 z M 4 40 L 4 41 L 5 41 L 5 40 z M 16 5 L 16 6 L 17 6 L 17 5 z M 24 18 L 24 19 L 25 19 L 25 18 z M 35 18 L 35 19 L 36 19 L 36 18 z M 16 14 L 16 15 L 17 15 L 17 14 z M 24 27 L 24 28 L 25 28 L 25 27 z M 8 10 L 8 11 L 9 11 L 9 10 z M 35 27 L 35 28 L 36 28 L 36 27 z M 16 23 L 16 24 L 17 24 L 17 23 z M 27 23 L 27 24 L 28 24 L 28 23 z M 35 36 L 35 37 L 36 37 L 36 36 z M 16 32 L 16 33 L 17 33 L 17 32 z M 27 32 L 27 33 L 28 33 L 28 32 z M 36 10 L 36 11 L 37 11 L 37 10 z M 8 28 L 8 29 L 9 29 L 9 28 z M 5 4 L 5 5 L 6 5 L 6 4 z M 8 37 L 8 38 L 9 38 L 9 37 z M 38 38 L 38 39 L 39 39 L 39 38 z M 5 13 L 5 14 L 6 14 L 6 13 z M 28 15 L 28 16 L 29 16 L 29 15 z M 39 15 L 39 16 L 40 16 L 40 15 z M 19 24 L 19 25 L 20 25 L 20 24 z M 30 33 L 30 34 L 31 34 L 31 33 z M 9 10 L 9 11 L 10 11 L 10 10 z M 31 7 L 31 8 L 32 8 L 32 7 z M 31 16 L 31 17 L 32 17 L 32 16 z M 12 12 L 12 13 L 13 13 L 13 12 z M 4 8 L 4 9 L 5 9 L 5 8 z M 12 21 L 12 22 L 13 22 L 13 21 z M 4 17 L 4 18 L 5 18 L 5 17 z M 15 17 L 15 18 L 16 18 L 16 17 z M 4 26 L 4 27 L 5 27 L 5 26 z M 12 39 L 12 40 L 13 40 L 13 39 z M 24 4 L 24 5 L 25 5 L 25 4 z M 35 4 L 35 5 L 36 5 L 36 4 z M 4 35 L 4 36 L 5 36 L 5 35 z M 15 35 L 15 36 L 16 36 L 16 35 z M 34 39 L 34 40 L 35 40 L 35 39 z M 24 13 L 24 14 L 25 14 L 25 13 z M 35 13 L 35 14 L 36 14 L 36 13 z M 24 22 L 24 23 L 25 23 L 25 22 z M 8 14 L 8 15 L 9 15 L 9 14 z M 27 27 L 27 28 L 28 28 L 28 27 z M 38 24 L 38 25 L 39 25 L 39 24 z M 28 10 L 28 11 L 29 11 L 29 10 z M 39 10 L 39 11 L 40 11 L 40 10 z M 26 40 L 26 41 L 27 41 L 27 40 z M 7 36 L 7 37 L 8 37 L 8 36 z M 19 19 L 19 20 L 20 20 L 20 19 z M 19 28 L 19 29 L 20 29 L 20 28 z M 30 28 L 30 29 L 31 29 L 31 28 z M 11 24 L 11 25 L 12 25 L 12 24 z M 30 37 L 30 38 L 31 38 L 31 37 z M 22 33 L 22 34 L 23 34 L 23 33 z M 12 7 L 12 8 L 13 8 L 13 7 z M 34 7 L 34 8 L 35 8 L 35 7 z M 31 20 L 31 21 L 32 21 L 32 20 z M 12 16 L 12 17 L 13 17 L 13 16 z M 23 16 L 23 17 L 24 17 L 24 16 z M 34 16 L 34 17 L 35 17 L 35 16 z M 4 12 L 4 13 L 5 13 L 5 12 z M 23 25 L 23 26 L 24 26 L 24 25 z M 15 21 L 15 22 L 16 22 L 16 21 z M 12 34 L 12 35 L 13 35 L 13 34 z M 34 34 L 34 35 L 35 35 L 35 34 z M 4 30 L 4 31 L 5 31 L 5 30 z M 24 8 L 24 9 L 25 9 L 25 8 z M 4 39 L 4 40 L 5 40 L 5 39 z M 27 4 L 27 5 L 28 5 L 28 4 z M 24 17 L 24 18 L 25 18 L 25 17 z M 37 36 L 37 37 L 38 37 L 38 36 z M 27 13 L 27 14 L 28 14 L 28 13 z M 8 18 L 8 19 L 9 19 L 9 18 z M 26 26 L 26 27 L 27 27 L 27 26 z M 38 28 L 38 29 L 39 29 L 39 28 z M 26 35 L 26 36 L 27 36 L 27 35 z M 38 37 L 38 38 L 39 38 L 39 37 z M 7 31 L 7 32 L 8 32 L 8 31 z M 18 31 L 18 32 L 19 32 L 19 31 z M 7 40 L 7 41 L 8 41 L 8 40 z M 19 5 L 19 6 L 20 6 L 20 5 z M 18 40 L 18 41 L 19 41 L 19 40 z M 19 14 L 19 15 L 20 15 L 20 14 z M 30 14 L 30 15 L 31 15 L 31 14 z M 22 10 L 22 11 L 23 11 L 23 10 z M 19 23 L 19 24 L 20 24 L 20 23 z M 30 23 L 30 24 L 31 24 L 31 23 z M 11 19 L 11 20 L 12 20 L 12 19 z M 19 32 L 19 33 L 20 33 L 20 32 z M 31 6 L 31 7 L 32 7 L 32 6 z M 22 37 L 22 38 L 23 38 L 23 37 z M 4 7 L 4 8 L 5 8 L 5 7 z M 15 7 L 15 8 L 16 8 L 16 7 z M 23 20 L 23 21 L 24 21 L 24 20 z M 34 20 L 34 21 L 35 21 L 35 20 z M 4 16 L 4 17 L 5 17 L 5 16 z M 23 29 L 23 30 L 24 30 L 24 29 z M 15 25 L 15 26 L 16 26 L 16 25 z M 16 8 L 16 9 L 17 9 L 17 8 z M 27 8 L 27 9 L 28 9 L 28 8 z M 8 4 L 8 5 L 9 5 L 9 4 z M 14 38 L 14 39 L 15 39 L 15 38 z M 29 36 L 29 37 L 30 37 L 30 36 z M 38 14 L 38 15 L 39 15 L 39 14 z M 38 32 L 38 33 L 39 33 L 39 32 z M 18 26 L 18 27 L 19 27 L 19 26 z M 26 39 L 26 40 L 27 40 L 27 39 z M 19 9 L 19 10 L 20 10 L 20 9 z M 30 9 L 30 10 L 31 10 L 31 9 z M 22 5 L 22 6 L 23 6 L 23 5 z M 19 18 L 19 19 L 20 19 L 20 18 z M 30 18 L 30 19 L 31 19 L 31 18 z M 11 14 L 11 15 L 12 15 L 12 14 z M 19 27 L 19 28 L 20 28 L 20 27 z M 30 27 L 30 28 L 31 28 L 31 27 z M 19 36 L 19 37 L 20 37 L 20 36 z M 30 36 L 30 37 L 31 37 L 31 36 z M 11 32 L 11 33 L 12 33 L 12 32 z M 34 6 L 34 7 L 35 7 L 35 6 z M 12 15 L 12 16 L 13 16 L 13 15 z M 15 20 L 15 21 L 16 21 L 16 20 z M 37 26 L 37 27 L 38 27 L 38 26 z M 29 22 L 29 23 L 30 23 L 30 22 z M 26 7 L 26 8 L 27 8 L 27 7 z M 6 38 L 6 39 L 7 39 L 7 38 z M 29 40 L 29 41 L 30 41 L 30 40 z M 26 16 L 26 17 L 27 17 L 27 16 z M 38 18 L 38 19 L 39 19 L 39 18 z M 7 12 L 7 13 L 8 13 L 8 12 z M 18 12 L 18 13 L 19 13 L 19 12 z M 26 25 L 26 26 L 27 26 L 27 25 z M 7 21 L 7 22 L 8 22 L 8 21 z M 7 30 L 7 31 L 8 31 L 8 30 z M 18 30 L 18 31 L 19 31 L 19 30 z M 19 22 L 19 23 L 20 23 L 20 22 z M 30 22 L 30 23 L 31 23 L 31 22 z M 11 18 L 11 19 L 12 19 L 12 18 z M 22 27 L 22 28 L 23 28 L 23 27 z M 31 5 L 31 6 L 32 6 L 32 5 z M 33 24 L 33 25 L 34 25 L 34 24 z M 34 10 L 34 11 L 35 11 L 35 10 z M 25 29 L 25 30 L 26 30 L 26 29 z M 4 6 L 4 7 L 5 7 L 5 6 z M 15 6 L 15 7 L 16 7 L 16 6 z M 10 40 L 10 41 L 11 41 L 11 40 z M 37 12 L 37 13 L 38 13 L 38 12 z M 29 17 L 29 18 L 30 18 L 30 17 z M 6 24 L 6 25 L 7 25 L 7 24 z M 14 37 L 14 38 L 15 38 L 15 37 z M 38 4 L 38 5 L 39 5 L 39 4 z M 38 13 L 38 14 L 39 14 L 39 13 z M 7 7 L 7 8 L 8 8 L 8 7 z M 18 7 L 18 8 L 19 8 L 19 7 z M 26 20 L 26 21 L 27 21 L 27 20 z M 38 22 L 38 23 L 39 23 L 39 22 z M 7 16 L 7 17 L 8 17 L 8 16 z M 18 16 L 18 17 L 19 17 L 19 16 z M 26 29 L 26 30 L 27 30 L 27 29 z M 7 25 L 7 26 L 8 26 L 8 25 z M 7 34 L 7 35 L 8 35 L 8 34 z M 18 34 L 18 35 L 19 35 L 19 34 z M 40 31 L 40 32 L 41 32 L 41 31 z M 30 8 L 30 9 L 31 9 L 31 8 z M 22 4 L 22 5 L 23 5 L 23 4 z M 40 40 L 40 41 L 41 41 L 41 40 z M 19 17 L 19 18 L 20 18 L 20 17 z M 21 36 L 21 37 L 22 37 L 22 36 z M 32 36 L 32 37 L 33 37 L 33 36 z M 11 13 L 11 14 L 12 14 L 12 13 z M 22 13 L 22 14 L 23 14 L 23 13 z M 22 22 L 22 23 L 23 23 L 23 22 z M 33 19 L 33 20 L 34 20 L 34 19 z M 25 15 L 25 16 L 26 16 L 26 15 z M 10 26 L 10 27 L 11 27 L 11 26 z M 25 24 L 25 25 L 26 25 L 26 24 z M 10 35 L 10 36 L 11 36 L 11 35 z M 33 37 L 33 38 L 34 38 L 34 37 z M 25 33 L 25 34 L 26 34 L 26 33 z M 37 7 L 37 8 L 38 8 L 38 7 z M 37 16 L 37 17 L 38 17 L 38 16 z M 6 10 L 6 11 L 7 11 L 7 10 z M 29 12 L 29 13 L 30 13 L 30 12 z M 37 25 L 37 26 L 38 26 L 38 25 z M 6 19 L 6 20 L 7 20 L 7 19 z M 29 21 L 29 22 L 30 22 L 30 21 z M 6 28 L 6 29 L 7 29 L 7 28 z M 26 6 L 26 7 L 27 7 L 27 6 z M 38 8 L 38 9 L 39 9 L 39 8 z M 6 37 L 6 38 L 7 38 L 7 37 z M 26 15 L 26 16 L 27 16 L 27 15 z M 26 24 L 26 25 L 27 25 L 27 24 z M 7 20 L 7 21 L 8 21 L 8 20 z M 18 20 L 18 21 L 19 21 L 19 20 z M 7 29 L 7 30 L 8 30 L 8 29 z M 18 29 L 18 30 L 19 30 L 19 29 z M 40 26 L 40 27 L 41 27 L 41 26 z M 32 31 L 32 32 L 33 32 L 33 31 z M 21 40 L 21 41 L 22 41 L 22 40 z M 10 12 L 10 13 L 11 13 L 11 12 z M 25 19 L 25 20 L 26 20 L 26 19 z M 10 30 L 10 31 L 11 31 L 11 30 z M 33 32 L 33 33 L 34 33 L 34 32 z M 10 39 L 10 40 L 11 40 L 11 39 z M 25 37 L 25 38 L 26 38 L 26 37 z M 14 9 L 14 10 L 15 10 L 15 9 z M 29 7 L 29 8 L 30 8 L 30 7 z M 37 20 L 37 21 L 38 21 L 38 20 z M 6 14 L 6 15 L 7 15 L 7 14 z M 29 16 L 29 17 L 30 17 L 30 16 z M 14 27 L 14 28 L 15 28 L 15 27 z M 14 36 L 14 37 L 15 37 L 15 36 z M 36 33 L 36 34 L 37 34 L 37 33 z M 26 10 L 26 11 L 27 11 L 27 10 z M 17 29 L 17 30 L 18 30 L 18 29 z M 7 6 L 7 7 L 8 7 L 8 6 z M 18 6 L 18 7 L 19 7 L 19 6 z M 28 38 L 28 39 L 29 39 L 29 38 z M 39 38 L 39 39 L 40 39 L 40 38 z M 18 15 L 18 16 L 19 16 L 19 15 z M 21 17 L 21 18 L 22 18 L 22 17 z M 32 17 L 32 18 L 33 18 L 33 17 z M 40 30 L 40 31 L 41 31 L 41 30 z M 9 24 L 9 25 L 10 25 L 10 24 z M 21 26 L 21 27 L 22 27 L 22 26 z M 40 39 L 40 40 L 41 40 L 41 39 z M 32 35 L 32 36 L 33 36 L 33 35 z M 13 31 L 13 32 L 14 32 L 14 31 z M 10 7 L 10 8 L 11 8 L 11 7 z M 13 40 L 13 41 L 14 41 L 14 40 z M 25 5 L 25 6 L 26 6 L 26 5 z M 10 16 L 10 17 L 11 17 L 11 16 z M 33 18 L 33 19 L 34 19 L 34 18 z M 33 27 L 33 28 L 34 28 L 34 27 z M 25 23 L 25 24 L 26 24 L 26 23 z M 10 34 L 10 35 L 11 35 L 11 34 z M 37 6 L 37 7 L 38 7 L 38 6 z M 37 15 L 37 16 L 38 16 L 38 15 z M 14 22 L 14 23 L 15 23 L 15 22 z M 29 20 L 29 21 L 30 21 L 30 20 z M 6 27 L 6 28 L 7 28 L 7 27 z M 36 28 L 36 29 L 37 29 L 37 28 z M 26 5 L 26 6 L 27 6 L 27 5 z M 17 24 L 17 25 L 18 25 L 18 24 z M 28 24 L 28 25 L 29 25 L 29 24 z M 39 24 L 39 25 L 40 25 L 40 24 z M 36 37 L 36 38 L 37 38 L 37 37 z M 18 10 L 18 11 L 19 11 L 19 10 z M 20 29 L 20 30 L 21 30 L 21 29 z M 5 40 L 5 41 L 6 41 L 6 40 z M 40 7 L 40 8 L 41 8 L 41 7 z M 40 16 L 40 17 L 41 17 L 41 16 z M 21 12 L 21 13 L 22 13 L 22 12 z M 9 19 L 9 20 L 10 20 L 10 19 z M 32 21 L 32 22 L 33 22 L 33 21 z M 40 34 L 40 35 L 41 35 L 41 34 z M 13 17 L 13 18 L 14 18 L 14 17 z M 21 30 L 21 31 L 22 31 L 22 30 z M 32 30 L 32 31 L 33 31 L 33 30 z M 32 39 L 32 40 L 33 40 L 33 39 z M 13 35 L 13 36 L 14 36 L 14 35 z M 25 9 L 25 10 L 26 10 L 26 9 z M 10 20 L 10 21 L 11 21 L 11 20 z M 33 22 L 33 23 L 34 23 L 34 22 z M 25 18 L 25 19 L 26 19 L 26 18 z M 25 27 L 25 28 L 26 28 L 26 27 z M 24 31 L 24 32 L 25 32 L 25 31 z M 14 8 L 14 9 L 15 9 L 15 8 z M 6 4 L 6 5 L 7 5 L 7 4 z M 14 17 L 14 18 L 15 18 L 15 17 z M 27 36 L 27 37 L 28 37 L 28 36 z M 6 13 L 6 14 L 7 14 L 7 13 z M 36 14 L 36 15 L 37 15 L 37 14 z M 36 32 L 36 33 L 37 33 L 37 32 z M 20 15 L 20 16 L 21 16 L 21 15 z M 17 28 L 17 29 L 18 29 L 18 28 z M 39 28 L 39 29 L 40 29 L 40 28 z M 20 24 L 20 25 L 21 25 L 21 24 z M 17 37 L 17 38 L 18 38 L 18 37 z M 21 7 L 21 8 L 22 8 L 22 7 z M 40 20 L 40 21 L 41 21 L 41 20 z M 9 14 L 9 15 L 10 15 L 10 14 z M 21 16 L 21 17 L 22 17 L 22 16 z M 32 16 L 32 17 L 33 17 L 33 16 z M 13 12 L 13 13 L 14 13 L 14 12 z M 9 23 L 9 24 L 10 24 L 10 23 z M 13 21 L 13 22 L 14 22 L 14 21 z M 9 32 L 9 33 L 10 33 L 10 32 z M 21 34 L 21 35 L 22 35 L 22 34 z M 32 34 L 32 35 L 33 35 L 33 34 z M 10 6 L 10 7 L 11 7 L 11 6 z M 10 24 L 10 25 L 11 25 L 11 24 z M 24 35 L 24 36 L 25 36 L 25 35 z M 16 31 L 16 32 L 17 32 L 17 31 z M 27 31 L 27 32 L 28 32 L 28 31 z M 6 8 L 6 9 L 7 9 L 7 8 z M 16 40 L 16 41 L 17 41 L 17 40 z M 8 36 L 8 37 L 9 37 L 9 36 z M 5 12 L 5 13 L 6 13 L 6 12 z M 28 14 L 28 15 L 29 15 L 29 14 z M 36 27 L 36 28 L 37 28 L 37 27 z M 20 10 L 20 11 L 21 11 L 21 10 z M 5 21 L 5 22 L 6 22 L 6 21 z M 36 36 L 36 37 L 37 37 L 37 36 z M 20 19 L 20 20 L 21 20 L 21 19 z M 17 32 L 17 33 L 18 33 L 18 32 z M 20 28 L 20 29 L 21 29 L 21 28 z M 40 6 L 40 7 L 41 7 L 41 6 z M 20 37 L 20 38 L 21 38 L 21 37 z M 32 11 L 32 12 L 33 12 L 33 11 z M 40 24 L 40 25 L 41 25 L 41 24 z M 13 7 L 13 8 L 14 8 L 14 7 z M 9 18 L 9 19 L 10 19 L 10 18 z M 21 20 L 21 21 L 22 21 L 22 20 z M 10 10 L 10 11 L 11 11 L 11 10 z M 12 29 L 12 30 L 13 30 L 13 29 z M 12 38 L 12 39 L 13 39 L 13 38 z M 4 34 L 4 35 L 5 35 L 5 34 z M 35 12 L 35 13 L 36 13 L 36 12 z M 24 21 L 24 22 L 25 22 L 25 21 z M 35 21 L 35 22 L 36 22 L 36 21 z M 27 17 L 27 18 L 28 18 L 28 17 z M 24 30 L 24 31 L 25 31 L 25 30 z M 35 30 L 35 31 L 36 31 L 36 30 z M 24 39 L 24 40 L 25 40 L 25 39 z M 36 4 L 36 5 L 37 5 L 37 4 z M 8 22 L 8 23 L 9 23 L 9 22 z M 16 35 L 16 36 L 17 36 L 17 35 z M 35 39 L 35 40 L 36 40 L 36 39 z M 8 31 L 8 32 L 9 32 L 9 31 z M 8 40 L 8 41 L 9 41 L 9 40 z M 20 5 L 20 6 L 21 6 L 21 5 z M 39 18 L 39 19 L 40 19 L 40 18 z M 20 14 L 20 15 L 21 15 L 21 14 z M 5 25 L 5 26 L 6 26 L 6 25 z M 28 27 L 28 28 L 29 28 L 29 27 z M 20 23 L 20 24 L 21 24 L 21 23 z M 5 34 L 5 35 L 6 35 L 6 34 z M 39 36 L 39 37 L 40 37 L 40 36 z M 40 10 L 40 11 L 41 11 L 41 10 z M 9 4 L 9 5 L 10 5 L 10 4 z M 32 6 L 32 7 L 33 7 L 33 6 z M 9 13 L 9 14 L 10 14 L 10 13 z M 31 28 L 31 29 L 32 29 L 32 28 z M 10 5 L 10 6 L 11 6 L 11 5 z M 12 24 L 12 25 L 13 25 L 13 24 z M 23 24 L 23 25 L 24 25 L 24 24 z M 34 24 L 34 25 L 35 25 L 35 24 z M 12 33 L 12 34 L 13 34 L 13 33 z M 23 33 L 23 34 L 24 34 L 24 33 z M 4 29 L 4 30 L 5 30 L 5 29 z M 4 38 L 4 39 L 5 39 L 5 38 z M 16 12 L 16 13 L 17 13 L 17 12 z M 24 25 L 24 26 L 25 26 L 25 25 z M 8 8 L 8 9 L 9 9 L 9 8 z M 35 25 L 35 26 L 36 26 L 36 25 z M 27 21 L 27 22 L 28 22 L 28 21 z M 8 17 L 8 18 L 9 18 L 9 17 z M 16 30 L 16 31 L 17 31 L 17 30 z M 36 8 L 36 9 L 37 9 L 37 8 z M 16 39 L 16 40 L 17 40 L 17 39 z M 17 4 L 17 5 L 18 5 L 18 4 z M 28 4 L 28 5 L 29 5 L 29 4 z M 39 4 L 39 5 L 40 5 L 40 4 z M 38 36 L 38 37 L 39 37 L 39 36 z M 39 13 L 39 14 L 40 14 L 40 13 z M 20 9 L 20 10 L 21 10 L 21 9 z M 17 22 L 17 23 L 18 23 L 18 22 z M 39 22 L 39 23 L 40 23 L 40 22 z M 20 18 L 20 19 L 21 19 L 21 18 z M 5 29 L 5 30 L 6 30 L 6 29 z M 20 27 L 20 28 L 21 28 L 21 27 z M 13 6 L 13 7 L 14 7 L 14 6 z M 19 40 L 19 41 L 20 41 L 20 40 z M 30 40 L 30 41 L 31 41 L 31 40 z M 31 14 L 31 15 L 32 15 L 32 14 z M 12 10 L 12 11 L 13 11 L 13 10 z M 23 19 L 23 20 L 24 20 L 24 19 z M 34 19 L 34 20 L 35 20 L 35 19 z M 31 32 L 31 33 L 32 33 L 32 32 z M 12 28 L 12 29 L 13 29 L 13 28 z M 34 28 L 34 29 L 35 29 L 35 28 z M 12 37 L 12 38 L 13 38 L 13 37 z M 23 37 L 23 38 L 24 38 L 24 37 z M 34 37 L 34 38 L 35 38 L 35 37 z M 15 33 L 15 34 L 16 34 L 16 33 z M 24 11 L 24 12 L 25 12 L 25 11 z M 16 7 L 16 8 L 17 8 L 17 7 z M 24 20 L 24 21 L 25 21 L 25 20 z M 16 16 L 16 17 L 17 17 L 17 16 z M 24 29 L 24 30 L 25 30 L 25 29 z M 8 12 L 8 13 L 9 13 L 9 12 z M 35 29 L 35 30 L 36 30 L 36 29 z M 27 25 L 27 26 L 28 26 L 28 25 z M 8 30 L 8 31 L 9 31 L 9 30 z M 20 4 L 20 5 L 21 5 L 21 4 z M 26 38 L 26 39 L 27 39 L 27 38 z M 39 17 L 39 18 L 40 18 L 40 17 z M 38 40 L 38 41 L 39 41 L 39 40 z M 20 13 L 20 14 L 21 14 L 21 13 z M 19 26 L 19 27 L 20 27 L 20 26 z M 19 35 L 19 36 L 20 36 L 20 35 z M 30 35 L 30 36 L 31 36 L 31 35 z M 31 9 L 31 10 L 32 10 L 32 9 z M 12 5 L 12 6 L 13 6 L 13 5 z M 34 5 L 34 6 L 35 6 L 35 5 z M 31 18 L 31 19 L 32 19 L 32 18 z M 34 14 L 34 15 L 35 15 L 35 14 z M 4 10 L 4 11 L 5 11 L 5 10 z M 34 23 L 34 24 L 35 24 L 35 23 z M 31 36 L 31 37 L 32 37 L 32 36 z M 15 19 L 15 20 L 16 20 L 16 19 z M 34 32 L 34 33 L 35 33 L 35 32 z M 15 28 L 15 29 L 16 29 L 16 28 z M 24 6 L 24 7 L 25 7 L 25 6 z M 4 37 L 4 38 L 5 38 L 5 37 z M 15 37 L 15 38 L 16 38 L 16 37 z M 24 15 L 24 16 L 25 16 L 25 15 z M 35 15 L 35 16 L 36 16 L 36 15 z M 27 11 L 27 12 L 28 12 L 28 11 z M 35 24 L 35 25 L 36 25 L 36 24 z M 8 7 L 8 8 L 9 8 L 9 7 z M 16 20 L 16 21 L 17 21 L 17 20 z M 8 16 L 8 17 L 9 17 L 9 16 z M 38 17 L 38 18 L 39 18 L 39 17 z M 8 25 L 8 26 L 9 26 L 9 25 z M 38 26 L 38 27 L 39 27 L 39 26 z M 5 10 L 5 11 L 6 11 L 6 10 z M 20 8 L 20 9 L 21 9 L 21 8 z M 7 38 L 7 39 L 8 39 L 8 38 z M 18 38 L 18 39 L 19 39 L 19 38 z M 19 12 L 19 13 L 20 13 L 20 12 z M 30 12 L 30 13 L 31 13 L 31 12 z M 11 17 L 11 18 L 12 18 L 12 17 z M 19 30 L 19 31 L 20 31 L 20 30 z M 30 30 L 30 31 L 31 31 L 31 30 z M 11 26 L 11 27 L 12 27 L 12 26 z M 22 26 L 22 27 L 23 27 L 23 26 z M 19 39 L 19 40 L 20 40 L 20 39 z M 30 39 L 30 40 L 31 40 L 31 39 z M 12 9 L 12 10 L 13 10 L 13 9 z M 34 9 L 34 10 L 35 10 L 35 9 z M 31 22 L 31 23 L 32 23 L 32 22 z M 4 5 L 4 6 L 5 6 L 5 5 z M 15 5 L 15 6 L 16 6 L 16 5 z M 12 18 L 12 19 L 13 19 L 13 18 z M 34 18 L 34 19 L 35 19 L 35 18 z M 31 31 L 31 32 L 32 32 L 32 31 z M 4 14 L 4 15 L 5 15 L 5 14 z M 12 27 L 12 28 L 13 28 L 13 27 z M 34 27 L 34 28 L 35 28 L 35 27 z M 4 23 L 4 24 L 5 24 L 5 23 z M 15 23 L 15 24 L 16 24 L 16 23 z M 34 36 L 34 37 L 35 37 L 35 36 z M 4 32 L 4 33 L 5 33 L 5 32 z M 15 32 L 15 33 L 16 33 L 16 32 z M 24 10 L 24 11 L 25 11 L 25 10 z M 35 10 L 35 11 L 36 11 L 36 10 z M 27 15 L 27 16 L 28 16 L 28 15 z M 29 34 L 29 35 L 30 35 L 30 34 z M 26 19 L 26 20 L 27 20 L 27 19 z M 38 21 L 38 22 L 39 22 L 39 21 z M 26 28 L 26 29 L 27 29 L 27 28 z M 18 24 L 18 25 L 19 25 L 19 24 z M 19 7 L 19 8 L 20 8 L 20 7 z M 30 7 L 30 8 L 31 8 L 31 7 z M 30 16 L 30 17 L 31 17 L 31 16 z M 11 12 L 11 13 L 12 13 L 12 12 z" id="qr-path" fill="#000000" fill-opacity="1" fill-rule="nonzero" stroke="none"/></svg>