<svg width="140" height="140" viewBox="0 0 140 140" fill="none" xmlns="http://www.w3.org/2000/svg">
<path d="M56.8101 79.4883V83.2678H60.5896V79.4883H56.8101ZM98.3849 79.4883V83.2678H102.164V79.4883H98.3849ZM56.8101 113.504V117.284H60.5896V113.504H56.8101ZM102.164 15.2363V19.0158H105.944V15.2363H102.164ZM30.3534 0.118164V3.89769H34.1329V0.118164H30.3534ZM113.503 0.118164V3.89769H117.283V0.118164H113.503ZM102.164 49.252V53.0316H105.944V49.252H102.164ZM109.723 121.063V124.843H113.503V121.063H109.723ZM30.3534 34.1339V37.9134H34.1329V34.1339H30.3534ZM0.117188 19.0158V22.7953H3.89672V19.0158H0.117188ZM41.692 19.0158V22.7953H45.4715V19.0158H41.692ZM30.3534 68.1497V71.9292H34.1329V68.1497H30.3534ZM0.117188 53.0316V56.8111H3.89672V53.0316H0.117188ZM124.842 75.7087V79.4883H128.621V75.7087H124.842ZM37.9125 102.165V105.945H41.692V102.165H37.9125ZM94.6054 94.6064V98.3859H98.3849V94.6064H94.6054ZM15.2353 7.67722V11.4567H19.0148V7.67722H15.2353ZM128.621 11.4567V15.2363H132.401V11.4567H128.621ZM37.9125 136.181V139.961H41.692V136.181H37.9125ZM7.67624 121.063V124.843H11.4558V121.063H7.67624ZM94.6054 128.622V132.402H98.3849V128.622H94.6054ZM128.621 45.4725V49.252H132.401V45.4725H128.621ZM11.4558 22.7953V26.5749H15.2353V22.7953H11.4558ZM11.4558 56.8111V60.5906H15.2353V56.8111H11.4558ZM53.0306 56.8111V60.5906H56.8101V56.8111H53.0306ZM83.2668 105.945V109.724H87.0463V105.945H83.2668ZM53.0306 90.8268V94.6064H56.8101V90.8268H53.0306ZM11.4558 124.843V128.622H15.2353V124.843H11.4558ZM56.8101 26.5749V30.3544H60.5896V26.5749H56.8101ZM68.1487 11.4567V15.2363H71.9282V11.4567H68.1487ZM26.5739 45.4725V49.252H30.3534V45.4725H26.5739ZM56.8101 94.6064V98.3859H60.5896V94.6064H56.8101ZM26.5739 79.4883V83.2678H30.3534V79.4883H26.5739ZM68.1487 79.4883V83.2678H71.9282V79.4883H68.1487ZM68.1487 113.504V117.284H71.9282V113.504H68.1487ZM102.164 30.3544V34.1339H105.944V30.3544H102.164ZM109.723 102.165V105.945H113.503V102.165H109.723ZM113.503 15.2363V19.0158H117.283V15.2363H113.503ZM0.117188 0.118164V3.89769H3.89672V0.118164H0.117188ZM22.7944 128.622V132.402H26.5739V128.622H22.7944ZM109.723 136.181V139.961H113.503V136.181H109.723ZM79.4873 121.063V124.843H83.2668V121.063H79.4873ZM124.842 22.7953V26.5749H128.621V22.7953H124.842ZM124.842 56.8111V60.5906H128.621V56.8111H124.842ZM124.842 124.843V128.622H128.621V124.843H124.842ZM7.67624 102.165V105.945H11.4558V102.165H7.67624ZM94.6054 109.724V113.504H98.3849V109.724H94.6054ZM83.2668 19.0158V22.7953H87.0463V19.0158H83.2668ZM7.67624 136.181V139.961H11.4558V136.181H7.67624ZM53.0306 3.89769V7.67722H56.8101V3.89769H53.0306ZM128.621 60.5906V64.3701H132.401V60.5906H128.621ZM11.4558 71.9292V75.7087H15.2353V71.9292H11.4558ZM83.2668 121.063V124.843H87.0463V121.063H83.2668ZM98.3849 7.67722V11.4567H102.164V7.67722H98.3849ZM56.8101 41.693V45.4725H60.5896V41.693H56.8101ZM98.3849 41.693V45.4725H102.164V41.693H98.3849ZM68.1487 26.5749V30.3544H71.9282V26.5749H68.1487ZM26.5739 60.5906V64.3701H30.3534V60.5906H26.5739ZM109.723 83.2678V87.0473H113.503V83.2678H109.723ZM79.4873 68.1497V71.9292H83.2668V68.1497H79.4873ZM79.4873 102.165V105.945H83.2668V102.165H79.4873ZM79.4873 136.181V139.961H83.2668V136.181H79.4873ZM124.842 37.9134V41.693H128.621V37.9134H124.842ZM37.9125 64.3701V68.1497H41.692V64.3701H37.9125ZM83.2668 0.118164V3.89769H87.0463V0.118164H83.2668ZM128.621 7.67722V11.4567H132.401V7.67722H128.621ZM94.6054 124.843V128.622H98.3849V124.843H94.6054ZM128.621 41.693V45.4725H132.401V41.693H128.621ZM11.4558 53.0316V56.8111H15.2353V53.0316H11.4558ZM53.0306 53.0316V56.8111H56.8101V53.0316H53.0306ZM83.2668 102.165V105.945H87.0463V102.165H83.2668ZM53.0306 87.0473V90.8268H56.8101V87.0473H53.0306ZM53.0306 121.063V124.843H56.8101V121.063H53.0306ZM98.3849 22.7953V26.5749H102.164V22.7953H98.3849ZM105.944 94.6064V98.3859H109.723V94.6064H105.944ZM64.3692 128.622V132.402H68.1487V128.622H64.3692ZM26.5739 41.693V45.4725H30.3534V41.693H26.5739ZM34.1329 113.504V117.284H37.9125V113.504H34.1329ZM109.723 64.3701V68.1497H113.503V64.3701H109.723ZM79.4873 49.252V53.0316H83.2668V49.252H79.4873ZM22.7944 90.8268V94.6064H26.5739V90.8268H22.7944ZM79.4873 83.2678V87.0473H83.2668V83.2678H79.4873ZM22.7944 124.843V128.622H26.5739V124.843H22.7944ZM79.4873 117.284V121.063H83.2668V117.284H79.4873ZM94.6054 3.89769V7.67722H98.3849V3.89769H94.6054ZM37.9125 45.4725V49.252H41.692V45.4725H37.9125ZM37.9125 79.4883V83.2678H41.692V79.4883H37.9125ZM83.2668 15.2363V19.0158H87.0463V15.2363H83.2668ZM128.621 22.7953V26.5749H132.401V22.7953H128.621ZM11.4558 0.118164V3.89769H15.2353V0.118164H11.4558ZM53.0306 0.118164V3.89769H56.8101V0.118164H53.0306ZM83.2668 49.252V53.0316H87.0463V49.252H83.2668ZM49.2511 121.063V124.843H53.0306V121.063H49.2511ZM121.062 136.181V139.961H124.842V136.181H121.062ZM53.0306 34.1339V37.9134H56.8101V34.1339H53.0306ZM11.4558 68.1497V71.9292H15.2353V68.1497H11.4558ZM53.0306 68.1497V71.9292H56.8101V68.1497H53.0306ZM136.18 90.8268V94.6064H139.96V90.8268H136.18ZM64.3692 75.7087V79.4883H68.1487V75.7087H64.3692ZM136.18 124.843V128.622H139.96V124.843H136.18ZM64.3692 109.724V113.504H68.1487V109.724H64.3692ZM105.944 109.724V113.504H109.723V109.724H105.944ZM34.1329 94.6064V98.3859H37.9125V94.6064H34.1329ZM19.0148 136.181V139.961H22.7944V136.181H19.0148ZM22.7944 37.9134V41.693H26.5739V37.9134H22.7944ZM109.723 45.4725V49.252H113.503V45.4725H109.723ZM79.4873 30.3544V34.1339H83.2668V30.3544H79.4873ZM79.4873 64.3701V68.1497H83.2668V64.3701H79.4873ZM22.7944 105.945V109.724H26.5739V105.945H22.7944ZM79.4873 98.3859V102.165H83.2668V98.3859H79.4873ZM79.4873 132.402V136.181H83.2668V132.402H79.4873ZM124.842 0.118164V3.89769H128.621V0.118164H124.842ZM7.67624 11.4567V15.2363H11.4558V11.4567H7.67624ZM94.6054 19.0158V22.7953H98.3849V19.0158H94.6054ZM7.67624 45.4725V49.252H11.4558V45.4725H7.67624ZM94.6054 53.0316V56.8111H98.3849V53.0316H94.6054ZM7.67624 79.4883V83.2678H11.4558V79.4883H7.67624ZM121.062 83.2678V87.0473H124.842V83.2678H121.062ZM7.67624 113.504V117.284H11.4558V113.504H7.67624ZM121.062 117.284V121.063H124.842V117.284H121.062ZM83.2668 30.3544V34.1339H87.0463V30.3544H83.2668ZM49.2511 102.165V105.945H53.0306V102.165H49.2511ZM132.401 102.165V105.945H136.18V102.165H132.401ZM11.4558 15.2363V19.0158H15.2353V15.2363H11.4558ZM49.2511 136.181V139.961H53.0306V136.181H49.2511ZM136.18 3.89769V7.67722H139.96V3.89769H136.18ZM90.8259 136.181V139.961H94.6054V136.181H90.8259ZM132.401 136.181V139.961H136.18V136.181H132.401ZM105.944 22.7953V26.5749H109.723V22.7953H105.944ZM64.3692 56.8111V60.5906H68.1487V56.8111H64.3692ZM34.1329 41.693V45.4725H37.9125V41.693H34.1329ZM64.3692 90.8268V94.6064H68.1487V90.8268H64.3692ZM105.944 90.8268V94.6064H109.723V90.8268H105.944ZM34.1329 75.7087V79.4883H37.9125V75.7087H34.1329ZM105.944 124.843V128.622H109.723V124.843H105.944ZM34.1329 109.724V113.504H37.9125V109.724H34.1329ZM22.7944 19.0158V22.7953H26.5739V19.0158H22.7944ZM22.7944 53.0316V56.8111H26.5739V53.0316H22.7944ZM109.723 60.5906V64.3701H113.503V60.5906H109.723ZM22.7944 121.063V124.843H26.5739V121.063H22.7944ZM79.4873 113.504V117.284H83.2668V113.504H79.4873ZM37.9125 7.67722V11.4567H41.692V7.67722H37.9125ZM124.842 15.2363V19.0158H128.621V15.2363H124.842ZM94.6054 0.118164V3.89769H98.3849V0.118164H94.6054ZM75.7077 128.622V132.402H79.4873V128.622H75.7077ZM37.9125 41.693V45.4725H41.692V41.693H37.9125ZM117.283 128.622V132.402H121.062V128.622H117.283ZM121.062 64.3701V68.1497H124.842V64.3701H121.062ZM121.062 132.402V136.181H124.842V132.402H121.062ZM90.8259 117.284V121.063H94.6054V117.284H90.8259ZM132.401 117.284V121.063H136.18V117.284H132.401ZM136.18 19.0158V22.7953H139.96V19.0158H136.18ZM64.3692 3.89769V7.67722H68.1487V3.89769H64.3692ZM105.944 3.89769V7.67722H109.723V3.89769H105.944ZM19.0148 30.3544V34.1339H22.7944V30.3544H19.0148ZM64.3692 37.9134V41.693H68.1487V37.9134H64.3692ZM105.944 37.9134V41.693H109.723V37.9134H105.944ZM64.3692 71.9292V75.7087H68.1487V71.9292H64.3692ZM34.1329 56.8111V60.5906H37.9125V56.8111H34.1329ZM64.3692 105.945V109.724H68.1487V105.945H64.3692ZM105.944 105.945V109.724H109.723V105.945H105.944ZM34.1329 90.8268V94.6064H37.9125V90.8268H34.1329ZM22.7944 0.118164V3.89769H26.5739V0.118164H22.7944ZM34.1329 124.843V128.622H37.9125V124.843H34.1329ZM109.723 41.693V45.4725H113.503V41.693H109.723ZM79.4873 26.5749V30.3544H83.2668V26.5749H79.4873ZM22.7944 68.1497V71.9292H26.5739V68.1497H22.7944ZM79.4873 60.5906V64.3701H83.2668V60.5906H79.4873ZM37.9125 22.7953V26.5749H41.692V22.7953H37.9125ZM45.4715 94.6064V98.3859H49.2511V94.6064H45.4715ZM87.0463 94.6064V98.3859H90.8259V94.6064H87.0463ZM7.67624 7.67722V11.4567H11.4558V7.67722H7.67624ZM121.062 11.4567V15.2363H124.842V11.4567H121.062ZM45.4715 128.622V132.402H49.2511V128.622H45.4715ZM87.0463 128.622V132.402H90.8259V128.622H87.0463ZM7.67624 41.693V45.4725H11.4558V41.693H7.67624ZM15.2353 113.504V117.284H19.0148V113.504H15.2353ZM90.8259 30.3544V34.1339H94.6054V30.3544H90.8259ZM132.401 30.3544V34.1339H136.18V30.3544H132.401ZM121.062 79.4883V83.2678H124.842V79.4883H121.062ZM49.2511 64.3701V68.1497H53.0306V64.3701H49.2511ZM132.401 64.3701V68.1497H136.18V64.3701H132.401ZM121.062 113.504V117.284H124.842V113.504H121.062ZM60.5896 49.252V53.0316H64.3692V49.252H60.5896ZM3.89672 90.8268V94.6064H7.67624V90.8268H3.89672ZM49.2511 98.3859V102.165H53.0306V98.3859H49.2511ZM90.8259 98.3859V102.165H94.6054V98.3859H90.8259ZM60.5896 83.2678V87.0473H64.3692V83.2678H60.5896ZM49.2511 132.402V136.181H53.0306V132.402H49.2511ZM136.18 0.118164V3.89769H139.96V0.118164H136.18ZM90.8259 132.402V136.181H94.6054V132.402H90.8259ZM60.5896 117.284V121.063H64.3692V117.284H60.5896ZM132.401 132.402V136.181H136.18V132.402H132.401ZM105.944 19.0158V22.7953H109.723V19.0158H105.944ZM34.1329 3.89769V7.67722H37.9125V3.89769H34.1329ZM64.3692 53.0316V56.8111H68.1487V53.0316H64.3692ZM105.944 53.0316V56.8111H109.723V53.0316H105.944ZM34.1329 37.9134V41.693H37.9125V37.9134H34.1329ZM19.0148 79.4883V83.2678H22.7944V79.4883H19.0148ZM64.3692 87.0473V90.8268H68.1487V87.0473H64.3692ZM34.1329 71.9292V75.7087H37.9125V71.9292H34.1329ZM19.0148 113.504V117.284H22.7944V113.504H19.0148ZM34.1329 105.945V109.724H37.9125V105.945H34.1329ZM22.7944 15.2363V19.0158H26.5739V15.2363H22.7944ZM79.4873 7.67722V11.4567H83.2668V7.67722H79.4873ZM102.164 136.181V139.961H105.944V136.181H102.164ZM30.3534 121.063V124.843H34.1329V121.063H30.3534ZM117.283 56.8111V60.5906H121.062V56.8111H117.283ZM117.283 90.8268V94.6064H121.062V90.8268H117.283ZM45.4715 75.7087V79.4883H49.2511V75.7087H45.4715ZM75.7077 124.843V128.622H79.4873V124.843H75.7077ZM117.283 124.843V128.622H121.062V124.843H117.283ZM87.0463 109.724V113.504H90.8259V109.724H87.0463ZM15.2353 94.6064V98.3859H19.0148V94.6064H15.2353ZM15.2353 128.622V132.402H19.0148V128.622H15.2353ZM3.89672 37.9134V41.693H7.67624V37.9134H3.89672ZM90.8259 45.4725V49.252H94.6054V45.4725H90.8259ZM121.062 94.6064V98.3859H124.842V94.6064H121.062ZM49.2511 79.4883V83.2678H53.0306V79.4883H49.2511ZM132.401 79.4883V83.2678H136.18V79.4883H132.401ZM60.5896 64.3701V68.1497H64.3692V64.3701H60.5896ZM3.89672 105.945V109.724H7.67624V105.945H3.89672ZM90.8259 113.504V117.284H94.6054V113.504H90.8259ZM136.18 15.2363V19.0158H139.96V15.2363H136.18ZM60.5896 132.402V136.181H64.3692V132.402H60.5896ZM105.944 0.118164V3.89769H109.723V0.118164H105.944ZM19.0148 60.5906V64.3701H22.7944V60.5906H19.0148ZM105.944 68.1497V71.9292H109.723V68.1497H105.944ZM34.1329 53.0316V56.8111H37.9125V53.0316H34.1329ZM102.164 83.2678V87.0473H105.944V83.2678H102.164ZM30.3534 102.165V105.945H34.1329V102.165H30.3534ZM113.503 102.165V105.945H117.283V102.165H113.503ZM30.3534 136.181V139.961H34.1329V136.181H30.3534ZM0.117188 121.063V124.843H3.89672V121.063H0.117188ZM41.692 121.063V124.843H45.4715V121.063H41.692ZM75.7077 37.9134V41.693H79.4873V37.9134H75.7077ZM45.4715 22.7953V26.5749H49.2511V22.7953H45.4715ZM75.7077 71.9292V75.7087H79.4873V71.9292H75.7077ZM117.283 71.9292V75.7087H121.062V71.9292H117.283ZM45.4715 56.8111V60.5906H49.2511V56.8111H45.4715ZM87.0463 56.8111V60.5906H90.8259V56.8111H87.0463ZM117.283 105.945V109.724H121.062V105.945H117.283ZM15.2353 41.693V45.4725H19.0148V41.693H15.2353ZM121.062 7.67722V11.4567H124.842V7.67722H121.062ZM15.2353 75.7087V79.4883H19.0148V75.7087H15.2353ZM45.4715 124.843V128.622H49.2511V124.843H45.4715ZM87.0463 124.843V128.622H90.8259V124.843H87.0463ZM121.062 41.693V45.4725H124.842V41.693H121.062ZM90.8259 26.5749V30.3544H94.6054V26.5749H90.8259ZM90.8259 60.5906V64.3701H94.6054V60.5906H90.8259ZM3.89672 87.0473V90.8268H7.67624V87.0473H3.89672ZM132.401 94.6064V98.3859H136.18V94.6064H132.401ZM34.1329 0.118164V3.89769H37.9125V0.118164H34.1329ZM56.8101 128.622V132.402H60.5896V128.622H56.8101ZM34.1329 34.1339V37.9134H37.9125V34.1339H34.1329ZM102.164 64.3701V68.1497H105.944V64.3701H102.164ZM30.3534 49.252V53.0316H34.1329V49.252H30.3534ZM102.164 98.3859V102.165H105.944V98.3859H102.164ZM30.3534 83.2678V87.0473H34.1329V83.2678H30.3534ZM102.164 132.402V136.181H105.944V132.402H102.164ZM41.692 68.1497V71.9292H45.4715V68.1497H41.692ZM30.3534 117.284V121.063H34.1329V117.284H30.3534ZM41.692 102.165V105.945H45.4715V102.165H41.692ZM75.7077 19.0158V22.7953H79.4873V19.0158H75.7077ZM0.117188 136.181V139.961H3.89672V136.181H0.117188ZM75.7077 53.0316V56.8111H79.4873V53.0316H75.7077ZM117.283 53.0316V56.8111H121.062V53.0316H117.283ZM45.4715 37.9134V41.693H49.2511V37.9134H45.4715ZM87.0463 37.9134V41.693H90.8259V37.9134H87.0463ZM117.283 87.0473V90.8268H121.062V87.0473H117.283ZM15.2353 22.7953V26.5749H19.0148V22.7953H15.2353ZM117.283 121.063V124.843H121.062V121.063H117.283ZM45.4715 105.945V109.724H49.2511V105.945H45.4715ZM87.0463 105.945V109.724H90.8259V105.945H87.0463ZM121.062 22.7953V26.5749H124.842V22.7953H121.062ZM15.2353 90.8268V94.6064H19.0148V90.8268H15.2353ZM3.89672 0.118164V3.89769H7.67624V0.118164H3.89672ZM90.8259 7.67722V11.4567H94.6054V7.67722H90.8259ZM15.2353 124.843V128.622H19.0148V124.843H15.2353ZM90.8259 41.693V45.4725H94.6054V41.693H90.8259ZM60.5896 26.5749V30.3544H64.3692V26.5749H60.5896ZM56.8101 75.7087V79.4883H60.5896V75.7087H56.8101ZM56.8101 109.724V113.504H60.5896V109.724H56.8101ZM19.0148 22.7953V26.5749H22.7944V22.7953H19.0148ZM68.1487 94.6064V98.3859H71.9282V94.6064H68.1487ZM71.9282 30.3544V34.1339H75.7077V30.3544H71.9282ZM102.164 79.4883V83.2678H105.944V79.4883H102.164ZM0.117188 15.2363V19.0158H3.89672V15.2363H0.117188ZM30.3534 64.3701V68.1497H34.1329V64.3701H30.3534ZM0.117188 49.252V53.0316H3.89672V49.252H0.117188ZM30.3534 98.3859V102.165H34.1329V98.3859H30.3534ZM113.503 98.3859V102.165H117.283V98.3859H113.503ZM30.3534 132.402V136.181H34.1329V132.402H30.3534ZM75.7077 0.118164V3.89769H79.4873V0.118164H75.7077ZM117.283 0.118164V3.89769H121.062V0.118164H117.283ZM0.117188 117.284V121.063H3.89672V117.284H0.117188ZM45.4715 19.0158V22.7953H49.2511V19.0158H45.4715ZM75.7077 68.1497V71.9292H79.4873V68.1497H75.7077ZM87.0463 53.0316V56.8111H90.8259V53.0316H87.0463ZM15.2353 37.9134V41.693H19.0148V37.9134H15.2353ZM45.4715 87.0473V90.8268H49.2511V87.0473H45.4715ZM15.2353 71.9292V75.7087H19.0148V71.9292H15.2353ZM128.621 75.7087V79.4883H132.401V75.7087H128.621ZM90.8259 22.7953V26.5749H94.6054V22.7953H90.8259ZM132.401 22.7953V26.5749H136.18V22.7953H132.401ZM60.5896 7.67722V11.4567H64.3692V7.67722H60.5896ZM83.2668 136.181V139.961H87.0463V136.181H83.2668ZM3.89672 49.252V53.0316H7.67624V49.252H3.89672ZM11.4558 121.063V124.843H15.2353V121.063H11.4558ZM98.3849 56.8111V60.5906H102.164V56.8111H98.3849ZM56.8101 90.8268V94.6064H60.5896V90.8268H56.8101ZM26.5739 75.7087V79.4883H30.3534V75.7087H26.5739ZM56.8101 124.843V128.622H60.5896V124.843H56.8101ZM98.3849 124.843V128.622H102.164V124.843H98.3849ZM68.1487 109.724V113.504H71.9282V109.724H68.1487ZM30.3534 11.4567V15.2363H34.1329V11.4567H30.3534ZM113.503 11.4567V15.2363H117.283V11.4567H113.503ZM30.3534 45.4725V49.252H34.1329V45.4725H30.3534ZM113.503 45.4725V49.252H117.283V45.4725H113.503ZM102.164 94.6064V98.3859H105.944V94.6064H102.164ZM0.117188 30.3544V34.1339H3.89672V30.3544H0.117188ZM41.692 30.3544V34.1339H45.4715V30.3544H41.692ZM71.9282 79.4883V83.2678H75.7077V79.4883H71.9282ZM0.117188 64.3701V68.1497H3.89672V64.3701H0.117188ZM113.503 113.504V117.284H117.283V113.504H113.503ZM41.692 98.3859V102.165H45.4715V98.3859H41.692ZM0.117188 132.402V136.181H3.89672V132.402H0.117188ZM45.4715 0.118164V3.89769H49.2511V0.118164H45.4715ZM87.0463 0.118164V3.89769H90.8259V0.118164H87.0463ZM117.283 49.252V53.0316H121.062V49.252H117.283ZM41.692 132.402V136.181H45.4715V132.402H41.692ZM45.4715 34.1339V37.9134H49.2511V34.1339H45.4715ZM87.0463 34.1339V37.9134H90.8259V34.1339H87.0463ZM87.0463 68.1497V71.9292H90.8259V68.1497H87.0463ZM128.621 56.8111V60.5906H132.401V56.8111H128.621ZM128.621 90.8268V94.6064H132.401V90.8268H128.621ZM128.621 124.843V128.622H132.401V124.843H128.621ZM11.4558 102.165V105.945H15.2353V102.165H11.4558ZM11.4558 136.181V139.961H15.2353V136.181H11.4558ZM56.8101 37.9134V41.693H60.5896V37.9134H56.8101ZM98.3849 37.9134V41.693H102.164V37.9134H98.3849ZM68.1487 22.7953V26.5749H71.9282V22.7953H68.1487ZM56.8101 71.9292V75.7087H60.5896V71.9292H56.8101ZM98.3849 71.9292V75.7087H102.164V71.9292H98.3849ZM68.1487 56.8111V60.5906H71.9282V56.8111H68.1487ZM102.164 75.7087V79.4883H105.944V75.7087H102.164ZM0.117188 11.4567V15.2363H3.89672V11.4567H0.117188ZM41.692 11.4567V15.2363H45.4715V11.4567H41.692ZM30.3534 60.5906V64.3701H34.1329V60.5906H30.3534ZM71.9282 60.5906V64.3701H75.7077V60.5906H71.9282ZM113.503 60.5906V64.3701H117.283V60.5906H113.503ZM0.117188 45.4725V49.252H3.89672V45.4725H0.117188ZM87.0463 15.2363V19.0158H90.8259V15.2363H87.0463ZM15.2353 0.118164V3.89769H19.0148V0.118164H15.2353ZM37.9125 128.622V132.402H41.692V128.622H37.9125ZM124.842 136.181V139.961H128.621V136.181H124.842ZM128.621 71.9292V75.7087H132.401V71.9292H128.621ZM11.4558 49.252V53.0316H15.2353V49.252H11.4558ZM53.0306 49.252V53.0316H56.8101V49.252H53.0306ZM128.621 105.945V109.724H132.401V105.945H128.621ZM11.4558 83.2678V87.0473H15.2353V83.2678H11.4558ZM53.0306 83.2678V87.0473H56.8101V83.2678H53.0306ZM53.0306 117.284V121.063H56.8101V117.284H53.0306ZM56.8101 53.0316V56.8111H60.5896V53.0316H56.8101ZM98.3849 53.0316V56.8111H102.164V53.0316H98.3849ZM68.1487 37.9134V41.693H71.9282V37.9134H68.1487ZM98.3849 87.0473V90.8268H102.164V87.0473H98.3849ZM26.5739 71.9292V75.7087H30.3534V71.9292H26.5739ZM68.1487 71.9292V75.7087H71.9282V71.9292H68.1487ZM56.8101 121.063V124.843H60.5896V121.063H56.8101ZM26.5739 105.945V109.724H30.3534V105.945H26.5739ZM30.3534 7.67722V11.4567H34.1329V7.67722H30.3534ZM113.503 7.67722V11.4567H117.283V7.67722H113.503ZM109.723 128.622V132.402H113.503V128.622H109.723ZM71.9282 41.693V45.4725H75.7077V41.693H71.9282ZM113.503 41.693V45.4725H117.283V41.693H113.503ZM41.692 60.5906V64.3701H45.4715V60.5906H41.692ZM124.842 49.252V53.0316H128.621V49.252H124.842ZM37.9125 75.7087V79.4883H41.692V75.7087H37.9125ZM124.842 83.2678V87.0473H128.621V83.2678H124.842ZM94.6054 68.1497V71.9292H98.3849V68.1497H94.6054ZM37.9125 109.724V113.504H41.692V109.724H37.9125ZM7.67624 94.6064V98.3859H11.4558V94.6064H7.67624ZM7.67624 128.622V132.402H11.4558V128.622H7.67624ZM83.2668 45.4725V49.252H87.0463V45.4725H83.2668ZM128.621 87.0473V90.8268H132.401V87.0473H128.621ZM53.0306 64.3701V68.1497H56.8101V64.3701H53.0306ZM83.2668 113.504V117.284H87.0463V113.504H83.2668ZM53.0306 98.3859V102.165H56.8101V98.3859H53.0306ZM56.8101 0.118164V3.89769H60.5896V0.118164H56.8101ZM56.8101 34.1339V37.9134H60.5896V34.1339H56.8101ZM98.3849 34.1339V37.9134H102.164V34.1339H98.3849ZM56.8101 68.1497V71.9292H60.5896V68.1497H56.8101ZM26.5739 53.0316V56.8111H30.3534V53.0316H26.5739ZM68.1487 53.0316V56.8111H71.9282V53.0316H68.1487ZM68.1487 87.0473V90.8268H71.9282V87.0473H68.1487ZM109.723 75.7087V79.4883H113.503V75.7087H109.723ZM113.503 22.7953V26.5749H117.283V22.7953H113.503ZM0.117188 7.67722V11.4567H3.89672V7.67722H0.117188ZM41.692 7.67722V11.4567H45.4715V7.67722H41.692ZM22.7944 136.181V139.961H26.5739V136.181H22.7944ZM79.4873 128.622V132.402H83.2668V128.622H79.4873ZM124.842 30.3544V34.1339H128.621V30.3544H124.842ZM94.6054 15.2363V19.0158H98.3849V15.2363H94.6054ZM124.842 64.3701V68.1497H128.621V64.3701H124.842ZM37.9125 90.8268V94.6064H41.692V90.8268H37.9125ZM7.67624 75.7087V79.4883H11.4558V75.7087H7.67624ZM94.6054 83.2678V87.0473H98.3849V83.2678H94.6054ZM37.9125 124.843V128.622H41.692V124.843H37.9125ZM128.621 0.118164V3.89769H132.401V0.118164H128.621ZM83.2668 26.5749V30.3544H87.0463V26.5749H83.2668ZM128.621 34.1339V37.9134H132.401V34.1339H128.621ZM11.4558 11.4567V15.2363H15.2353V11.4567H11.4558ZM53.0306 11.4567V15.2363H56.8101V11.4567H53.0306ZM83.2668 60.5906V64.3701H87.0463V60.5906H83.2668ZM11.4558 79.4883V83.2678H15.2353V79.4883H11.4558ZM53.0306 79.4883V83.2678H56.8101V79.4883H53.0306ZM11.4558 113.504V117.284H15.2353V113.504H11.4558ZM56.8101 15.2363V19.0158H60.5896V15.2363H56.8101ZM68.1487 0.118164V3.89769H71.9282V0.118164H68.1487ZM136.18 136.181V139.961H139.96V136.181H136.18ZM56.8101 49.252V53.0316H60.5896V49.252H56.8101ZM64.3692 121.063V124.843H68.1487V121.063H64.3692ZM105.944 121.063V124.843H109.723V121.063H105.944ZM26.5739 34.1339V37.9134H30.3534V34.1339H26.5739ZM68.1487 68.1497V71.9292H71.9282V68.1497H68.1487ZM79.4873 41.693V45.4725H83.2668V41.693H79.4873ZM22.7944 83.2678V87.0473H26.5739V83.2678H22.7944ZM79.4873 75.7087V79.4883H83.2668V75.7087H79.4873ZM22.7944 117.284V121.063H26.5739V117.284H22.7944ZM109.723 124.843V128.622H113.503V124.843H109.723ZM79.4873 109.724V113.504H83.2668V109.724H79.4873ZM37.9125 3.89769V7.67722H41.692V3.89769H37.9125ZM124.842 11.4567V15.2363H128.621V11.4567H124.842ZM7.67624 22.7953V26.5749H11.4558V22.7953H7.67624ZM37.9125 71.9292V75.7087H41.692V71.9292H37.9125ZM7.67624 56.8111V60.5906H11.4558V56.8111H7.67624ZM94.6054 64.3701V68.1497H98.3849V64.3701H94.6054ZM128.621 15.2363V19.0158H132.401V15.2363H128.621ZM7.67624 124.843V128.622H11.4558V124.843H7.67624ZM53.0306 26.5749V30.3544H56.8101V26.5749H53.0306ZM83.2668 75.7087V79.4883H87.0463V75.7087H83.2668ZM11.4558 94.6064V98.3859H15.2353V94.6064H11.4558ZM53.0306 94.6064V98.3859H56.8101V94.6064H53.0306ZM64.3692 102.165V105.945H68.1487V102.165H64.3692ZM64.3692 136.181V139.961H68.1487V136.181H64.3692ZM34.1329 121.063V124.843H37.9125V121.063H34.1329ZM22.7944 30.3544V34.1339H26.5739V30.3544H22.7944ZM109.723 37.9134V41.693H113.503V37.9134H109.723ZM109.723 71.9292V75.7087H113.503V71.9292H109.723ZM79.4873 56.8111V60.5906H83.2668V56.8111H79.4873ZM22.7944 98.3859V102.165H26.5739V98.3859H22.7944ZM109.723 105.945V109.724H113.503V105.945H109.723ZM79.4873 90.8268V94.6064H83.2668V90.8268H79.4873ZM22.7944 132.402V136.181H26.5739V132.402H22.7944ZM94.6054 11.4567V15.2363H98.3849V11.4567H94.6054ZM37.9125 53.0316V56.8111H41.692V53.0316H37.9125ZM7.67624 37.9134V41.693H11.4558V37.9134H7.67624ZM94.6054 45.4725V49.252H98.3849V45.4725H94.6054ZM37.9125 87.0473V90.8268H41.692V87.0473H37.9125ZM7.67624 71.9292V75.7087H11.4558V71.9292H7.67624ZM37.9125 121.063V124.843H41.692V121.063H37.9125ZM7.67624 105.945V109.724H11.4558V105.945H7.67624ZM121.062 109.724V113.504H124.842V109.724H121.062ZM83.2668 22.7953V26.5749H87.0463V22.7953H83.2668ZM11.4558 7.67722V11.4567H15.2353V7.67722H11.4558ZM49.2511 128.622V132.402H53.0306V128.622H49.2511ZM90.8259 128.622V132.402H94.6054V128.622H90.8259ZM11.4558 41.693V45.4725H15.2353V41.693H11.4558ZM53.0306 41.693V45.4725H56.8101V41.693H53.0306ZM136.18 30.3544V34.1339H139.96V30.3544H136.18ZM64.3692 49.252V53.0316H68.1487V49.252H64.3692ZM105.944 49.252V53.0316H109.723V49.252H105.944ZM19.0148 75.7087V79.4883H22.7944V75.7087H19.0148ZM105.944 83.2678V87.0473H109.723V83.2678H105.944ZM64.3692 117.284V121.063H68.1487V117.284H64.3692ZM105.944 117.284V121.063H109.723V117.284H105.944ZM22.7944 11.4567V15.2363H26.5739V11.4567H22.7944ZM34.1329 136.181V139.961H37.9125V136.181H34.1329ZM22.7944 45.4725V49.252H26.5739V45.4725H22.7944ZM79.4873 37.9134V41.693H83.2668V37.9134H79.4873ZM79.4873 71.9292V75.7087H83.2668V71.9292H79.4873ZM22.7944 113.504V117.284H26.5739V113.504H22.7944ZM79.4873 105.945V109.724H83.2668V105.945H79.4873ZM37.9125 0.118164V3.89769H41.692V0.118164H37.9125ZM124.842 7.67722V11.4567H128.621V7.67722H124.842ZM37.9125 34.1339V37.9134H41.692V34.1339H37.9125ZM124.842 41.693V45.4725H128.621V41.693H124.842ZM37.9125 68.1497V71.9292H41.692V68.1497H37.9125ZM7.67624 53.0316V56.8111H11.4558V53.0316H7.67624ZM7.67624 87.0473V90.8268H11.4558V87.0473H7.67624ZM83.2668 3.89769V7.67722H87.0463V3.89769H83.2668ZM132.401 75.7087V79.4883H136.18V75.7087H132.401ZM49.2511 109.724V113.504H53.0306V109.724H49.2511ZM53.0306 22.7953V26.5749H56.8101V22.7953H53.0306ZM60.5896 94.6064V98.3859H64.3692V94.6064H60.5896ZM3.89672 136.181V139.961H7.67624V136.181H3.89672ZM136.18 11.4567V15.2363H139.96V11.4567H136.18ZM136.18 45.4725V49.252H139.96V45.4725H136.18ZM64.3692 30.3544V34.1339H68.1487V30.3544H64.3692ZM64.3692 64.3701V68.1497H68.1487V64.3701H64.3692ZM105.944 64.3701V68.1497H109.723V64.3701H105.944ZM34.1329 49.252V53.0316H37.9125V49.252H34.1329ZM64.3692 98.3859V102.165H68.1487V98.3859H64.3692ZM64.3692 132.402V136.181H68.1487V132.402H64.3692ZM34.1329 117.284V121.063H37.9125V117.284H34.1329ZM22.7944 60.5906V64.3701H26.5739V60.5906H22.7944ZM79.4873 87.0473V90.8268H83.2668V87.0473H79.4873ZM7.67624 0.118164V3.89769H11.4558V0.118164H7.67624ZM75.7077 136.181V139.961H79.4873V136.181H75.7077ZM37.9125 49.252V53.0316H41.692V49.252H37.9125ZM87.0463 121.063V124.843H90.8259V121.063H87.0463ZM117.283 136.181V139.961H121.062V136.181H117.283ZM121.062 37.9134V41.693H124.842V37.9134H121.062ZM7.67624 68.1497V71.9292H11.4558V68.1497H7.67624ZM132.401 56.8111V60.5906H136.18V56.8111H132.401ZM121.062 105.945V109.724H124.842V105.945H121.062ZM3.89672 83.2678V87.0473H7.67624V83.2678H3.89672ZM49.2511 90.8268V94.6064H53.0306V90.8268H49.2511ZM90.8259 90.8268V94.6064H94.6054V90.8268H90.8259ZM60.5896 75.7087V79.4883H64.3692V75.7087H60.5896ZM132.401 90.8268V94.6064H136.18V90.8268H132.401ZM90.8259 124.843V128.622H94.6054V124.843H90.8259ZM132.401 124.843V128.622H136.18V124.843H132.401ZM60.5896 109.724V113.504H64.3692V109.724H60.5896ZM136.18 60.5906V64.3701H139.96V60.5906H136.18ZM19.0148 37.9134V41.693H22.7944V37.9134H19.0148ZM64.3692 45.4725V49.252H68.1487V45.4725H64.3692ZM105.944 45.4725V49.252H109.723V45.4725H105.944ZM64.3692 113.504V117.284H68.1487V113.504H64.3692ZM105.944 113.504V117.284H109.723V113.504H105.944ZM22.7944 7.67722V11.4567H26.5739V7.67722H22.7944ZM34.1329 132.402V136.181H37.9125V132.402H34.1329ZM79.4873 34.1339V37.9134H83.2668V34.1339H79.4873ZM22.7944 75.7087V79.4883H26.5739V75.7087H22.7944ZM45.4715 68.1497V71.9292H49.2511V68.1497H45.4715ZM75.7077 117.284V121.063H79.4873V117.284H75.7077ZM87.0463 102.165V105.945H90.8259V102.165H87.0463ZM7.67624 15.2363V19.0158H11.4558V15.2363H7.67624ZM45.4715 136.181V139.961H49.2511V136.181H45.4715ZM49.2511 3.89769V7.67722H53.0306V3.89769H49.2511ZM90.8259 3.89769V7.67722H94.6054V3.89769H90.8259ZM15.2353 121.063V124.843H19.0148V121.063H15.2353ZM3.89672 30.3544V34.1339H7.67624V30.3544H3.89672ZM49.2511 37.9134V41.693H53.0306V37.9134H49.2511ZM90.8259 37.9134V41.693H94.6054V37.9134H90.8259ZM60.5896 22.7953V26.5749H64.3692V22.7953H60.5896ZM132.401 37.9134V41.693H136.18V37.9134H132.401ZM3.89672 64.3701V68.1497H7.67624V64.3701H3.89672ZM132.401 71.9292V75.7087H136.18V71.9292H132.401ZM121.062 87.0473V90.8268H124.842V87.0473H121.062ZM121.062 121.063V124.843H124.842V121.063H121.062ZM49.2511 105.945V109.724H53.0306V105.945H49.2511ZM90.8259 105.945V109.724H94.6054V105.945H90.8259ZM136.18 7.67722V11.4567H139.96V7.67722H136.18ZM60.5896 124.843V128.622H64.3692V124.843H60.5896ZM136.18 41.693V45.4725H139.96V41.693H136.18ZM64.3692 26.5749V30.3544H68.1487V26.5749H64.3692ZM136.18 75.7087V79.4883H139.96V75.7087H136.18ZM34.1329 11.4567V15.2363H37.9125V11.4567H34.1329ZM19.0148 53.0316V56.8111H22.7944V53.0316H19.0148ZM102.164 109.724V113.504H105.944V109.724H102.164ZM22.7944 22.7953V26.5749H26.5739V22.7953H22.7944ZM113.503 128.622V132.402H117.283V128.622H113.503ZM0.117188 113.504V117.284H3.89672V113.504H0.117188ZM75.7077 30.3544V34.1339H79.4873V30.3544H75.7077ZM117.283 30.3544V34.1339H121.062V30.3544H117.283ZM87.0463 49.252V53.0316H90.8259V49.252H87.0463ZM75.7077 98.3859V102.165H79.4873V98.3859H75.7077ZM117.283 98.3859V102.165H121.062V98.3859H117.283ZM87.0463 83.2678V87.0473H90.8259V83.2678H87.0463ZM75.7077 132.402V136.181H79.4873V132.402H75.7077ZM121.062 0.118164V3.89769H124.842V0.118164H121.062ZM117.283 132.402V136.181H121.062V132.402H117.283ZM45.4715 117.284V121.063H49.2511V117.284H45.4715ZM87.0463 117.284V121.063H90.8259V117.284H87.0463ZM121.062 34.1339V37.9134H124.842V34.1339H121.062ZM15.2353 136.181V139.961H19.0148V136.181H15.2353ZM60.5896 3.89769V7.67722H64.3692V3.89769H60.5896ZM3.89672 45.4725V49.252H7.67624V45.4725H3.89672ZM49.2511 53.0316V56.8111H53.0306V53.0316H49.2511ZM90.8259 53.0316V56.8111H94.6054V53.0316H90.8259ZM60.5896 37.9134V41.693H64.3692V37.9134H60.5896ZM3.89672 79.4883V83.2678H7.67624V79.4883H3.89672ZM90.8259 87.0473V90.8268H94.6054V87.0473H90.8259ZM132.401 87.0473V90.8268H136.18V87.0473H132.401ZM3.89672 113.504V117.284H7.67624V113.504H3.89672ZM132.401 121.063V124.843H136.18V121.063H132.401ZM136.18 22.7953V26.5749H139.96V22.7953H136.18ZM19.0148 0.118164V3.89769H22.7944V0.118164H19.0148ZM64.3692 7.67722V11.4567H68.1487V7.67722H64.3692ZM64.3692 41.693V45.4725H68.1487V41.693H64.3692ZM105.944 41.693V45.4725H109.723V41.693H105.944ZM34.1329 26.5749V30.3544H37.9125V26.5749H34.1329ZM22.7944 3.89769V7.67722H26.5739V3.89769H22.7944ZM30.3534 75.7087V79.4883H34.1329V75.7087H30.3534ZM113.503 75.7087V79.4883H117.283V75.7087H113.503ZM102.164 124.843V128.622H105.944V124.843H102.164ZM30.3534 109.724V113.504H34.1329V109.724H30.3534ZM0.117188 94.6064V98.3859H3.89672V94.6064H0.117188ZM0.117188 128.622V132.402H3.89672V128.622H0.117188ZM41.692 128.622V132.402H45.4715V128.622H41.692ZM75.7077 45.4725V49.252H79.4873V45.4725H75.7077ZM117.283 45.4725V49.252H121.062V45.4725H117.283ZM15.2353 15.2363V19.0158H19.0148V15.2363H15.2353ZM45.4715 64.3701V68.1497H49.2511V64.3701H45.4715ZM87.0463 64.3701V68.1497H90.8259V64.3701H87.0463ZM75.7077 113.504V117.284H79.4873V113.504H75.7077ZM15.2353 49.252V53.0316H19.0148V49.252H15.2353ZM45.4715 98.3859V102.165H49.2511V98.3859H45.4715ZM87.0463 98.3859V102.165H90.8259V98.3859H87.0463ZM121.062 15.2363V19.0158H124.842V15.2363H121.062ZM15.2353 83.2678V87.0473H19.0148V83.2678H15.2353ZM87.0463 132.402V136.181H90.8259V132.402H87.0463ZM132.401 0.118164V3.89769H136.18V0.118164H132.401ZM121.062 49.252V53.0316H124.842V49.252H121.062ZM128.621 121.063V124.843H132.401V121.063H128.621ZM49.2511 34.1339V37.9134H53.0306V34.1339H49.2511ZM132.401 34.1339V37.9134H136.18V34.1339H132.401ZM60.5896 19.0158V22.7953H64.3692V19.0158H60.5896ZM3.89672 60.5906V64.3701H7.67624V60.5906H3.89672ZM60.5896 53.0316V56.8111H64.3692V53.0316H60.5896ZM3.89672 94.6064V98.3859H7.67624V94.6064H3.89672ZM98.3849 102.165V105.945H102.164V102.165H98.3849ZM19.0148 49.252V53.0316H22.7944V49.252H19.0148ZM102.164 37.9134V41.693H105.944V37.9134H102.164ZM30.3534 22.7953V26.5749H34.1329V22.7953H30.3534ZM71.9282 56.8111V60.5906H75.7077V56.8111H71.9282ZM0.117188 41.693V45.4725H3.89672V41.693H0.117188ZM41.692 41.693V45.4725H45.4715V41.693H41.692ZM30.3534 90.8268V94.6064H34.1329V90.8268H30.3534ZM71.9282 90.8268V94.6064H75.7077V90.8268H71.9282ZM113.503 90.8268V94.6064H117.283V90.8268H113.503ZM0.117188 75.7087V79.4883H3.89672V75.7087H0.117188ZM113.503 124.843V128.622H117.283V124.843H113.503ZM75.7077 26.5749V30.3544H79.4873V26.5749H75.7077ZM87.0463 11.4567V15.2363H90.8259V11.4567H87.0463ZM75.7077 60.5906V64.3701H79.4873V60.5906H75.7077ZM117.283 60.5906V64.3701H121.062V60.5906H117.283ZM45.4715 45.4725V49.252H49.2511V45.4725H45.4715ZM87.0463 45.4725V49.252H90.8259V45.4725H87.0463ZM15.2353 30.3544V34.1339H19.0148V30.3544H15.2353ZM87.0463 79.4883V83.2678H90.8259V79.4883H87.0463ZM87.0463 113.504V117.284H90.8259V113.504H87.0463ZM15.2353 98.3859V102.165H19.0148V98.3859H15.2353ZM128.621 102.165V105.945H132.401V102.165H128.621ZM90.8259 15.2363V19.0158H94.6054V15.2363H90.8259ZM60.5896 0.118164V3.89769H64.3692V0.118164H60.5896ZM128.621 136.181V139.961H132.401V136.181H128.621ZM132.401 49.252V53.0316H136.18V49.252H132.401ZM60.5896 34.1339V37.9134H64.3692V34.1339H60.5896ZM56.8101 83.2678V87.0473H60.5896V83.2678H56.8101ZM98.3849 83.2678V87.0473H102.164V83.2678H98.3849ZM26.5739 68.1497V71.9292H30.3534V68.1497H26.5739ZM56.8101 117.284V121.063H60.5896V117.284H56.8101ZM26.5739 102.165V105.945H30.3534V102.165H26.5739ZM68.1487 102.165V105.945H71.9282V102.165H68.1487ZM30.3534 3.89769V7.67722H34.1329V3.89769H30.3534ZM71.9282 3.89769V7.67722H75.7077V3.89769H71.9282ZM113.503 3.89769V7.67722H117.283V3.89769H113.503ZM102.164 53.0316V56.8111H105.944V53.0316H102.164ZM30.3534 37.9134V41.693H34.1329V37.9134H30.3534ZM0.117188 22.7953V26.5749H3.89672V22.7953H0.117188ZM71.9282 71.9292V75.7087H75.7077V71.9292H71.9282ZM0.117188 56.8111V60.5906H3.89672V56.8111H0.117188ZM71.9282 105.945V109.724H75.7077V105.945H71.9282ZM113.503 105.945V109.724H117.283V105.945H113.503ZM41.692 90.8268V94.6064H45.4715V90.8268H41.692ZM75.7077 7.67722V11.4567H79.4873V7.67722H75.7077ZM0.117188 124.843V128.622H3.89672V124.843H0.117188ZM75.7077 41.693V45.4725H79.4873V41.693H75.7077ZM117.283 41.693V45.4725H121.062V41.693H117.283ZM45.4715 26.5749V30.3544H49.2511V26.5749H45.4715ZM87.0463 26.5749V30.3544H90.8259V26.5749H87.0463ZM15.2353 11.4567V15.2363H19.0148V11.4567H15.2353ZM128.621 49.252V53.0316H132.401V49.252H128.621ZM128.621 117.284V121.063H132.401V117.284H128.621ZM3.89672 22.7953V26.5749H7.67624V22.7953H3.89672ZM60.5896 15.2363V19.0158H64.3692V15.2363H60.5896ZM11.4558 128.622V132.402H15.2353V128.622H11.4558ZM53.0306 128.622V132.402H56.8101V128.622H53.0306ZM56.8101 64.3701V68.1497H60.5896V64.3701H56.8101ZM68.1487 49.252V53.0316H71.9282V49.252H68.1487ZM56.8101 98.3859V102.165H60.5896V98.3859H56.8101ZM98.3849 98.3859V102.165H102.164V98.3859H98.3849ZM26.5739 83.2678V87.0473H30.3534V83.2678H26.5739ZM56.8101 132.402V136.181H60.5896V132.402H56.8101ZM102.164 0.118164V3.89769H105.944V0.118164H102.164ZM98.3849 132.402V136.181H102.164V132.402H98.3849ZM68.1487 117.284V121.063H71.9282V117.284H68.1487ZM102.164 34.1339V37.9134H105.944V34.1339H102.164ZM30.3534 19.0158V22.7953H34.1329V19.0158H30.3534ZM71.9282 19.0158V22.7953H75.7077V19.0158H71.9282ZM113.503 19.0158V22.7953H117.283V19.0158H113.503ZM0.117188 3.89769V7.67722H3.89672V3.89769H0.117188ZM102.164 68.1497V71.9292H105.944V68.1497H102.164ZM30.3534 53.0316V56.8111H34.1329V53.0316H30.3534ZM102.164 102.165V105.945H105.944V102.165H102.164ZM0.117188 37.9134V41.693H3.89672V37.9134H0.117188ZM41.692 37.9134V41.693H45.4715V37.9134H41.692ZM71.9282 87.0473V90.8268H75.7077V87.0473H71.9282ZM41.692 71.9292V75.7087H45.4715V71.9292H41.692ZM113.503 121.063V124.843H117.283V121.063H113.503ZM0.117188 105.945V109.724H3.89672V105.945H0.117188ZM75.7077 22.7953V26.5749H79.4873V22.7953H75.7077ZM117.283 22.7953V26.5749H121.062V22.7953H117.283ZM124.842 94.6064V98.3859H128.621V94.6064H124.842ZM87.0463 41.693V45.4725H90.8259V41.693H87.0463ZM94.6054 113.504V117.284H98.3849V113.504H94.6054ZM128.621 30.3544V34.1339H132.401V30.3544H128.621ZM128.621 64.3701V68.1497H132.401V64.3701H128.621ZM83.2668 90.8268V94.6064H87.0463V90.8268H83.2668ZM128.621 98.3859V102.165H132.401V98.3859H128.621ZM11.4558 75.7087V79.4883H15.2353V75.7087H11.4558ZM83.2668 124.843V128.622H87.0463V124.843H83.2668ZM128.621 132.402V136.181H132.401V132.402H128.621ZM53.0306 109.724V113.504H56.8101V109.724H53.0306ZM56.8101 11.4567V15.2363H60.5896V11.4567H56.8101ZM98.3849 11.4567V15.2363H102.164V11.4567H98.3849ZM56.8101 45.4725V49.252H60.5896V45.4725H56.8101Z" fill="black"/>
</svg>
