<?xml version="1.0" encoding="UTF-8"?>
<svg xmlns="http://www.w3.org/2000/svg" xmlns:xlink="http://www.w3.org/1999/xlink" width="199pt" height="73pt" viewBox="0 0 199 73" version="1.1">
<g id="surface1">
<path style=" stroke:none;fill-rule:nonzero;fill:rgb(88.235294%,0%,5.882353%);fill-opacity:1;" d="M 36.84375 12.734375 L 27.742188 12.734375 C 27.773438 12.742188 27.800781 12.757812 27.828125 12.773438 L 28.058594 12.894531 C 28.179688 12.953125 28.285156 13.039062 28.359375 13.152344 C 28.390625 13.199219 28.441406 13.296875 28.410156 13.359375 C 28.375 13.441406 28.359375 13.570312 28.28125 13.601562 C 28.175781 13.644531 28.058594 13.65625 27.945312 13.632812 C 27.878906 13.628906 27.816406 13.621094 27.753906 13.601562 C 27.992188 13.695312 28.214844 13.808594 28.375 14.035156 C 28.390625 14.066406 28.457031 14.082031 28.519531 14.082031 C 28.535156 14.082031 28.535156 14.113281 28.535156 14.128906 C 28.503906 14.164062 28.472656 14.179688 28.488281 14.226562 L 28.535156 14.226562 C 28.617188 14.195312 28.601562 14.035156 28.710938 14.082031 C 28.75 14.105469 28.78125 14.144531 28.792969 14.191406 C 28.804688 14.234375 28.796875 14.28125 28.777344 14.324219 C 28.714844 14.382812 28.652344 14.433594 28.582031 14.484375 C 28.578125 14.5 28.574219 14.519531 28.574219 14.539062 C 28.574219 14.558594 28.578125 14.578125 28.582031 14.597656 C 28.625 14.652344 28.652344 14.71875 28.664062 14.789062 C 28.710938 14.902344 28.726562 15.027344 28.777344 15.140625 C 28.851562 15.375 28.890625 15.617188 28.886719 15.863281 C 28.886719 15.992188 28.824219 16.101562 28.871094 16.230469 C 28.914062 16.351562 28.972656 16.464844 29.046875 16.570312 C 29.113281 16.648438 29.171875 16.734375 29.222656 16.824219 C 29.320312 16.984375 29.496094 17.144531 29.414062 17.339844 C 29.367188 17.453125 29.191406 17.441406 29.078125 17.5 C 28.984375 17.578125 29.0625 17.707031 29.109375 17.789062 C 29.191406 17.933594 29.015625 18.027344 28.902344 18.078125 C 28.9375 18.125 29.003906 18.109375 29.015625 18.140625 C 29.03125 18.222656 29.109375 18.269531 29.0625 18.347656 C 29 18.445312 28.808594 18.492188 28.902344 18.636719 C 28.96875 18.75 28.925781 18.875 28.886719 18.992188 C 28.863281 19.050781 28.824219 19.105469 28.773438 19.148438 C 28.722656 19.191406 28.664062 19.21875 28.601562 19.230469 C 28.5 19.261719 28.398438 19.265625 28.296875 19.246094 C 28.265625 19.230469 28.230469 19.21875 28.195312 19.214844 C 27.925781 19.183594 27.652344 19.101562 27.382812 19.101562 C 27.304688 19.117188 27.230469 19.136719 27.15625 19.167969 C 27.085938 19.21875 27.023438 19.277344 26.964844 19.339844 L 26.929688 19.378906 L 26.90625 19.402344 C 26.90625 19.402344 26.898438 19.414062 26.894531 19.417969 C 26.847656 19.476562 26.804688 19.539062 26.769531 19.605469 L 26.761719 19.617188 L 26.75 19.640625 C 26.699219 19.730469 26.660156 19.832031 26.628906 19.933594 C 26.519531 20.300781 26.566406 20.617188 26.644531 20.691406 C 26.664062 20.714844 27.171875 20.871094 27.523438 21.027344 C 27.65625 21.082031 27.78125 21.148438 27.902344 21.222656 L 36.839844 21.222656 Z M 36.84375 12.734375 "/>
<path style=" stroke:none;fill-rule:nonzero;fill:rgb(61.568627%,61.568627%,61.176471%);fill-opacity:1;" d="M 28.285156 15.828125 C 28.347656 15.84375 28.441406 15.84375 28.441406 15.878906 C 28.410156 16.007812 28.21875 16.039062 28.125 16.164062 L 28.074219 16.164062 C 28.027344 16.199219 28.042969 16.277344 27.996094 16.277344 C 27.945312 16.269531 27.894531 16.273438 27.851562 16.292969 C 27.878906 16.328125 27.917969 16.359375 27.960938 16.375 C 28 16.394531 28.046875 16.398438 28.09375 16.394531 C 28.105469 16.402344 28.117188 16.410156 28.125 16.421875 C 28.132812 16.433594 28.136719 16.445312 28.140625 16.460938 C 28.152344 16.460938 28.164062 16.453125 28.171875 16.445312 C 28.1875 16.445312 28.203125 16.445312 28.203125 16.460938 L 28.203125 16.523438 C 28.15625 16.589844 28.074219 16.558594 28.011719 16.570312 C 28.132812 16.605469 28.257812 16.605469 28.378906 16.570312 C 28.480469 16.539062 28.378906 16.378906 28.441406 16.300781 C 28.410156 16.300781 28.441406 16.253906 28.410156 16.253906 C 28.441406 16.21875 28.476562 16.171875 28.507812 16.152344 C 28.527344 16.152344 28.542969 16.148438 28.5625 16.140625 C 28.578125 16.128906 28.59375 16.117188 28.601562 16.101562 C 28.601562 16.070312 28.539062 16.054688 28.554688 16.023438 C 28.652344 15.957031 28.730469 15.863281 28.699219 15.765625 C 28.683594 15.71875 28.554688 15.71875 28.476562 15.6875 C 28.386719 15.667969 28.292969 15.671875 28.203125 15.703125 C 28.121094 15.714844 28.042969 15.738281 27.964844 15.765625 C 27.855469 15.804688 27.753906 15.859375 27.660156 15.925781 C 27.773438 15.882812 27.894531 15.851562 28.011719 15.824219 C 28.101562 15.816406 28.195312 15.816406 28.285156 15.828125 Z M 28.285156 15.828125 "/>
<path style=" stroke:none;fill-rule:nonzero;fill:rgb(0%,0%,56.862745%);fill-opacity:1;" d="M 23.195312 20.222656 C 23.285156 20.132812 23.378906 20.035156 23.46875 19.9375 C 23.632812 19.742188 23.8125 19.558594 24.003906 19.390625 C 24.058594 19.339844 24.117188 19.292969 24.175781 19.25 C 24.191406 19.234375 24.191406 19.203125 24.207031 19.1875 C 24.128906 19.21875 24.082031 19.289062 24 19.316406 C 23.984375 19.316406 23.96875 19.296875 23.984375 19.28125 L 24.15625 19.152344 L 24.144531 19.152344 C 24.128906 19.152344 24.128906 19.140625 24.128906 19.121094 C 23.921875 19.089844 23.761719 19.234375 23.617188 19.363281 C 23.585938 19.378906 23.550781 19.347656 23.539062 19.347656 C 23.296875 19.425781 23.121094 19.636719 22.882812 19.730469 L 22.882812 19.695312 C 22.785156 19.730469 22.691406 19.785156 22.59375 19.808594 C 22.460938 19.832031 22.324219 19.835938 22.191406 19.824219 C 21.996094 19.847656 21.800781 19.882812 21.609375 19.925781 L 21.59375 19.925781 C 21.488281 19.953125 21.386719 19.996094 21.289062 20.046875 L 21.28125 20.054688 C 21.273438 20.0625 21.265625 20.070312 21.257812 20.082031 C 21.226562 20.121094 21.191406 20.15625 21.148438 20.179688 C 21.050781 20.242188 20.964844 20.3125 20.882812 20.390625 C 20.875 20.394531 20.867188 20.398438 20.855469 20.398438 C 20.769531 20.480469 20.6875 20.5625 20.597656 20.644531 C 20.582031 20.652344 20.566406 20.65625 20.550781 20.652344 C 20.554688 20.644531 20.558594 20.640625 20.5625 20.636719 C 20.574219 20.613281 20.585938 20.589844 20.601562 20.566406 C 20.613281 20.546875 20.632812 20.519531 20.648438 20.492188 C 20.664062 20.46875 20.691406 20.425781 20.71875 20.390625 C 20.71875 20.390625 20.722656 20.386719 20.722656 20.382812 C 20.722656 20.378906 20.71875 20.375 20.71875 20.371094 C 20.710938 20.363281 20.703125 20.363281 20.695312 20.363281 C 20.777344 20.285156 20.867188 20.21875 20.964844 20.160156 C 20.953125 20.160156 20.9375 20.160156 20.945312 20.144531 C 20.953125 20.128906 20.964844 20.117188 20.972656 20.101562 L 20.976562 20.085938 L 20.964844 20.074219 C 20.9375 20.089844 20.914062 20.105469 20.890625 20.125 C 20.851562 20.160156 20.820312 20.226562 20.765625 20.226562 L 20.738281 20.226562 C 20.734375 20.226562 20.726562 20.226562 20.722656 20.222656 C 20.726562 20.21875 20.726562 20.210938 20.730469 20.207031 L 20.746094 20.183594 L 20.753906 20.164062 L 20.765625 20.148438 C 20.769531 20.136719 20.777344 20.125 20.785156 20.113281 L 20.792969 20.09375 L 20.8125 20.066406 C 20.820312 20.054688 20.8125 20.042969 20.800781 20.039062 C 20.828125 20 20.867188 19.964844 20.910156 19.941406 C 20.96875 19.910156 21.03125 19.875 21.09375 19.839844 L 21.117188 19.816406 C 21.027344 19.847656 20.941406 19.890625 20.863281 19.945312 C 20.855469 19.949219 20.84375 19.953125 20.835938 19.957031 C 20.828125 19.960938 20.820312 19.960938 20.816406 19.957031 C 20.808594 19.953125 20.800781 19.949219 20.796875 19.945312 C 20.796875 19.941406 20.796875 19.9375 20.796875 19.933594 C 20.8125 19.898438 20.859375 19.882812 20.898438 19.851562 C 20.914062 19.851562 20.929688 19.851562 20.929688 19.867188 C 21.441406 19.464844 22.140625 19.566406 22.734375 19.355469 L 22.878906 19.253906 C 22.960938 19.222656 23.023438 19.144531 23.121094 19.09375 C 23.25 19.003906 23.34375 18.875 23.390625 18.726562 C 23.390625 18.714844 23.382812 18.703125 23.375 18.695312 C 23.171875 18.910156 22.933594 19.089844 22.667969 19.222656 C 22.332031 19.398438 21.960938 19.367188 21.613281 19.414062 C 21.628906 19.382812 21.660156 19.382812 21.695312 19.382812 C 21.695312 19.335938 21.726562 19.320312 21.757812 19.285156 L 21.804688 19.285156 C 21.820312 19.285156 21.820312 19.253906 21.835938 19.253906 C 21.867188 19.253906 21.917969 19.238281 21.902344 19.238281 C 21.855469 19.175781 21.757812 19.285156 21.675781 19.238281 C 21.710938 19.207031 21.695312 19.15625 21.726562 19.144531 L 21.789062 19.144531 C 21.792969 19.117188 21.804688 19.09375 21.820312 19.078125 C 22.0625 18.933594 22.285156 18.820312 22.507812 18.695312 C 22.460938 18.695312 22.429688 18.742188 22.382812 18.710938 C 22.414062 18.710938 22.382812 18.660156 22.414062 18.660156 C 22.589844 18.613281 22.734375 18.515625 22.910156 18.453125 C 22.84375 18.453125 22.796875 18.5 22.734375 18.453125 C 22.765625 18.4375 22.78125 18.40625 22.832031 18.40625 L 22.832031 18.355469 C 22.832031 18.339844 22.847656 18.339844 22.867188 18.339844 C 22.851562 18.339844 22.84375 18.332031 22.832031 18.324219 C 22.847656 18.292969 22.898438 18.308594 22.933594 18.277344 C 22.917969 18.277344 22.886719 18.277344 22.886719 18.261719 C 22.941406 18.203125 23.015625 18.167969 23.09375 18.164062 C 23.078125 18.132812 23.03125 18.164062 23.03125 18.132812 C 23.03125 18.117188 23.046875 18.117188 23.0625 18.117188 L 23.03125 18.117188 C 23 18.097656 23.015625 18.066406 23.015625 18.050781 C 23.117188 17.9375 23.117188 17.792969 23.160156 17.667969 C 23.140625 17.667969 23.128906 17.667969 23.128906 17.652344 C 22.964844 17.828125 22.710938 17.890625 22.472656 17.953125 L 22.382812 17.953125 C 22.339844 17.972656 22.292969 17.980469 22.246094 17.976562 C 22.199219 17.972656 22.152344 17.960938 22.113281 17.9375 C 22.054688 17.898438 22 17.855469 21.949219 17.804688 C 21.824219 17.722656 21.6875 17.660156 21.546875 17.613281 C 21.148438 17.480469 20.734375 17.421875 20.316406 17.433594 C 20.492188 17.335938 20.6875 17.335938 20.875 17.273438 C 21.148438 17.195312 21.402344 17.097656 21.691406 17.113281 C 21.636719 17.105469 21.582031 17.105469 21.53125 17.113281 C 21.308594 17.097656 21.082031 17.160156 20.84375 17.214844 C 20.683594 17.246094 20.539062 17.3125 20.378906 17.34375 C 20.285156 17.375 20.234375 17.472656 20.125 17.457031 L 20.125 17.40625 C 20.285156 17.214844 20.476562 17.023438 20.730469 17.003906 C 21.019531 16.953125 21.289062 17.003906 21.578125 17.035156 C 21.78125 17.058594 21.984375 17.09375 22.183594 17.148438 C 22.261719 17.148438 22.28125 17.273438 22.34375 17.292969 C 22.441406 17.324219 22.535156 17.292969 22.628906 17.355469 C 22.628906 17.324219 22.613281 17.292969 22.628906 17.257812 C 22.695312 17.195312 22.773438 17.273438 22.835938 17.242188 C 22.964844 17.164062 22.726562 17.019531 22.660156 16.90625 C 22.664062 16.894531 22.667969 16.882812 22.679688 16.875 C 22.804688 16.988281 22.902344 17.117188 23.0625 17.195312 C 23.140625 17.226562 23.332031 17.273438 23.300781 17.179688 C 23.222656 17.003906 23.0625 16.859375 22.933594 16.699219 L 22.933594 16.632812 C 22.902344 16.632812 22.902344 16.617188 22.886719 16.601562 L 22.886719 16.539062 C 22.820312 16.503906 22.835938 16.441406 22.804688 16.394531 C 22.757812 16.3125 22.789062 16.199219 22.757812 16.105469 C 22.726562 16.015625 22.707031 15.925781 22.695312 15.832031 C 22.65625 15.558594 22.59375 15.316406 22.554688 15.0625 C 22.523438 14.757812 22.730469 14.515625 22.875 14.242188 C 22.980469 14.035156 23.132812 13.859375 23.324219 13.730469 C 23.386719 13.539062 23.488281 13.363281 23.625 13.214844 C 23.765625 13.074219 23.933594 12.964844 24.121094 12.894531 C 24.261719 12.832031 24.402344 12.777344 24.550781 12.734375 L 13.578125 12.734375 L 13.578125 21.222656 L 21.34375 21.222656 C 21.648438 21 21.949219 20.898438 22.378906 20.6875 C 22.582031 20.585938 23.039062 20.375 23.195312 20.222656 Z M 20.738281 19.070312 C 20.707031 19.070312 20.640625 19.085938 20.660156 19.054688 C 20.675781 18.976562 20.789062 18.976562 20.851562 18.941406 C 20.882812 18.925781 20.933594 18.894531 20.964844 18.910156 C 20.996094 18.957031 21.042969 18.941406 21.074219 18.976562 C 20.976562 19.070312 20.847656 19.023438 20.738281 19.070312 Z M 18.292969 18.71875 C 18.28125 18.710938 18.277344 18.699219 18.277344 18.6875 C 18.472656 18.429688 18.644531 18.15625 18.789062 17.867188 C 18.988281 17.75 19.171875 17.597656 19.328125 17.417969 C 19.578125 17.128906 19.882812 16.890625 20.222656 16.710938 C 20.359375 16.667969 20.503906 16.671875 20.636719 16.726562 C 20.589844 16.789062 20.511719 16.773438 20.445312 16.828125 C 20.4375 16.828125 20.429688 16.828125 20.421875 16.824219 C 20.414062 16.820312 20.40625 16.816406 20.398438 16.8125 C 20.40625 16.804688 20.410156 16.796875 20.410156 16.789062 C 20.414062 16.78125 20.414062 16.773438 20.414062 16.761719 C 20.253906 16.9375 20.03125 17.019531 19.902344 17.230469 C 19.808594 17.390625 19.746094 17.589844 19.539062 17.644531 C 19.472656 17.660156 19.554688 17.59375 19.523438 17.613281 C 19.023438 17.917969 18.675781 18.285156 18.292969 18.71875 Z M 19.617188 17.660156 C 19.601562 17.691406 19.585938 17.695312 19.570312 17.722656 C 19.558594 17.753906 19.535156 17.777344 19.507812 17.789062 C 19.492188 17.789062 19.472656 17.789062 19.472656 17.769531 C 19.480469 17.738281 19.496094 17.707031 19.519531 17.683594 C 19.542969 17.65625 19.570312 17.640625 19.601562 17.628906 C 19.617188 17.628906 19.617188 17.644531 19.617188 17.660156 Z M 20.359375 20.0625 C 20.351562 20.082031 20.335938 20.097656 20.320312 20.109375 C 20.339844 20.109375 20.355469 20.121094 20.34375 20.136719 C 20.308594 20.171875 20.265625 20.199219 20.222656 20.21875 C 20.214844 20.21875 20.203125 20.21875 20.195312 20.21875 C 20.175781 20.238281 20.15625 20.257812 20.136719 20.273438 C 20.117188 20.292969 20.03125 20.273438 20.058594 20.253906 C 20.085938 20.234375 20.136719 20.179688 20.175781 20.144531 C 20.199219 20.121094 20.222656 20.101562 20.242188 20.082031 C 20.25 20.066406 20.261719 20.054688 20.277344 20.042969 C 20.289062 20.039062 20.375 20.03125 20.359375 20.0625 Z M 20.074219 19.929688 C 20.015625 19.972656 19.957031 20.015625 19.890625 20.050781 C 19.828125 20.089844 19.75 20.121094 19.679688 20.152344 C 19.679688 20.148438 19.671875 20.144531 19.667969 20.144531 C 19.664062 20.144531 19.660156 20.144531 19.652344 20.148438 C 19.59375 20.179688 19.539062 20.222656 19.492188 20.269531 C 19.484375 20.277344 19.476562 20.285156 19.472656 20.292969 L 19.449219 20.3125 C 19.4375 20.324219 19.425781 20.335938 19.414062 20.351562 C 19.410156 20.359375 19.402344 20.367188 19.390625 20.375 C 19.382812 20.378906 19.355469 20.378906 19.359375 20.363281 L 19.328125 20.375 C 19.320312 20.378906 19.3125 20.382812 19.304688 20.390625 C 19.300781 20.390625 19.296875 20.390625 19.292969 20.390625 C 19.289062 20.386719 19.285156 20.386719 19.28125 20.390625 C 19.261719 20.40625 19.242188 20.421875 19.222656 20.4375 C 19.191406 20.46875 19.160156 20.503906 19.132812 20.539062 L 19.128906 20.546875 L 19.128906 20.554688 L 19.117188 20.566406 C 19.113281 20.570312 19.109375 20.574219 19.101562 20.574219 L 19.097656 20.566406 C 19.09375 20.5625 19.09375 20.558594 19.09375 20.558594 C 19.09375 20.546875 19.082031 20.539062 19.078125 20.53125 C 19.078125 20.527344 19.078125 20.527344 19.078125 20.523438 C 19.097656 20.503906 19.113281 20.484375 19.128906 20.464844 L 19.144531 20.445312 L 19.144531 20.425781 L 19.15625 20.414062 C 19.171875 20.390625 19.191406 20.367188 19.207031 20.34375 L 19.214844 20.335938 C 19.222656 20.324219 19.226562 20.3125 19.234375 20.300781 C 19.242188 20.289062 19.246094 20.28125 19.253906 20.269531 L 19.253906 20.261719 L 19.265625 20.226562 C 19.265625 20.222656 19.265625 20.21875 19.265625 20.214844 C 19.265625 20.207031 19.265625 20.203125 19.265625 20.195312 L 19.273438 20.171875 C 19.273438 20.171875 19.273438 20.167969 19.273438 20.167969 C 19.273438 20.164062 19.273438 20.164062 19.273438 20.164062 C 19.292969 20.132812 19.3125 20.101562 19.335938 20.074219 L 19.328125 20.082031 C 19.308594 20.09375 19.292969 20.117188 19.269531 20.128906 C 19.25 20.144531 19.222656 20.121094 19.242188 20.109375 C 19.253906 20.097656 19.265625 20.085938 19.277344 20.074219 C 19.304688 20.046875 19.332031 20.019531 19.359375 19.992188 C 19.378906 19.980469 19.394531 19.96875 19.40625 19.957031 C 19.410156 19.953125 19.414062 19.953125 19.414062 19.949219 C 19.425781 19.933594 19.4375 19.921875 19.449219 19.90625 C 19.601562 19.757812 19.863281 19.765625 20.0625 19.671875 C 20.144531 19.640625 20.238281 19.6875 20.320312 19.671875 C 20.367188 19.667969 20.417969 19.679688 20.460938 19.703125 C 20.335938 19.757812 20.207031 19.847656 20.074219 19.929688 Z M 20.402344 18.816406 C 20.386719 18.800781 20.449219 18.816406 20.464844 18.785156 L 20.335938 18.785156 C 20.320312 18.785156 20.320312 18.769531 20.320312 18.753906 C 20.242188 18.769531 20.144531 18.800781 20.066406 18.816406 C 19.953125 18.847656 19.859375 18.929688 19.730469 18.960938 C 19.554688 19.027344 19.410156 19.167969 19.21875 19.234375 C 19.203125 19.234375 19.203125 19.21875 19.203125 19.203125 C 19.21875 19.152344 19.28125 19.136719 19.3125 19.089844 C 19.3125 19.074219 19.3125 19.058594 19.296875 19.058594 C 19.425781 18.878906 19.601562 18.785156 19.761719 18.640625 L 19.761719 18.59375 C 19.808594 18.527344 19.890625 18.496094 19.921875 18.414062 C 19.953125 18.347656 20.011719 18.296875 20.082031 18.269531 C 20.066406 18.253906 20.03125 18.253906 20.03125 18.222656 C 19.96875 18.222656 19.90625 18.253906 19.839844 18.207031 C 19.871094 18.179688 19.90625 18.160156 19.941406 18.148438 C 19.925781 18.148438 19.914062 18.140625 19.90625 18.125 C 19.890625 18.09375 19.9375 18.058594 19.984375 18.046875 C 20.050781 18.03125 20.128906 18.03125 20.179688 17.980469 C 20.066406 17.964844 19.9375 18.015625 19.828125 17.949219 C 19.894531 17.746094 20.039062 17.570312 20.230469 17.46875 C 20.246094 17.46875 20.277344 17.46875 20.277344 17.484375 C 20.28125 17.523438 20.265625 17.558594 20.242188 17.589844 C 20.21875 17.617188 20.1875 17.640625 20.148438 17.644531 C 20.28125 17.660156 20.410156 17.695312 20.535156 17.742188 C 20.515625 17.773438 20.484375 17.757812 20.46875 17.757812 C 20.550781 17.804688 20.644531 17.773438 20.726562 17.839844 C 20.675781 17.886719 20.625 17.839844 20.582031 17.839844 C 21.078125 17.980469 21.605469 18.09375 22.019531 18.414062 C 21.667969 18.574219 21.296875 18.6875 20.917969 18.753906 C 20.875 18.753906 20.832031 18.75 20.789062 18.734375 C 20.789062 18.753906 20.789062 18.785156 20.773438 18.785156 C 20.71875 18.777344 20.664062 18.789062 20.613281 18.816406 C 20.582031 18.835938 20.546875 18.847656 20.507812 18.847656 C 20.46875 18.847656 20.433594 18.835938 20.402344 18.816406 Z M 20.402344 18.816406 "/>
<path style=" stroke:none;fill-rule:nonzero;fill:rgb(0%,0%,0%);fill-opacity:1;" d="M 13.648438 31.40625 L 13.648438 25.167969 L 15.554688 25.167969 C 16.242188 25.167969 16.78125 25.332031 17.175781 25.667969 C 17.574219 25.996094 17.773438 26.453125 17.773438 27.027344 C 17.773438 27.398438 17.683594 27.722656 17.511719 28 C 17.339844 28.273438 17.09375 28.488281 16.777344 28.644531 L 18.734375 31.40625 L 17.21875 31.40625 L 15.5625 28.882812 L 14.914062 28.882812 L 14.914062 31.40625 Z M 14.914062 27.808594 L 15.625 27.808594 C 15.894531 27.808594 16.101562 27.738281 16.25 27.601562 C 16.398438 27.464844 16.472656 27.265625 16.472656 27.011719 C 16.472656 26.773438 16.398438 26.585938 16.25 26.449219 C 16.101562 26.3125 15.894531 26.246094 15.625 26.246094 L 14.914062 26.246094 Z M 19.519531 31.40625 L 19.519531 25.167969 L 23.15625 25.167969 L 23.15625 26.246094 L 20.785156 26.246094 L 20.785156 27.691406 L 22.800781 27.691406 L 22.800781 28.769531 L 20.785156 28.769531 L 20.785156 30.328125 L 23.15625 30.328125 L 23.15625 31.40625 Z M 20.75 24.636719 L 21.753906 23.429688 L 23.054688 23.429688 L 21.898438 24.636719 Z M 24.625 31.40625 L 24.625 25.167969 L 26.683594 25.167969 C 27.367188 25.167969 27.90625 25.332031 28.300781 25.667969 C 28.695312 25.996094 28.894531 26.453125 28.894531 27.027344 C 28.894531 27.601562 28.695312 28.054688 28.300781 28.386719 C 27.90625 28.71875 27.367188 28.882812 26.683594 28.882812 L 25.890625 28.882812 L 25.890625 31.40625 Z M 25.890625 27.808594 L 26.734375 27.808594 C 27.003906 27.808594 27.214844 27.738281 27.367188 27.597656 C 27.515625 27.460938 27.589844 27.265625 27.589844 27.011719 C 27.589844 26.773438 27.515625 26.585938 27.359375 26.449219 C 27.210938 26.3125 27 26.246094 26.734375 26.246094 L 25.890625 26.246094 Z M 29.832031 28.964844 L 29.832031 25.167969 L 31.097656 25.167969 L 31.097656 29.070312 C 31.097656 29.488281 31.207031 29.8125 31.429688 30.050781 C 31.65625 30.285156 31.964844 30.402344 32.363281 30.402344 C 32.75 30.402344 33.058594 30.285156 33.28125 30.050781 C 33.503906 29.8125 33.617188 29.488281 33.617188 29.070312 L 33.617188 25.167969 L 34.882812 25.167969 L 34.882812 28.964844 C 34.882812 29.785156 34.65625 30.425781 34.207031 30.890625 C 33.757812 31.351562 33.140625 31.585938 32.355469 31.585938 C 31.574219 31.585938 30.957031 31.351562 30.503906 30.890625 C 30.054688 30.425781 29.832031 29.785156 29.832031 28.964844 Z M 36.453125 31.40625 L 36.453125 25.167969 L 38.226562 25.167969 C 38.875 25.167969 39.386719 25.316406 39.757812 25.617188 C 40.128906 25.921875 40.3125 26.335938 40.3125 26.863281 C 40.3125 27.378906 40.09375 27.785156 39.652344 28.089844 C 39.984375 28.238281 40.238281 28.441406 40.414062 28.695312 C 40.589844 28.949219 40.679688 29.242188 40.679688 29.570312 C 40.679688 30.140625 40.472656 30.585938 40.058594 30.914062 C 39.644531 31.242188 39.078125 31.40625 38.359375 31.40625 Z M 37.71875 30.328125 L 38.433594 30.328125 C 38.726562 30.328125 38.957031 30.253906 39.125 30.109375 C 39.292969 29.960938 39.378906 29.757812 39.378906 29.5 C 39.378906 29.242188 39.292969 29.042969 39.125 28.90625 C 38.960938 28.765625 38.730469 28.695312 38.433594 28.695312 L 37.71875 28.695312 Z M 37.71875 27.613281 L 38.253906 27.613281 C 38.496094 27.613281 38.683594 27.550781 38.8125 27.433594 C 38.945312 27.316406 39.011719 27.144531 39.011719 26.925781 C 39.011719 26.710938 38.945312 26.546875 38.8125 26.429688 C 38.683594 26.304688 38.496094 26.246094 38.253906 26.246094 L 37.71875 26.246094 Z M 41.96875 31.40625 L 41.96875 25.167969 L 43.234375 25.167969 L 43.234375 30.257812 L 45.605469 30.257812 L 45.605469 31.40625 Z M 46.71875 31.40625 L 46.71875 25.167969 L 47.984375 25.167969 L 47.984375 31.40625 Z M 49.4375 29.558594 C 49.273438 29.152344 49.191406 28.730469 49.191406 28.285156 C 49.191406 27.84375 49.273438 27.421875 49.4375 27.019531 C 49.597656 26.617188 49.820312 26.265625 50.105469 25.96875 C 50.390625 25.667969 50.742188 25.429688 51.160156 25.253906 C 51.574219 25.078125 52.027344 24.988281 52.507812 24.988281 C 52.984375 24.988281 53.433594 25.078125 53.847656 25.253906 C 54.265625 25.429688 54.617188 25.667969 54.898438 25.96875 C 55.183594 26.265625 55.40625 26.617188 55.570312 27.019531 C 55.730469 27.421875 55.8125 27.84375 55.8125 28.285156 C 55.8125 28.804688 55.703125 29.292969 55.488281 29.75 C 55.269531 30.203125 54.96875 30.585938 54.582031 30.890625 L 54.957031 31.246094 C 55.398438 31.644531 55.835938 31.84375 56.265625 31.84375 C 56.445312 31.84375 56.59375 31.820312 56.714844 31.773438 L 56.714844 32.84375 C 56.515625 32.917969 56.296875 32.957031 56.054688 32.957031 C 55.378906 32.957031 54.730469 32.683594 54.105469 32.136719 L 53.363281 31.476562 C 53.089844 31.550781 52.804688 31.585938 52.507812 31.585938 C 52.027344 31.585938 51.574219 31.496094 51.160156 31.320312 C 50.742188 31.144531 50.390625 30.90625 50.105469 30.605469 C 49.820312 30.308594 49.597656 29.957031 49.4375 29.558594 Z M 51.0625 26.78125 C 50.683594 27.183594 50.492188 27.6875 50.492188 28.285156 C 50.492188 28.886719 50.683594 29.390625 51.0625 29.796875 C 51.441406 30.199219 51.925781 30.402344 52.507812 30.402344 C 52.890625 30.402344 53.234375 30.308594 53.539062 30.125 C 53.847656 29.9375 54.085938 29.683594 54.257812 29.363281 C 54.425781 29.039062 54.511719 28.679688 54.511719 28.285156 C 54.511719 27.6875 54.324219 27.183594 53.941406 26.78125 C 53.566406 26.378906 53.085938 26.175781 52.507812 26.175781 C 51.925781 26.175781 51.441406 26.378906 51.0625 26.78125 Z M 56.917969 28.964844 L 56.917969 25.167969 L 58.183594 25.167969 L 58.183594 29.070312 C 58.183594 29.488281 58.292969 29.8125 58.519531 30.050781 C 58.742188 30.285156 59.050781 30.402344 59.449219 30.402344 C 59.835938 30.402344 60.144531 30.285156 60.367188 30.050781 C 60.589844 29.8125 60.703125 29.488281 60.703125 29.070312 L 60.703125 25.167969 L 61.96875 25.167969 L 61.96875 28.964844 C 61.96875 29.785156 61.742188 30.425781 61.292969 30.890625 C 60.84375 31.351562 60.226562 31.585938 59.441406 31.585938 C 58.660156 31.585938 58.042969 31.351562 57.589844 30.890625 C 57.140625 30.425781 56.917969 29.785156 56.917969 28.964844 Z M 63.539062 31.40625 L 63.539062 25.167969 L 67.179688 25.167969 L 67.179688 26.246094 L 64.808594 26.246094 L 64.808594 27.691406 L 66.820312 27.691406 L 66.820312 28.769531 L 64.808594 28.769531 L 64.808594 30.328125 L 67.179688 30.328125 L 67.179688 31.40625 Z M 13.648438 40.746094 L 13.648438 34.503906 L 17.285156 34.503906 L 17.285156 35.582031 L 14.914062 35.582031 L 14.914062 37.027344 L 16.925781 37.027344 L 16.925781 38.105469 L 14.914062 38.105469 L 14.914062 40.746094 Z M 18.394531 40.746094 L 18.394531 34.503906 L 20.300781 34.503906 C 20.988281 34.503906 21.53125 34.671875 21.925781 35.003906 C 22.320312 35.335938 22.519531 35.789062 22.519531 36.367188 C 22.519531 36.738281 22.433594 37.0625 22.257812 37.335938 C 22.089844 37.613281 21.84375 37.828125 21.523438 37.980469 L 23.480469 40.746094 L 21.96875 40.746094 L 20.3125 38.21875 L 19.664062 38.21875 L 19.664062 40.746094 Z M 19.664062 37.144531 L 20.375 37.144531 C 20.644531 37.144531 20.851562 37.078125 20.996094 36.941406 C 21.144531 36.800781 21.21875 36.605469 21.21875 36.347656 C 21.21875 36.109375 21.144531 35.921875 20.996094 35.789062 C 20.851562 35.652344 20.644531 35.582031 20.375 35.582031 L 19.664062 35.582031 Z M 23.753906 40.746094 L 26.113281 34.503906 L 27.769531 34.503906 L 30.132812 40.746094 L 28.789062 40.746094 L 28.191406 39.121094 L 25.695312 39.121094 L 25.097656 40.746094 Z M 26.085938 38.042969 L 27.800781 38.042969 L 26.945312 35.699219 Z M 31.097656 40.746094 L 31.097656 34.503906 L 32.71875 34.503906 L 35.507812 38.96875 L 35.507812 34.503906 L 36.773438 34.503906 L 36.773438 40.746094 L 35.152344 40.746094 L 32.363281 36.261719 L 32.363281 40.746094 Z M 37.980469 37.625 C 37.980469 37.179688 38.0625 36.757812 38.226562 36.359375 C 38.386719 35.953125 38.609375 35.601562 38.894531 35.304688 C 39.183594 35.003906 39.535156 34.765625 39.949219 34.589844 C 40.367188 34.414062 40.816406 34.324219 41.296875 34.324219 C 41.847656 34.324219 42.351562 34.4375 42.800781 34.664062 C 43.257812 34.890625 43.632812 35.199219 43.925781 35.589844 L 42.929688 36.367188 C 42.742188 36.101562 42.511719 35.894531 42.230469 35.742188 C 41.953125 35.589844 41.640625 35.511719 41.296875 35.511719 C 40.714844 35.511719 40.234375 35.714844 39.851562 36.117188 C 39.472656 36.519531 39.28125 37.023438 39.28125 37.625 C 39.28125 38.222656 39.472656 38.726562 39.851562 39.132812 C 40.234375 39.539062 40.714844 39.738281 41.296875 39.738281 C 41.640625 39.738281 41.953125 39.660156 42.230469 39.507812 C 42.511719 39.355469 42.742188 39.144531 42.929688 38.882812 L 43.925781 39.648438 C 43.679688 39.984375 43.371094 40.261719 43.007812 40.480469 C 42.640625 40.695312 42.234375 40.828125 41.789062 40.886719 L 41.011719 42.179688 L 39.886719 42.179688 L 40.675781 40.871094 C 40.144531 40.777344 39.671875 40.574219 39.261719 40.261719 C 38.847656 39.949219 38.53125 39.5625 38.3125 39.101562 C 38.09375 38.644531 37.980469 38.152344 37.980469 37.625 Z M 44.195312 40.746094 L 46.554688 34.503906 L 48.210938 34.503906 L 50.574219 40.746094 L 49.230469 40.746094 L 48.632812 39.121094 L 46.136719 39.121094 L 45.542969 40.746094 Z M 46.527344 38.042969 L 48.242188 38.042969 L 47.386719 35.699219 Z M 51.539062 40.746094 L 51.539062 34.503906 L 52.804688 34.503906 L 52.804688 40.746094 Z M 53.984375 39.878906 L 54.90625 39.035156 C 55.09375 39.277344 55.304688 39.464844 55.542969 39.601562 C 55.785156 39.734375 56.03125 39.800781 56.285156 39.800781 C 56.53125 39.800781 56.730469 39.734375 56.871094 39.609375 C 57.015625 39.480469 57.089844 39.304688 57.089844 39.078125 C 57.089844 38.945312 57.046875 38.828125 56.964844 38.714844 C 56.886719 38.605469 56.777344 38.515625 56.640625 38.441406 C 56.507812 38.367188 56.355469 38.289062 56.183594 38.207031 C 56.011719 38.121094 55.839844 38.042969 55.660156 37.96875 C 55.484375 37.890625 55.308594 37.796875 55.140625 37.683594 C 54.96875 37.570312 54.816406 37.449219 54.679688 37.316406 C 54.542969 37.179688 54.4375 37.011719 54.355469 36.808594 C 54.273438 36.605469 54.234375 36.382812 54.234375 36.136719 C 54.234375 35.628906 54.421875 35.203125 54.796875 34.851562 C 55.171875 34.5 55.652344 34.324219 56.230469 34.324219 C 57.101562 34.324219 57.828125 34.675781 58.414062 35.378906 L 57.488281 36.210938 C 57.089844 35.691406 56.671875 35.429688 56.238281 35.429688 C 56.027344 35.429688 55.851562 35.492188 55.71875 35.617188 C 55.585938 35.742188 55.519531 35.898438 55.519531 36.082031 C 55.519531 36.203125 55.550781 36.3125 55.613281 36.410156 C 55.679688 36.503906 55.769531 36.589844 55.878906 36.667969 C 55.988281 36.738281 56.117188 36.808594 56.257812 36.878906 C 56.398438 36.945312 56.550781 37.015625 56.707031 37.089844 C 56.863281 37.15625 57.023438 37.230469 57.179688 37.308594 C 57.339844 37.390625 57.488281 37.484375 57.632812 37.59375 C 57.773438 37.699219 57.902344 37.820312 58.011719 37.953125 C 58.121094 38.085938 58.207031 38.246094 58.273438 38.433594 C 58.339844 38.617188 58.371094 38.824219 58.371094 39.050781 C 58.363281 39.617188 58.160156 40.070312 57.765625 40.414062 C 57.375 40.753906 56.886719 40.921875 56.300781 40.921875 C 55.789062 40.921875 55.347656 40.835938 54.972656 40.660156 C 54.601562 40.484375 54.273438 40.222656 53.984375 39.878906 Z M 59.695312 40.746094 L 59.695312 34.503906 L 63.335938 34.503906 L 63.335938 35.582031 L 60.960938 35.582031 L 60.960938 37.027344 L 62.976562 37.027344 L 62.976562 38.105469 L 60.960938 38.105469 L 60.960938 39.664062 L 63.335938 39.664062 L 63.335938 40.746094 Z M 59.695312 40.746094 "/>
<path style=" stroke:none;fill-rule:nonzero;fill:rgb(0%,0%,0%);fill-opacity:1;" d="M 33.847656 58.089844 C 34.015625 58.089844 34.164062 58.214844 34.085938 58.542969 L 33.296875 58.726562 C 33.433594 58.359375 33.660156 58.089844 33.84375 58.089844 Z M 34.277344 59.359375 L 34.121094 59.359375 C 33.925781 59.589844 33.714844 59.773438 33.503906 59.773438 C 33.296875 59.773438 33.179688 59.648438 33.179688 59.359375 C 33.183594 59.242188 33.195312 59.125 33.21875 59.007812 L 34.484375 58.59375 C 34.730469 58.007812 34.433594 57.75 34.089844 57.75 C 33.488281 57.75 32.808594 58.753906 32.808594 59.628906 C 32.808594 60.027344 32.992188 60.238281 33.285156 60.238281 C 33.628906 60.238281 33.984375 59.90625 34.273438 59.355469 Z M 34.023438 57.511719 L 34.910156 56.679688 L 34.910156 56.582031 L 34.429688 56.582031 L 33.882812 57.511719 Z M 31.292969 58.097656 L 31.710938 58.097656 L 31.050781 59.925781 C 30.992188 60.082031 31.078125 60.238281 31.234375 60.238281 C 31.613281 60.238281 32.226562 59.863281 32.441406 59.347656 L 32.324219 59.347656 C 32.152344 59.527344 31.828125 59.765625 31.550781 59.816406 L 32.164062 58.097656 L 32.789062 58.097656 L 32.867188 57.835938 L 32.257812 57.835938 L 32.492188 57.179688 L 32.25 57.179688 L 31.816406 57.835938 L 31.300781 57.910156 Z M 30.722656 58.011719 C 30.738281 57.984375 30.742188 57.957031 30.742188 57.925781 C 30.742188 57.894531 30.730469 57.867188 30.71875 57.839844 C 30.703125 57.816406 30.683594 57.792969 30.65625 57.777344 C 30.632812 57.761719 30.605469 57.75 30.574219 57.746094 C 30.207031 57.746094 29.773438 58.074219 29.601562 58.539062 L 29.730469 58.539062 C 29.851562 58.367188 30.050781 58.179688 30.238281 58.148438 L 29.535156 59.976562 C 29.519531 60.003906 29.515625 60.03125 29.515625 60.0625 C 29.515625 60.09375 29.523438 60.125 29.539062 60.148438 C 29.554688 60.175781 29.574219 60.199219 29.601562 60.214844 C 29.625 60.230469 29.65625 60.242188 29.6875 60.242188 C 30.03125 60.242188 30.4375 59.90625 30.613281 59.449219 L 30.496094 59.449219 C 30.375 59.621094 30.175781 59.808594 29.988281 59.839844 Z M 30.851562 57.097656 C 30.890625 57.097656 30.929688 57.089844 30.96875 57.074219 C 31.003906 57.058594 31.039062 57.035156 31.066406 57.007812 C 31.09375 56.980469 31.117188 56.945312 31.132812 56.910156 C 31.144531 56.875 31.152344 56.832031 31.152344 56.792969 C 31.152344 56.714844 31.121094 56.636719 31.066406 56.582031 C 31.007812 56.523438 30.933594 56.492188 30.851562 56.492188 C 30.773438 56.492188 30.695312 56.523438 30.640625 56.582031 C 30.582031 56.636719 30.550781 56.714844 30.550781 56.792969 C 30.550781 56.832031 30.558594 56.875 30.574219 56.910156 C 30.585938 56.949219 30.609375 56.980469 30.636719 57.007812 C 30.664062 57.039062 30.699219 57.058594 30.734375 57.074219 C 30.773438 57.089844 30.8125 57.097656 30.851562 57.097656 Z M 26.828125 59.898438 C 26.738281 60.105469 26.828125 60.238281 27.035156 60.238281 C 27.160156 60.238281 27.214844 60.207031 27.261719 60.074219 L 27.746094 58.789062 C 27.972656 58.511719 28.433594 58.21875 28.617188 58.21875 C 28.746094 58.21875 28.730469 58.328125 28.644531 58.496094 L 27.90625 59.925781 C 27.890625 59.960938 27.882812 59.996094 27.882812 60.03125 C 27.882812 60.066406 27.890625 60.105469 27.910156 60.136719 C 27.929688 60.167969 27.957031 60.191406 27.988281 60.210938 C 28.019531 60.230469 28.054688 60.238281 28.089844 60.238281 C 28.457031 60.238281 28.890625 59.910156 29.0625 59.449219 L 28.945312 59.449219 C 28.824219 59.617188 28.625 59.804688 28.4375 59.835938 L 29.074219 58.539062 C 29.148438 58.402344 29.191406 58.25 29.199219 58.097656 C 29.203125 58.050781 29.199219 58.003906 29.183594 57.960938 C 29.167969 57.914062 29.144531 57.875 29.113281 57.84375 C 29.082031 57.808594 29.039062 57.785156 28.996094 57.765625 C 28.953125 57.75 28.90625 57.746094 28.863281 57.75 C 28.546875 57.75 28.226562 58.105469 27.847656 58.542969 L 27.847656 58.207031 C 27.847656 57.960938 27.769531 57.75 27.550781 57.75 C 27.414062 57.75 27.28125 57.867188 27.15625 58.035156 L 27.15625 58.082031 C 27.394531 58.070312 27.5 58.425781 27.332031 58.800781 Z M 26.820312 58.304688 C 26.90625 58.007812 26.863281 57.746094 26.632812 57.746094 C 26.363281 57.746094 26.296875 57.953125 26.023438 58.542969 L 26.023438 58.203125 C 26.023438 57.960938 25.945312 57.746094 25.726562 57.746094 C 25.472656 57.746094 25.234375 58.144531 25.058594 58.539062 L 25.179688 58.539062 C 25.300781 58.359375 25.414062 58.253906 25.507812 58.253906 C 25.617188 58.253906 25.675781 58.421875 25.507812 58.800781 L 25.015625 59.898438 C 24.921875 60.105469 25.015625 60.238281 25.21875 60.238281 C 25.34375 60.238281 25.398438 60.207031 25.449219 60.074219 L 25.933594 58.785156 C 26.070312 58.617188 26.191406 58.46875 26.347656 58.304688 Z M 24.015625 58.085938 C 24.1875 58.085938 24.332031 58.214844 24.253906 58.539062 L 23.464844 58.722656 C 23.601562 58.355469 23.832031 58.085938 24.015625 58.085938 Z M 24.449219 59.355469 L 24.308594 59.355469 C 24.113281 59.589844 23.902344 59.769531 23.691406 59.769531 C 23.484375 59.769531 23.371094 59.644531 23.371094 59.355469 C 23.371094 59.238281 23.382812 59.121094 23.40625 59.007812 L 24.671875 58.589844 C 24.917969 58.003906 24.621094 57.746094 24.277344 57.746094 C 23.679688 57.746094 22.992188 58.75 22.992188 59.625 C 22.992188 60.023438 23.179688 60.234375 23.472656 60.234375 C 23.816406 60.234375 24.171875 59.902344 24.460938 59.351562 Z M 21.480469 58.101562 L 21.898438 58.101562 L 21.230469 59.925781 C 21.171875 60.082031 21.253906 60.238281 21.414062 60.238281 C 21.792969 60.238281 22.402344 59.863281 22.621094 59.347656 L 22.5 59.347656 C 22.332031 59.527344 22.007812 59.765625 21.730469 59.816406 L 22.335938 58.101562 L 22.964844 58.101562 L 23.039062 57.839844 L 22.4375 57.839844 L 22.667969 57.183594 L 22.429688 57.183594 L 21.996094 57.839844 L 21.480469 57.914062 Z M 19.171875 59.53125 C 19.171875 58.96875 19.796875 58.203125 20.152344 58.203125 C 20.222656 58.203125 20.292969 58.210938 20.363281 58.230469 L 20 59.207031 C 19.789062 59.464844 19.464844 59.773438 19.308594 59.773438 C 19.222656 59.773438 19.167969 59.703125 19.167969 59.53125 Z M 21.089844 57.652344 L 20.898438 57.636719 L 20.683594 57.847656 L 20.636719 57.847656 C 19.597656 57.847656 18.699219 59.023438 18.699219 59.875 C 18.695312 59.925781 18.699219 59.976562 18.71875 60.023438 C 18.734375 60.070312 18.761719 60.113281 18.796875 60.148438 C 18.832031 60.183594 18.875 60.214844 18.921875 60.230469 C 18.972656 60.246094 19.023438 60.253906 19.070312 60.25 C 19.34375 60.25 19.605469 59.863281 19.902344 59.453125 L 19.890625 59.597656 C 19.851562 60.019531 19.980469 60.25 20.199219 60.25 C 20.457031 60.25 20.691406 59.855469 20.867188 59.457031 L 20.746094 59.457031 C 20.628906 59.628906 20.515625 59.730469 20.421875 59.730469 C 20.332031 59.730469 20.261719 59.554688 20.421875 59.183594 Z M 18.871094 58.316406 C 18.957031 58.019531 18.910156 57.757812 18.683594 57.757812 C 18.414062 57.757812 18.347656 57.964844 18.070312 58.554688 L 18.070312 58.214844 C 18.070312 57.972656 17.996094 57.757812 17.777344 57.757812 C 17.519531 57.757812 17.285156 58.152344 17.109375 58.550781 L 17.230469 58.550781 C 17.351562 58.371094 17.464844 58.265625 17.558594 58.265625 C 17.667969 58.265625 17.726562 58.433594 17.558594 58.808594 L 17.0625 59.910156 C 16.972656 60.117188 17.0625 60.25 17.269531 60.25 C 17.296875 60.253906 17.324219 60.253906 17.351562 60.246094 C 17.375 60.242188 17.402344 60.230469 17.425781 60.214844 C 17.445312 60.195312 17.464844 60.175781 17.480469 60.152344 C 17.492188 60.128906 17.503906 60.105469 17.507812 60.078125 L 17.988281 58.789062 C 18.128906 58.621094 18.25 58.472656 18.40625 58.308594 Z M 15.378906 60.148438 L 15.425781 60.007812 C 14.816406 59.894531 14.734375 59.894531 14.980469 59.230469 L 15.226562 58.546875 L 15.898438 58.546875 C 16.199219 58.546875 16.207031 58.671875 16.160156 59 L 16.332031 59 L 16.734375 57.894531 L 16.5625 57.894531 C 16.410156 58.15625 16.292969 58.347656 15.964844 58.347656 L 15.300781 58.347656 L 15.652344 57.382812 C 15.761719 57.078125 15.824219 57.011719 16.238281 57.011719 L 16.53125 57.011719 C 16.957031 57.011719 17.007812 57.125 17.007812 57.558594 L 17.175781 57.558594 L 17.316406 56.804688 L 14.792969 56.804688 L 14.746094 56.949219 C 15.234375 57.046875 15.277344 57.09375 15.050781 57.726562 L 14.507812 59.230469 C 14.277344 59.855469 14.183594 59.90625 13.621094 60.007812 L 13.578125 60.148438 Z M 15.378906 60.148438 "/>
<path style=" stroke:none;fill-rule:nonzero;fill:rgb(0%,0%,0%);fill-opacity:1;" d="M 27.734375 52.363281 C 27.902344 52.363281 28.050781 52.492188 27.972656 52.816406 L 27.183594 53 C 27.320312 52.632812 27.546875 52.363281 27.730469 52.363281 Z M 28.164062 53.632812 L 28.011719 53.632812 C 27.8125 53.863281 27.601562 54.046875 27.394531 54.046875 C 27.183594 54.046875 27.070312 53.917969 27.070312 53.632812 C 27.070312 53.515625 27.082031 53.398438 27.105469 53.28125 L 28.371094 52.867188 C 28.617188 52.28125 28.320312 52.023438 27.976562 52.023438 C 27.378906 52.023438 26.695312 53.027344 26.695312 53.902344 C 26.695312 54.296875 26.882812 54.511719 27.171875 54.511719 C 27.515625 54.511719 27.871094 54.175781 28.160156 53.628906 Z M 27.90625 51.785156 L 28.792969 50.949219 L 28.792969 50.851562 L 28.316406 50.851562 L 27.765625 51.78125 Z M 25.175781 52.371094 L 25.597656 52.371094 L 24.929688 54.199219 C 24.871094 54.355469 24.953125 54.511719 25.113281 54.511719 C 25.492188 54.511719 26.105469 54.136719 26.320312 53.621094 L 26.199219 53.621094 C 26.03125 53.800781 25.707031 54.035156 25.429688 54.085938 L 26.039062 52.371094 L 26.675781 52.371094 L 26.753906 52.109375 L 26.144531 52.109375 L 26.378906 51.449219 L 26.136719 51.449219 L 25.703125 52.109375 L 25.1875 52.183594 Z M 24.609375 52.285156 C 24.625 52.257812 24.628906 52.226562 24.628906 52.199219 C 24.628906 52.167969 24.617188 52.136719 24.605469 52.113281 C 24.589844 52.085938 24.570312 52.066406 24.542969 52.046875 C 24.519531 52.03125 24.488281 52.023438 24.460938 52.019531 C 24.09375 52.019531 23.660156 52.347656 23.488281 52.808594 L 23.621094 52.808594 C 23.738281 52.640625 23.9375 52.453125 24.125 52.421875 L 23.421875 54.25 C 23.40625 54.277344 23.402344 54.304688 23.402344 54.335938 C 23.402344 54.367188 23.410156 54.398438 23.425781 54.421875 C 23.441406 54.449219 23.460938 54.472656 23.488281 54.488281 C 23.511719 54.503906 23.542969 54.511719 23.574219 54.515625 C 23.921875 54.515625 24.324219 54.179688 24.5 53.722656 L 24.378906 53.722656 C 24.261719 53.894531 24.0625 54.082031 23.875 54.113281 Z M 24.738281 51.367188 C 24.800781 51.367188 24.855469 51.351562 24.90625 51.316406 C 24.957031 51.285156 24.996094 51.238281 25.019531 51.183594 C 25.039062 51.125 25.046875 51.066406 25.035156 51.007812 C 25.023438 50.949219 24.996094 50.894531 24.953125 50.851562 C 24.910156 50.808594 24.855469 50.78125 24.796875 50.769531 C 24.738281 50.757812 24.679688 50.761719 24.625 50.785156 C 24.570312 50.808594 24.523438 50.847656 24.488281 50.898438 C 24.457031 50.949219 24.4375 51.007812 24.4375 51.066406 C 24.4375 51.105469 24.445312 51.144531 24.460938 51.183594 C 24.476562 51.21875 24.496094 51.25 24.527344 51.28125 C 24.554688 51.308594 24.585938 51.332031 24.625 51.347656 C 24.660156 51.359375 24.699219 51.367188 24.738281 51.367188 Z M 22.320312 54.113281 L 23.59375 50.761719 L 23.550781 50.710938 L 22.753906 50.804688 L 22.753906 50.902344 L 22.910156 51.023438 C 23.050781 51.132812 23.007812 51.238281 22.875 51.578125 L 21.882812 54.203125 C 21.863281 54.234375 21.855469 54.273438 21.855469 54.308594 C 21.855469 54.34375 21.867188 54.378906 21.882812 54.410156 C 21.902344 54.441406 21.929688 54.46875 21.960938 54.488281 C 21.992188 54.503906 22.027344 54.515625 22.0625 54.515625 C 22.429688 54.515625 22.816406 54.183594 22.988281 53.722656 L 22.871094 53.722656 C 22.734375 53.914062 22.542969 54.050781 22.320312 54.113281 Z M 19.898438 53.800781 C 19.898438 53.238281 20.523438 52.472656 20.875 52.472656 C 20.949219 52.472656 21.019531 52.480469 21.089844 52.5 L 20.726562 53.476562 C 20.515625 53.734375 20.191406 54.042969 20.042969 54.042969 C 19.953125 54.042969 19.898438 53.972656 19.898438 53.800781 Z M 21.820312 51.921875 L 21.628906 51.90625 L 21.414062 52.113281 L 21.371094 52.113281 C 20.328125 52.113281 19.429688 53.285156 19.429688 54.140625 C 19.425781 54.191406 19.429688 54.242188 19.449219 54.289062 C 19.464844 54.335938 19.492188 54.378906 19.527344 54.414062 C 19.566406 54.449219 19.609375 54.476562 19.65625 54.496094 C 19.703125 54.511719 19.753906 54.519531 19.804688 54.515625 C 20.074219 54.515625 20.335938 54.128906 20.632812 53.71875 L 20.621094 53.863281 C 20.585938 54.285156 20.710938 54.515625 20.929688 54.515625 C 21.1875 54.515625 21.421875 54.117188 21.597656 53.722656 L 21.480469 53.722656 C 21.355469 53.902344 21.242188 54.007812 21.148438 54.007812 C 21.058594 54.007812 20.984375 53.832031 21.148438 53.460938 Z M 17.171875 54.960938 C 17.171875 54.714844 17.40625 54.5625 17.738281 54.433594 C 17.898438 54.507812 18.066406 54.570312 18.234375 54.621094 C 18.578125 54.734375 18.710938 54.78125 18.710938 54.886719 C 18.710938 55.109375 18.332031 55.28125 17.816406 55.28125 C 17.382812 55.28125 17.171875 55.191406 17.171875 54.960938 Z M 18.117188 53.476562 C 17.96875 53.476562 17.910156 53.347656 17.910156 53.203125 C 17.910156 52.796875 18.128906 52.195312 18.46875 52.195312 C 18.621094 52.195312 18.679688 52.324219 18.679688 52.46875 C 18.679688 52.878906 18.460938 53.476562 18.117188 53.476562 Z M 19.105469 54.734375 C 19.105469 54.4375 18.84375 54.335938 18.417969 54.207031 C 18.054688 54.097656 17.890625 54.066406 17.890625 53.945312 C 17.890625 53.847656 17.96875 53.734375 18.121094 53.648438 C 18.382812 53.628906 18.628906 53.511719 18.808594 53.324219 C 18.992188 53.132812 19.097656 52.882812 19.109375 52.621094 C 19.109375 52.535156 19.09375 52.449219 19.058594 52.371094 L 19.566406 52.371094 L 19.640625 52.109375 L 18.84375 52.109375 C 18.746094 52.046875 18.636719 52.015625 18.519531 52.015625 C 18.25 52.019531 17.992188 52.125 17.796875 52.316406 C 17.601562 52.503906 17.488281 52.757812 17.472656 53.03125 C 17.46875 53.171875 17.515625 53.3125 17.601562 53.425781 C 17.691406 53.539062 17.816406 53.613281 17.957031 53.640625 C 17.664062 53.773438 17.496094 53.925781 17.496094 54.109375 C 17.496094 54.160156 17.503906 54.207031 17.527344 54.25 C 17.550781 54.292969 17.582031 54.332031 17.621094 54.359375 C 16.9375 54.554688 16.664062 54.789062 16.664062 55.113281 C 16.664062 55.441406 17.082031 55.574219 17.574219 55.574219 C 18.410156 55.574219 19.109375 55.121094 19.109375 54.742188 Z M 15.917969 52.773438 C 16.21875 52.773438 16.222656 52.898438 16.179688 53.226562 L 16.351562 53.226562 L 16.753906 52.125 L 16.582031 52.125 C 16.429688 52.382812 16.308594 52.578125 15.980469 52.578125 L 15.320312 52.578125 L 15.652344 51.65625 C 15.761719 51.351562 15.824219 51.289062 16.238281 51.289062 L 16.53125 51.289062 C 16.957031 51.289062 17.007812 51.40625 17.007812 51.832031 L 17.175781 51.832031 L 17.316406 51.078125 L 14.792969 51.078125 L 14.746094 51.222656 C 15.234375 51.320312 15.277344 51.367188 15.050781 52 L 14.507812 53.503906 C 14.277344 54.128906 14.183594 54.179688 13.621094 54.28125 L 13.578125 54.421875 L 16.382812 54.421875 L 16.886719 53.625 L 16.695312 53.625 C 16.375 53.929688 15.972656 54.21875 15.410156 54.21875 C 14.667969 54.21875 14.738281 54.1875 14.984375 53.503906 L 15.246094 52.777344 Z M 16.285156 50.855469 L 17.171875 50.242188 L 17.171875 50.140625 L 16.632812 50.140625 L 16.140625 50.851562 Z M 16.285156 50.855469 "/>
<path style=" stroke:none;fill-rule:nonzero;fill:rgb(0%,0%,0%);fill-opacity:1;" d="M 27.4375 46.636719 C 27.605469 46.636719 27.753906 46.761719 27.675781 47.089844 L 26.886719 47.273438 C 27.023438 46.90625 27.25 46.636719 27.433594 46.636719 Z M 27.867188 47.902344 L 27.710938 47.902344 C 27.515625 48.136719 27.304688 48.320312 27.097656 48.320312 C 26.886719 48.320312 26.773438 48.191406 26.773438 47.902344 C 26.773438 47.785156 26.785156 47.671875 26.808594 47.554688 L 28.074219 47.140625 C 28.320312 46.550781 28.023438 46.296875 27.679688 46.296875 C 27.082031 46.296875 26.398438 47.300781 26.398438 48.175781 C 26.398438 48.570312 26.585938 48.785156 26.875 48.785156 C 27.21875 48.785156 27.574219 48.453125 27.867188 47.902344 Z M 27.617188 46.058594 L 28.503906 45.226562 L 28.503906 45.125 L 28.023438 45.125 L 27.476562 46.058594 Z M 25 46.648438 L 25.332031 46.648438 L 24.667969 48.476562 C 24.605469 48.632812 24.6875 48.789062 24.847656 48.789062 C 25.226562 48.789062 25.835938 48.414062 26.054688 47.898438 L 25.933594 47.898438 C 25.765625 48.074219 25.441406 48.316406 25.164062 48.363281 L 25.777344 46.648438 L 26.402344 46.648438 L 26.480469 46.386719 L 25.871094 46.386719 L 26.105469 45.726562 L 25.863281 45.726562 L 25.429688 46.386719 L 25 46.460938 Z M 24.671875 46.855469 C 24.757812 46.558594 24.710938 46.296875 24.484375 46.296875 C 24.214844 46.296875 24.144531 46.503906 23.871094 47.09375 L 23.871094 46.753906 C 23.871094 46.511719 23.792969 46.296875 23.574219 46.296875 C 23.320312 46.296875 23.082031 46.691406 22.910156 47.085938 L 23.027344 47.085938 C 23.152344 46.910156 23.265625 46.804688 23.355469 46.804688 C 23.464844 46.804688 23.523438 46.972656 23.355469 47.347656 L 22.863281 48.449219 C 22.769531 48.65625 22.863281 48.789062 23.066406 48.789062 C 23.121094 48.792969 23.171875 48.78125 23.214844 48.75 C 23.257812 48.71875 23.289062 48.675781 23.296875 48.621094 L 23.78125 47.335938 C 23.917969 47.167969 24.042969 47.019531 24.195312 46.855469 Z M 21.867188 46.636719 C 22.035156 46.636719 22.183594 46.761719 22.105469 47.089844 L 21.316406 47.273438 C 21.453125 46.90625 21.679688 46.636719 21.863281 46.636719 Z M 22.296875 47.902344 L 22.148438 47.902344 C 21.953125 48.136719 21.742188 48.320312 21.535156 48.320312 C 21.324219 48.320312 21.210938 48.191406 21.210938 47.902344 C 21.210938 47.785156 21.222656 47.671875 21.246094 47.554688 L 22.511719 47.140625 C 22.757812 46.550781 22.460938 46.296875 22.117188 46.296875 C 21.519531 46.296875 20.835938 47.300781 20.835938 48.175781 C 20.835938 48.570312 21.023438 48.785156 21.3125 48.785156 C 21.65625 48.785156 22.011719 48.453125 22.300781 47.902344 Z M 19.199219 48.414062 C 19.078125 48.414062 18.898438 48.300781 18.898438 48.199219 C 18.929688 48.078125 18.972656 47.960938 19.023438 47.847656 L 19.226562 47.300781 C 19.445312 47.039062 19.78125 46.761719 19.96875 46.761719 C 20.082031 46.761719 20.164062 46.832031 20.164062 47.003906 C 20.164062 47.5 19.699219 48.414062 19.195312 48.414062 Z M 20.632812 46.800781 C 20.632812 46.429688 20.496094 46.292969 20.238281 46.292969 C 19.921875 46.292969 19.621094 46.632812 19.316406 47.042969 L 20.082031 45.035156 L 20.050781 44.988281 L 19.25 45.078125 L 19.25 45.179688 L 19.40625 45.296875 C 19.546875 45.40625 19.503906 45.523438 19.375 45.851562 L 18.550781 47.976562 C 18.496094 48.105469 18.453125 48.234375 18.421875 48.367188 C 18.421875 48.585938 18.714844 48.792969 18.984375 48.792969 C 19.605469 48.792969 20.644531 47.671875 20.644531 46.808594 Z M 18.160156 46.566406 C 18.171875 46.539062 18.179688 46.511719 18.175781 46.480469 C 18.175781 46.449219 18.167969 46.421875 18.152344 46.394531 C 18.136719 46.371094 18.117188 46.347656 18.09375 46.332031 C 18.066406 46.3125 18.039062 46.304688 18.007812 46.300781 C 17.644531 46.300781 17.210938 46.632812 17.035156 47.09375 L 17.15625 47.09375 C 17.273438 46.921875 17.472656 46.734375 17.660156 46.703125 L 16.960938 48.527344 C 16.949219 48.554688 16.945312 48.582031 16.945312 48.613281 C 16.945312 48.644531 16.953125 48.671875 16.96875 48.695312 C 16.984375 48.722656 17.003906 48.746094 17.027344 48.761719 C 17.054688 48.777344 17.082031 48.785156 17.113281 48.789062 C 17.457031 48.789062 17.863281 48.453125 18.039062 47.996094 L 17.921875 47.996094 C 17.800781 48.164062 17.605469 48.351562 17.414062 48.386719 Z M 18.285156 45.648438 C 18.328125 45.652344 18.367188 45.644531 18.402344 45.628906 C 18.441406 45.613281 18.476562 45.589844 18.503906 45.5625 C 18.53125 45.53125 18.554688 45.5 18.570312 45.460938 C 18.582031 45.421875 18.589844 45.382812 18.589844 45.34375 C 18.589844 45.261719 18.558594 45.1875 18.5 45.128906 C 18.445312 45.074219 18.367188 45.042969 18.289062 45.039062 C 18.25 45.039062 18.210938 45.046875 18.171875 45.0625 C 18.136719 45.078125 18.105469 45.101562 18.074219 45.128906 C 18.046875 45.15625 18.027344 45.191406 18.011719 45.226562 C 17.996094 45.265625 17.988281 45.304688 17.988281 45.34375 C 17.988281 45.382812 17.996094 45.421875 18.007812 45.460938 C 18.023438 45.496094 18.046875 45.53125 18.074219 45.558594 C 18.101562 45.585938 18.136719 45.609375 18.171875 45.625 C 18.210938 45.636719 18.25 45.644531 18.289062 45.644531 Z M 16.449219 45.347656 L 14.785156 45.347656 L 14.738281 45.492188 C 15.230469 45.589844 15.273438 45.636719 15.046875 46.269531 L 14.507812 47.777344 C 14.277344 48.402344 14.183594 48.453125 13.621094 48.554688 L 13.578125 48.695312 L 16.109375 48.695312 L 16.65625 47.71875 L 16.464844 47.71875 C 16.15625 48.058594 15.789062 48.492188 15.226562 48.492188 C 14.804688 48.492188 14.753906 48.417969 14.980469 47.777344 L 15.519531 46.273438 C 15.742188 45.644531 15.84375 45.597656 16.40625 45.496094 Z M 16.449219 45.347656 "/>
<path style=" stroke:none;fill-rule:nonzero;fill:rgb(21.568627%,23.529412%,25.882353%);fill-opacity:1;" d="M 92.375 40.746094 L 92.375 30.046875 L 98.609375 30.046875 L 98.609375 31.894531 L 94.546875 31.894531 L 94.546875 34.371094 L 98 34.371094 L 98 36.222656 L 94.546875 36.222656 L 94.546875 38.894531 L 98.609375 38.894531 L 98.609375 40.746094 Z M 94.488281 29.136719 L 96.210938 27.070312 L 98.4375 27.070312 L 96.457031 29.136719 Z M 100.375 37.574219 C 100.097656 36.882812 99.957031 36.15625 99.957031 35.394531 C 99.957031 34.632812 100.097656 33.910156 100.375 33.222656 C 100.652344 32.53125 101.035156 31.929688 101.523438 31.417969 C 102.015625 30.90625 102.617188 30.5 103.328125 30.195312 C 104.042969 29.890625 104.816406 29.738281 105.640625 29.738281 C 106.585938 29.738281 107.445312 29.933594 108.222656 30.320312 C 109 30.710938 109.644531 31.238281 110.144531 31.910156 L 108.4375 33.238281 C 108.121094 32.785156 107.722656 32.429688 107.242188 32.171875 C 106.765625 31.910156 106.234375 31.777344 105.640625 31.777344 C 104.640625 31.777344 103.816406 32.121094 103.164062 32.8125 C 102.511719 33.503906 102.1875 34.367188 102.1875 35.394531 C 102.1875 36.425781 102.511719 37.289062 103.164062 37.984375 C 103.816406 38.675781 104.640625 39.019531 105.640625 39.019531 C 106.234375 39.019531 106.765625 38.890625 107.242188 38.625 C 107.722656 38.363281 108.121094 38.003906 108.4375 37.550781 L 110.144531 38.863281 C 109.644531 39.546875 109.003906 40.082031 108.230469 40.46875 C 107.453125 40.855469 106.589844 41.050781 105.640625 41.050781 C 104.816406 41.050781 104.042969 40.898438 103.328125 40.59375 C 102.617188 40.292969 102.015625 39.882812 101.523438 39.371094 C 101.035156 38.859375 100.652344 38.261719 100.375 37.574219 Z M 111.453125 37.574219 C 111.175781 36.882812 111.035156 36.15625 111.035156 35.394531 C 111.035156 34.632812 111.175781 33.910156 111.453125 33.222656 C 111.734375 32.53125 112.117188 31.929688 112.601562 31.417969 C 113.09375 30.90625 113.699219 30.5 114.40625 30.195312 C 115.125 29.890625 115.894531 29.738281 116.71875 29.738281 C 117.539062 29.738281 118.304688 29.890625 119.019531 30.195312 C 119.734375 30.5 120.335938 30.90625 120.824219 31.417969 C 121.308594 31.929688 121.691406 32.53125 121.972656 33.222656 C 122.25 33.910156 122.390625 34.632812 122.390625 35.394531 C 122.390625 36.15625 122.25 36.882812 121.972656 37.574219 C 121.691406 38.261719 121.308594 38.859375 120.824219 39.371094 C 120.335938 39.882812 119.734375 40.292969 119.019531 40.59375 C 118.304688 40.898438 117.539062 41.050781 116.71875 41.050781 C 115.894531 41.050781 115.125 40.898438 114.40625 40.59375 C 113.699219 40.292969 113.09375 39.882812 112.601562 39.371094 C 112.117188 38.859375 111.734375 38.261719 111.453125 37.574219 Z M 114.246094 32.8125 C 113.59375 33.503906 113.265625 34.367188 113.265625 35.394531 C 113.265625 36.425781 113.59375 37.289062 114.246094 37.984375 C 114.894531 38.675781 115.722656 39.019531 116.71875 39.019531 C 117.375 39.019531 117.964844 38.863281 118.488281 38.542969 C 119.015625 38.226562 119.425781 37.789062 119.71875 37.238281 C 120.011719 36.6875 120.160156 36.070312 120.160156 35.394531 C 120.160156 34.367188 119.832031 33.503906 119.179688 32.8125 C 118.535156 32.121094 117.714844 31.777344 116.71875 31.777344 C 115.722656 31.777344 114.894531 32.121094 114.246094 32.8125 Z M 123.371094 39.257812 L 124.945312 37.8125 C 125.265625 38.230469 125.632812 38.554688 126.039062 38.78125 C 126.453125 39.011719 126.875 39.125 127.308594 39.125 C 127.734375 39.125 128.070312 39.015625 128.316406 38.796875 C 128.5625 38.578125 128.6875 38.273438 128.6875 37.886719 C 128.6875 37.664062 128.617188 37.457031 128.480469 37.269531 C 128.339844 37.078125 128.152344 36.921875 127.917969 36.796875 C 127.691406 36.667969 127.429688 36.535156 127.136719 36.394531 C 126.84375 36.25 126.542969 36.113281 126.242188 35.984375 C 125.9375 35.855469 125.640625 35.695312 125.347656 35.5 C 125.054688 35.304688 124.789062 35.09375 124.554688 34.867188 C 124.328125 34.636719 124.144531 34.347656 124.003906 34 C 123.863281 33.652344 123.796875 33.265625 123.796875 32.84375 C 123.796875 31.976562 124.117188 31.246094 124.757812 30.644531 C 125.402344 30.039062 126.222656 29.738281 127.21875 29.738281 C 128.710938 29.738281 129.957031 30.339844 130.960938 31.546875 L 129.375 32.96875 C 128.6875 32.078125 127.972656 31.636719 127.234375 31.636719 C 126.867188 31.636719 126.566406 31.742188 126.339844 31.957031 C 126.109375 32.167969 125.996094 32.4375 125.996094 32.753906 C 125.996094 32.957031 126.050781 33.144531 126.160156 33.3125 C 126.273438 33.476562 126.425781 33.625 126.613281 33.753906 C 126.804688 33.878906 127.019531 34 127.261719 34.121094 C 127.507812 34.234375 127.761719 34.351562 128.03125 34.476562 C 128.304688 34.597656 128.574219 34.722656 128.84375 34.859375 C 129.117188 34.992188 129.375 35.152344 129.621094 35.34375 C 129.863281 35.527344 130.078125 35.734375 130.269531 35.960938 C 130.457031 36.1875 130.605469 36.460938 130.714844 36.78125 C 130.832031 37.101562 130.886719 37.453125 130.886719 37.84375 C 130.875 38.8125 130.527344 39.589844 129.851562 40.175781 C 129.179688 40.757812 128.34375 41.050781 127.335938 41.050781 C 126.460938 41.050781 125.703125 40.902344 125.0625 40.601562 C 124.425781 40.300781 123.863281 39.851562 123.371094 39.257812 Z M 131.757812 40.746094 L 135.800781 30.046875 L 138.640625 30.046875 L 142.691406 40.746094 L 140.386719 40.746094 L 139.363281 37.960938 L 135.082031 37.960938 L 134.0625 40.746094 Z M 135.753906 36.109375 L 138.695312 36.109375 L 137.222656 32.097656 Z M 144.34375 40.746094 L 144.34375 30.046875 L 147.125 30.046875 L 151.90625 37.699219 L 151.90625 30.046875 L 154.078125 30.046875 L 154.078125 40.746094 L 151.292969 40.746094 L 146.515625 33.058594 L 146.515625 40.746094 Z M 155.960938 32.023438 L 155.960938 30.046875 L 164.730469 30.046875 L 164.730469 32.023438 L 161.433594 32.023438 L 161.433594 40.746094 L 159.265625 40.746094 L 159.265625 32.023438 Z M 166.636719 40.746094 L 166.636719 30.046875 L 172.871094 30.046875 L 172.871094 31.894531 L 168.808594 31.894531 L 168.808594 34.371094 L 172.261719 34.371094 L 172.261719 36.222656 L 168.808594 36.222656 L 168.808594 38.894531 L 172.871094 38.894531 L 172.871094 40.746094 Z M 168.75 29.136719 L 170.472656 27.070312 L 172.699219 27.070312 L 170.71875 29.136719 Z M 168.75 29.136719 "/>
</g>
</svg>
